<svg width="1177" height="258" viewBox="0 0 1177 258" fill="none" xmlns="http://www.w3.org/2000/svg">
<mask id="path-1-outside-1_338_121" maskUnits="userSpaceOnUse" x="5" y="84" width="1162" height="174" fill="black">
<rect fill="white" x="5" y="84" width="1162" height="174"/>
<path d="M62.64 253C55.44 253 49.68 250.84 45.36 246.52C41.2 242.2 39.12 236.44 39.12 229.24V155.56H6.48V134.68H39.12V95.56H63.84V134.68H99.12V155.56H63.84V224.92C63.84 229.72 66.08 232.12 70.56 232.12H95.28V253H62.64ZM113.762 253V134.68H138.002V148.6H141.842C143.762 143.64 146.802 140.04 150.962 137.8C155.282 135.4 160.562 134.2 166.802 134.2H180.962V156.52H165.842C157.842 156.52 151.282 158.76 146.162 163.24C141.042 167.56 138.482 174.28 138.482 183.4V253H113.762ZM225.613 256.36C217.133 256.36 209.533 254.92 202.813 252.04C196.253 249.16 190.973 244.92 186.973 239.32C183.133 233.72 181.213 226.92 181.213 218.92C181.213 210.76 183.133 204.04 186.973 198.76C190.973 193.32 196.333 189.24 203.053 186.52C209.933 183.8 217.693 182.44 226.333 182.44H262.333V174.76C262.333 167.88 260.253 162.36 256.093 158.2C251.933 154.04 245.533 151.96 236.893 151.96C228.413 151.96 221.933 153.96 217.453 157.96C212.973 161.96 210.013 167.16 208.573 173.56L185.533 166.12C187.453 159.72 190.493 153.96 194.653 148.84C198.973 143.56 204.653 139.32 211.693 136.12C218.733 132.92 227.213 131.32 237.133 131.32C252.493 131.32 264.573 135.24 273.373 143.08C282.173 150.92 286.573 162.04 286.573 176.44V225.16C286.573 229.96 288.813 232.36 293.293 232.36H303.373V253H284.893C279.293 253 274.733 251.56 271.213 248.68C267.693 245.8 265.933 241.88 265.933 236.92V236.2H262.333C261.053 238.6 259.133 241.4 256.573 244.6C254.013 247.8 250.253 250.6 245.293 253C240.333 255.24 233.773 256.36 225.613 256.36ZM229.213 235.96C239.133 235.96 247.133 233.16 253.213 227.56C259.293 221.8 262.333 213.96 262.333 204.04V201.64H227.773C221.213 201.64 215.933 203.08 211.933 205.96C207.933 208.68 205.933 212.76 205.933 218.2C205.933 223.64 208.013 227.96 212.173 231.16C216.333 234.36 222.013 235.96 229.213 235.96ZM313.009 253V134.68H337.249V152.44H341.089C343.329 147.64 347.329 143.16 353.089 139C358.849 134.84 367.409 132.76 378.769 132.76C387.729 132.76 395.649 134.76 402.529 138.76C409.569 142.76 415.089 148.44 419.089 155.8C423.089 163 425.089 171.72 425.089 181.96V253H400.369V183.88C400.369 173.64 397.809 166.12 392.689 161.32C387.569 156.36 380.529 153.88 371.569 153.88C361.329 153.88 353.089 157.24 346.849 163.96C340.769 170.68 337.729 180.44 337.729 193.24V253H313.009ZM494.745 256.36C479.705 256.36 467.225 253 457.305 246.28C447.385 239.56 441.305 229.4 439.065 215.8L462.105 210.28C463.385 216.84 465.545 222.04 468.585 225.88C471.625 229.72 475.385 232.44 479.865 234.04C484.505 235.64 489.465 236.44 494.745 236.44C502.585 236.44 508.585 234.92 512.745 231.88C517.065 228.84 519.225 224.92 519.225 220.12C519.225 215.32 517.225 211.8 513.225 209.56C509.225 207.32 503.305 205.48 495.465 204.04L487.305 202.6C479.305 201.16 472.025 199.08 465.465 196.36C458.905 193.64 453.705 189.88 449.865 185.08C446.025 180.28 444.105 174.12 444.105 166.6C444.105 155.4 448.265 146.76 456.585 140.68C464.905 134.44 475.945 131.32 489.705 131.32C502.985 131.32 513.865 134.36 522.345 140.44C530.985 146.36 536.585 154.44 539.145 164.68L516.105 171.16C514.665 163.96 511.625 158.92 506.985 156.04C502.345 153 496.585 151.48 489.705 151.48C482.985 151.48 477.705 152.76 473.865 155.32C470.025 157.72 468.105 161.16 468.105 165.64C468.105 170.44 469.945 173.96 473.625 176.2C477.465 178.44 482.585 180.12 488.985 181.24L497.385 182.68C505.865 184.12 513.625 186.12 520.665 188.68C527.705 191.24 533.225 194.92 537.225 199.72C541.385 204.52 543.465 210.92 543.465 218.92C543.465 230.76 539.065 239.96 530.265 246.52C521.465 253.08 509.625 256.36 494.745 256.36ZM576.741 253V155.56H543.621V134.68H576.741V108.76C576.741 101.56 578.901 95.8 583.221 91.48C587.541 87.16 593.301 85 600.501 85H629.301V105.88H608.421C603.781 105.88 601.461 108.28 601.461 113.08V134.68H654.501V155.56H601.461V253H576.741ZM654.501 253V134.68H679.221V253H654.501ZM666.981 119.32C662.181 119.32 658.101 117.8 654.741 114.76C651.541 111.56 649.941 107.48 649.941 102.52C649.941 97.4 651.541 93.32 654.741 90.28C658.101 87.24 662.181 85.72 666.981 85.72C671.781 85.72 675.781 87.24 678.981 90.28C682.341 93.32 684.021 97.4 684.021 102.52C684.021 107.48 682.341 111.56 678.981 114.76C675.781 117.8 671.781 119.32 666.981 119.32ZM701.293 253V134.68H725.533V152.44H729.373C731.613 147.64 735.613 143.16 741.373 139C747.133 134.84 755.693 132.76 767.053 132.76C776.013 132.76 783.933 134.76 790.813 138.76C797.853 142.76 803.373 148.44 807.373 155.8C811.373 163 813.373 171.72 813.373 181.96V253H788.653V183.88C788.653 173.64 786.093 166.12 780.973 161.32C775.853 156.36 768.813 153.88 759.853 153.88C749.613 153.88 741.373 157.24 735.133 163.96C729.053 170.68 726.013 180.44 726.013 193.24V253H701.293ZM834.549 253V134.68H859.269V253H834.549ZM847.029 118.6C842.229 118.6 838.149 117.08 834.789 114.04C831.589 110.84 829.989 106.76 829.989 101.8C829.989 96.84 831.589 92.84 834.789 89.8C838.149 86.6 842.229 85 847.029 85C851.989 85 856.069 86.6 859.269 89.8C862.469 92.84 864.069 96.84 864.069 101.8C864.069 106.76 862.469 110.84 859.269 114.04C856.069 117.08 851.989 118.6 847.029 118.6ZM925.956 253C918.756 253 912.996 250.84 908.676 246.52C904.516 242.2 902.436 236.44 902.436 229.24V155.56H869.796V134.68H902.436V95.56H927.156V134.68H954.996V155.56H927.156V224.92C927.156 229.72 929.396 232.12 933.876 232.12H958.596V253H925.956ZM1003.72 253C996.516 253 990.756 250.84 986.436 246.52C982.116 242.2 979.956 236.44 979.956 229.24V155.56H954.996V134.68H979.956V95.56H1004.68V134.68H1040.2V155.56H1004.68V224.92C1004.68 229.72 1007 232.12 1011.64 232.12H1036.12V253H1003.72ZM1109.13 256.36C1097.13 256.36 1086.65 253.88 1077.69 248.92C1068.73 243.8 1061.69 236.68 1056.57 227.56C1051.61 218.28 1049.13 207.56 1049.13 195.4V192.52C1049.13 180.2 1051.61 169.48 1056.57 160.36C1061.53 151.08 1068.41 143.96 1077.21 139C1086.17 133.88 1096.49 131.32 1108.17 131.32C1119.53 131.32 1129.45 133.88 1137.93 139C1146.57 143.96 1153.29 150.92 1158.09 159.88C1162.89 168.84 1165.29 179.32 1165.29 191.32V200.68H1074.33C1074.65 211.08 1078.09 219.4 1084.65 225.64C1091.37 231.72 1099.69 234.76 1109.61 234.76C1118.89 234.76 1125.85 232.68 1130.49 228.52C1135.29 224.36 1138.97 219.56 1141.53 214.12L1161.93 224.68C1159.69 229.16 1156.41 233.88 1152.09 238.84C1147.93 243.8 1142.41 247.96 1135.53 251.32C1128.65 254.68 1119.85 256.36 1109.13 256.36ZM1074.57 181.72H1140.09C1139.45 172.76 1136.25 165.8 1130.49 160.84C1124.73 155.72 1117.21 153.16 1107.93 153.16C1098.65 153.16 1091.05 155.72 1085.13 160.84C1079.37 165.8 1075.85 172.76 1074.57 181.72Z"/>
</mask>
<path d="M45.36 246.52L44.6397 247.214L44.6462 247.22L44.6529 247.227L45.36 246.52ZM39.12 155.56H40.12V154.56H39.12V155.56ZM6.48 155.56H5.48V156.56H6.48V155.56ZM6.48 134.68V133.68H5.48V134.68H6.48ZM39.12 134.68V135.68H40.12V134.68H39.12ZM39.12 95.56V94.56H38.12V95.56H39.12ZM63.84 95.56H64.84V94.56H63.84V95.56ZM63.84 134.68H62.84V135.68H63.84V134.68ZM99.12 134.68H100.12V133.68H99.12V134.68ZM99.12 155.56V156.56H100.12V155.56H99.12ZM63.84 155.56V154.56H62.84V155.56H63.84ZM95.28 232.12H96.28V231.12H95.28V232.12ZM95.28 253V254H96.28V253H95.28ZM62.64 253V252C55.6543 252 50.1664 249.912 46.0671 245.813L45.36 246.52L44.6529 247.227C49.1936 251.768 55.2257 254 62.64 254V253ZM45.36 246.52L46.0803 245.826C42.1347 241.729 40.12 236.237 40.12 229.24H39.12H38.12C38.12 236.643 40.2653 242.671 44.6397 247.214L45.36 246.52ZM39.12 229.24H40.12V155.56H39.12H38.12V229.24H39.12ZM39.12 155.56V154.56H6.48V155.56V156.56H39.12V155.56ZM6.48 155.56H7.48V134.68H6.48H5.48V155.56H6.48ZM6.48 134.68V135.68H39.12V134.68V133.68H6.48V134.68ZM39.12 134.68H40.12V95.56H39.12H38.12V134.68H39.12ZM39.12 95.56V96.56H63.84V95.56V94.56H39.12V95.56ZM63.84 95.56H62.84V134.68H63.84H64.84V95.56H63.84ZM63.84 134.68V135.68H99.12V134.68V133.68H63.84V134.68ZM99.12 134.68H98.12V155.56H99.12H100.12V134.68H99.12ZM99.12 155.56V154.56H63.84V155.56V156.56H99.12V155.56ZM63.84 155.56H62.84V224.92H63.84H64.84V155.56H63.84ZM63.84 224.92H62.84C62.84 227.458 63.4307 229.547 64.7889 231.002C66.1593 232.471 68.1475 233.12 70.56 233.12V232.12V231.12C68.4925 231.12 67.1207 230.569 66.2511 229.638C65.3693 228.693 64.84 227.182 64.84 224.92H63.84ZM70.56 232.12V233.12H95.28V232.12V231.12H70.56V232.12ZM95.28 232.12H94.28V253H95.28H96.28V232.12H95.28ZM95.28 253V252H62.64V253V254H95.28V253ZM113.762 253H112.762V254H113.762V253ZM113.762 134.68V133.68H112.762V134.68H113.762ZM138.002 134.68H139.002V133.68H138.002V134.68ZM138.002 148.6H137.002V149.6H138.002V148.6ZM141.842 148.6V149.6H142.527L142.774 148.961L141.842 148.6ZM150.962 137.8L151.436 138.681L151.448 138.674L150.962 137.8ZM180.962 134.2H181.962V133.2H180.962V134.2ZM180.962 156.52V157.52H181.962V156.52H180.962ZM146.162 163.24L146.807 164.004L146.814 163.998L146.82 163.993L146.162 163.24ZM138.482 253V254H139.482V253H138.482ZM113.762 253H114.762V134.68H113.762H112.762V253H113.762ZM113.762 134.68V135.68H138.002V134.68V133.68H113.762V134.68ZM138.002 134.68H137.002V148.6H138.002H139.002V134.68H138.002ZM138.002 148.6V149.6H141.842V148.6V147.6H138.002V148.6ZM141.842 148.6L142.774 148.961C144.62 144.193 147.512 140.793 151.436 138.68L150.962 137.8L150.488 136.92C146.091 139.287 142.904 143.087 140.909 148.239L141.842 148.6ZM150.962 137.8L151.448 138.674C155.585 136.376 160.688 135.2 166.802 135.2V134.2V133.2C160.436 133.2 154.979 134.424 150.476 136.926L150.962 137.8ZM166.802 134.2V135.2H180.962V134.2V133.2H166.802V134.2ZM180.962 134.2H179.962V156.52H180.962H181.962V134.2H180.962ZM180.962 156.52V155.52H165.842V156.52V157.52H180.962V156.52ZM165.842 156.52V155.52C157.645 155.52 150.837 157.821 145.503 162.487L146.162 163.24L146.82 163.993C151.727 159.699 158.039 157.52 165.842 157.52V156.52ZM146.162 163.24L145.517 162.476C140.098 167.048 137.482 174.098 137.482 183.4H138.482H139.482C139.482 174.462 141.986 168.072 146.807 164.004L146.162 163.24ZM138.482 183.4H137.482V253H138.482H139.482V183.4H138.482ZM138.482 253V252H113.762V253V254H138.482V253ZM202.813 252.04L202.411 252.956L202.419 252.959L202.813 252.04ZM186.973 239.32L186.148 239.886L186.154 239.893L186.159 239.901L186.973 239.32ZM186.973 198.76L186.167 198.168L186.164 198.172L186.973 198.76ZM203.053 186.52L202.685 185.59L202.678 185.593L203.053 186.52ZM262.333 182.44V183.44H263.333V182.44H262.333ZM256.093 158.2L255.386 158.907L256.093 158.2ZM208.573 173.56L208.266 174.512L209.308 174.848L209.549 173.78L208.573 173.56ZM185.533 166.12L184.575 165.833L184.294 166.771L185.226 167.072L185.533 166.12ZM194.653 148.84L193.879 148.207L193.877 148.209L194.653 148.84ZM211.693 136.12L212.107 137.03L211.693 136.12ZM273.373 143.08L274.038 142.333L273.373 143.08ZM303.373 232.36H304.373V231.36H303.373V232.36ZM303.373 253V254H304.373V253H303.373ZM271.213 248.68L271.846 247.906L271.213 248.68ZM265.933 236.2H266.933V235.2H265.933V236.2ZM262.333 236.2V235.2H261.733L261.451 235.729L262.333 236.2ZM256.573 244.6L257.354 245.225L256.573 244.6ZM245.293 253L245.705 253.911L245.717 253.906L245.729 253.9L245.293 253ZM253.213 227.56L253.891 228.296L253.901 228.286L253.213 227.56ZM262.333 201.64H263.333V200.64H262.333V201.64ZM211.933 205.96L212.495 206.787L212.507 206.779L212.517 206.772L211.933 205.96ZM225.613 256.36V255.36C217.247 255.36 209.784 253.94 203.207 251.121L202.813 252.04L202.419 252.959C209.282 255.9 217.019 257.36 225.613 257.36V256.36ZM202.813 252.04L203.215 251.124C196.813 248.314 191.678 244.186 187.787 238.739L186.973 239.32L186.159 239.901C190.268 245.654 195.693 250.006 202.411 252.956L202.813 252.04ZM186.973 239.32L187.798 238.754C184.091 233.349 182.213 226.755 182.213 218.92H181.213H180.213C180.213 227.085 182.175 234.091 186.148 239.886L186.973 239.32ZM181.213 218.92H182.213C182.213 210.918 184.094 204.419 187.782 199.348L186.973 198.76L186.164 198.172C182.172 203.661 180.213 210.602 180.213 218.92H181.213ZM186.973 198.76L187.779 199.352C191.661 194.073 196.867 190.103 203.428 187.447L203.053 186.52L202.678 185.593C195.799 188.377 190.285 192.567 186.167 198.168L186.973 198.76ZM203.053 186.52L203.421 187.45C210.166 184.783 217.798 183.44 226.333 183.44V182.44V181.44C217.588 181.44 209.7 182.817 202.685 185.59L203.053 186.52ZM226.333 182.44V183.44H262.333V182.44V181.44H226.333V182.44ZM262.333 182.44H263.333V174.76H262.333H261.333V182.44H262.333ZM262.333 174.76H263.333C263.333 167.663 261.179 161.872 256.8 157.493L256.093 158.2L255.386 158.907C259.327 162.848 261.333 168.097 261.333 174.76H262.333ZM256.093 158.2L256.8 157.493C252.38 153.073 245.674 150.96 236.893 150.96V151.96V152.96C245.392 152.96 251.486 155.007 255.386 158.907L256.093 158.2ZM236.893 151.96V150.96C228.268 150.96 221.514 152.994 216.787 157.214L217.453 157.96L218.119 158.706C222.353 154.926 228.558 152.96 236.893 152.96V151.96ZM217.453 157.96L216.787 157.214C212.137 161.366 209.079 166.757 207.598 173.34L208.573 173.56L209.549 173.78C210.947 167.563 213.809 162.554 218.119 158.706L217.453 157.96ZM208.573 173.56L208.88 172.608L185.84 165.168L185.533 166.12L185.226 167.072L208.266 174.512L208.573 173.56ZM185.533 166.12L186.491 166.407C188.374 160.131 191.353 154.488 195.429 149.471L194.653 148.84L193.877 148.209C189.634 153.432 186.532 159.309 184.575 165.833L185.533 166.12ZM194.653 148.84L195.427 149.473C199.638 144.327 205.188 140.175 212.107 137.03L211.693 136.12L211.279 135.21C204.118 138.465 198.309 142.793 193.879 148.207L194.653 148.84ZM211.693 136.12L212.107 137.03C218.986 133.904 227.317 132.32 237.133 132.32V131.32V130.32C227.109 130.32 218.481 131.936 211.279 135.21L211.693 136.12ZM237.133 131.32V132.32C252.324 132.32 264.141 136.194 272.708 143.827L273.373 143.08L274.038 142.333C265.005 134.286 252.662 130.32 237.133 130.32V131.32ZM273.373 143.08L272.708 143.827C281.249 151.436 285.573 162.257 285.573 176.44H286.573H287.573C287.573 161.823 283.098 150.404 274.038 142.333L273.373 143.08ZM286.573 176.44H285.573V225.16H286.573H287.573V176.44H286.573ZM286.573 225.16H285.573C285.573 227.698 286.164 229.787 287.522 231.242C288.892 232.711 290.881 233.36 293.293 233.36V232.36V231.36C291.226 231.36 289.854 230.809 288.984 229.878C288.102 228.933 287.573 227.422 287.573 225.16H286.573ZM293.293 232.36V233.36H303.373V232.36V231.36H293.293V232.36ZM303.373 232.36H302.373V253H303.373H304.373V232.36H303.373ZM303.373 253V252H284.893V253V254H303.373V253ZM284.893 253V252C279.469 252 275.149 250.608 271.846 247.906L271.213 248.68L270.58 249.454C274.317 252.512 279.117 254 284.893 254V253ZM271.213 248.68L271.846 247.906C268.581 245.235 266.933 241.611 266.933 236.92H265.933H264.933C264.933 242.149 266.805 246.365 270.58 249.454L271.213 248.68ZM265.933 236.92H266.933V236.2H265.933H264.933V236.92H265.933ZM265.933 236.2V235.2H262.333V236.2V237.2H265.933V236.2ZM262.333 236.2L261.451 235.729C260.21 238.055 258.331 240.802 255.792 243.975L256.573 244.6L257.354 245.225C259.935 241.998 261.896 239.145 263.215 236.671L262.333 236.2ZM256.573 244.6L255.792 243.975C253.352 247.026 249.727 249.744 244.858 252.1L245.293 253L245.729 253.9C250.779 251.456 254.675 248.574 257.354 245.225L256.573 244.6ZM245.293 253L244.882 252.089C240.099 254.248 233.696 255.36 225.613 255.36V256.36V257.36C233.851 257.36 240.567 256.232 245.705 253.911L245.293 253ZM229.213 235.96V236.96C239.331 236.96 247.59 234.098 253.891 228.296L253.213 227.56L252.536 226.824C246.676 232.222 238.935 234.96 229.213 234.96V235.96ZM253.213 227.56L253.901 228.286C260.217 222.302 263.333 214.18 263.333 204.04H262.333H261.333C261.333 213.74 258.369 221.298 252.525 226.834L253.213 227.56ZM262.333 204.04H263.333V201.64H262.333H261.333V204.04H262.333ZM262.333 201.64V200.64H227.773V201.64V202.64H262.333V201.64ZM227.773 201.64V200.64C221.072 200.64 215.567 202.111 211.349 205.148L211.933 205.96L212.517 206.772C216.299 204.049 221.354 202.64 227.773 202.64V201.64ZM211.933 205.96L211.371 205.133C207.059 208.065 204.933 212.477 204.933 218.2H205.933H206.933C206.933 213.043 208.807 209.295 212.495 206.787L211.933 205.96ZM205.933 218.2H204.933C204.933 223.937 207.147 228.555 211.563 231.953L212.173 231.16L212.783 230.367C208.879 227.365 206.933 223.343 206.933 218.2H205.933ZM212.173 231.16L211.563 231.953C215.953 235.329 221.873 236.96 229.213 236.96V235.96V234.96C222.153 234.96 216.713 233.391 212.783 230.367L212.173 231.16ZM313.009 253H312.009V254H313.009V253ZM313.009 134.68V133.68H312.009V134.68H313.009ZM337.249 134.68H338.249V133.68H337.249V134.68ZM337.249 152.44H336.249V153.44H337.249V152.44ZM341.089 152.44V153.44H341.726L341.995 152.863L341.089 152.44ZM353.089 139L353.674 139.811L353.089 139ZM402.529 138.76L402.026 139.625L402.035 139.629L402.529 138.76ZM419.089 155.8L418.21 156.278L418.215 156.286L419.089 155.8ZM425.089 253V254H426.089V253H425.089ZM400.369 253H399.369V254H400.369V253ZM392.689 161.32L391.993 162.038L391.999 162.044L392.005 162.05L392.689 161.32ZM346.849 163.96L346.116 163.279L346.107 163.289L346.849 163.96ZM337.729 253V254H338.729V253H337.729ZM313.009 253H314.009V134.68H313.009H312.009V253H313.009ZM313.009 134.68V135.68H337.249V134.68V133.68H313.009V134.68ZM337.249 134.68H336.249V152.44H337.249H338.249V134.68H337.249ZM337.249 152.44V153.44H341.089V152.44V151.44H337.249V152.44ZM341.089 152.44L341.995 152.863C344.142 148.261 348.007 143.904 353.674 139.811L353.089 139L352.503 138.189C346.65 142.416 342.515 147.019 340.183 152.017L341.089 152.44ZM353.089 139L353.674 139.811C359.189 135.828 367.503 133.76 378.769 133.76V132.76V131.76C367.315 131.76 358.508 133.852 352.503 138.189L353.089 139ZM378.769 132.76V133.76C387.575 133.76 395.317 135.724 402.026 139.625L402.529 138.76L403.031 137.895C395.98 133.796 387.883 131.76 378.769 131.76V132.76ZM402.529 138.76L402.035 139.629C408.907 143.534 414.296 149.076 418.21 156.278L419.089 155.8L419.967 155.322C415.882 147.804 410.231 141.986 403.023 137.891L402.529 138.76ZM419.089 155.8L418.215 156.286C422.114 163.305 424.089 171.849 424.089 181.96H425.089H426.089C426.089 171.591 424.063 162.695 419.963 155.314L419.089 155.8ZM425.089 181.96H424.089V253H425.089H426.089V181.96H425.089ZM425.089 253V252H400.369V253V254H425.089V253ZM400.369 253H401.369V183.88H400.369H399.369V253H400.369ZM400.369 183.88H401.369C401.369 173.492 398.772 165.652 393.373 160.59L392.689 161.32L392.005 162.05C396.846 166.588 399.369 173.788 399.369 183.88H400.369ZM392.689 161.32L393.385 160.602C388.033 155.418 380.718 152.88 371.569 152.88V153.88V154.88C380.339 154.88 387.104 157.302 391.993 162.038L392.689 161.32ZM371.569 153.88V152.88C361.087 152.88 352.568 156.331 346.116 163.28L346.849 163.96L347.582 164.64C353.609 158.149 361.571 154.88 371.569 154.88V153.88ZM346.849 163.96L346.107 163.289C339.803 170.257 336.729 180.294 336.729 193.24H337.729H338.729C338.729 180.586 341.734 171.103 347.59 164.631L346.849 163.96ZM337.729 193.24H336.729V253H337.729H338.729V193.24H337.729ZM337.729 253V252H313.009V253V254H337.729V253ZM457.305 246.28L457.866 245.452L457.305 246.28ZM439.065 215.8L438.832 214.828L437.927 215.044L438.078 215.963L439.065 215.8ZM462.105 210.28L463.086 210.088L462.887 209.064L461.872 209.308L462.105 210.28ZM468.585 225.88L469.369 225.259L468.585 225.88ZM479.865 234.04L479.529 234.982L479.539 234.985L479.865 234.04ZM512.745 231.88L512.169 231.062L512.162 231.067L512.155 231.073L512.745 231.88ZM495.465 204.04L495.646 203.056L495.639 203.055L495.465 204.04ZM487.305 202.6L487.128 203.584L487.131 203.585L487.305 202.6ZM465.465 196.36L465.082 197.284L465.465 196.36ZM449.865 185.08L450.646 184.455L449.865 185.08ZM456.585 140.68L457.175 141.487L457.185 141.48L456.585 140.68ZM522.345 140.44L521.762 141.253L521.771 141.259L521.78 141.265L522.345 140.44ZM539.145 164.68L539.416 165.643L540.351 165.38L540.115 164.437L539.145 164.68ZM516.105 171.16L515.124 171.356L515.336 172.415L516.376 172.123L516.105 171.16ZM506.985 156.04L506.437 156.876L506.447 156.883L506.458 156.89L506.985 156.04ZM473.865 155.32L474.395 156.168L474.407 156.16L474.42 156.152L473.865 155.32ZM473.625 176.2L473.105 177.054L473.113 177.059L473.121 177.064L473.625 176.2ZM488.985 181.24L488.813 182.225L488.816 182.226L488.985 181.24ZM497.385 182.68L497.216 183.666L497.218 183.666L497.385 182.68ZM537.225 199.72L536.457 200.36L536.463 200.368L536.469 200.375L537.225 199.72ZM530.265 246.52L530.863 247.322L530.265 246.52ZM494.745 256.36V255.36C479.854 255.36 467.582 252.034 457.866 245.452L457.305 246.28L456.744 247.108C466.867 253.966 479.556 257.36 494.745 257.36V256.36ZM457.305 246.28L457.866 245.452C448.208 238.91 442.254 229.011 440.052 215.637L439.065 215.8L438.078 215.963C440.356 229.789 446.562 240.21 456.744 247.108L457.305 246.28ZM439.065 215.8L439.298 216.772L462.338 211.252L462.105 210.28L461.872 209.308L438.832 214.828L439.065 215.8ZM462.105 210.28L461.124 210.472C462.423 217.134 464.632 222.498 467.801 226.501L468.585 225.88L469.369 225.259C466.458 221.582 464.346 216.546 463.086 210.088L462.105 210.28ZM468.585 225.88L467.801 226.501C470.954 230.483 474.867 233.317 479.529 234.982L479.865 234.04L480.201 233.098C475.903 231.563 472.296 228.957 469.369 225.259L468.585 225.88ZM479.865 234.04L479.539 234.985C484.292 236.624 489.362 237.44 494.745 237.44V236.44V235.44C489.568 235.44 484.718 234.656 480.191 233.095L479.865 234.04ZM494.745 236.44V237.44C502.693 237.44 508.935 235.903 513.335 232.687L512.745 231.88L512.155 231.073C508.235 233.937 502.477 235.44 494.745 235.44V236.44ZM512.745 231.88L513.32 232.698C517.875 229.492 520.225 225.282 520.225 220.12H519.225H518.225C518.225 224.558 516.255 228.188 512.169 231.062L512.745 231.88ZM519.225 220.12H520.225C520.225 214.979 518.047 211.114 513.714 208.687L513.225 209.56L512.736 210.433C516.403 212.486 518.225 215.661 518.225 220.12H519.225ZM513.225 209.56L513.714 208.687C509.572 206.368 503.526 204.504 495.646 203.056L495.465 204.04L495.284 205.024C503.084 206.456 508.878 208.272 512.736 210.433L513.225 209.56ZM495.465 204.04L495.639 203.055L487.479 201.615L487.305 202.6L487.131 203.585L495.291 205.025L495.465 204.04ZM487.305 202.6L487.482 201.616C479.543 200.187 472.333 198.125 465.848 195.436L465.465 196.36L465.082 197.284C471.717 200.035 479.067 202.133 487.128 203.584L487.305 202.6ZM465.465 196.36L465.848 195.436C459.419 192.771 454.365 189.104 450.646 184.455L449.865 185.08L449.084 185.705C453.045 190.655 458.391 194.509 465.082 197.284L465.465 196.36ZM449.865 185.08L450.646 184.455C446.977 179.87 445.105 173.945 445.105 166.6H444.105H443.105C443.105 174.295 445.073 180.69 449.084 185.705L449.865 185.08ZM444.105 166.6H445.105C445.105 155.687 449.138 147.361 457.175 141.487L456.585 140.68L455.995 139.873C447.392 146.159 443.105 155.113 443.105 166.6H444.105ZM456.585 140.68L457.185 141.48C465.283 135.406 476.092 132.32 489.705 132.32V131.32V130.32C475.798 130.32 464.527 133.474 455.985 139.88L456.585 140.68ZM489.705 131.32V132.32C502.833 132.32 513.493 135.324 521.762 141.253L522.345 140.44L522.928 139.627C514.237 133.396 503.137 130.32 489.705 130.32V131.32ZM522.345 140.44L521.78 141.265C530.216 147.046 535.674 154.918 538.175 164.923L539.145 164.68L540.115 164.437C537.496 153.962 531.754 145.674 522.91 139.615L522.345 140.44ZM539.145 164.68L538.874 163.717L515.834 170.197L516.105 171.16L516.376 172.123L539.416 165.643L539.145 164.68ZM516.105 171.16L517.086 170.964C515.611 163.59 512.46 158.261 507.512 155.19L506.985 156.04L506.458 156.89C510.79 159.579 513.719 164.33 515.124 171.356L516.105 171.16ZM506.985 156.04L507.533 155.204C502.695 152.034 496.733 150.48 489.705 150.48V151.48V152.48C496.437 152.48 501.995 153.966 506.437 156.876L506.985 156.04ZM489.705 151.48V150.48C482.873 150.48 477.374 151.779 473.31 154.488L473.865 155.32L474.42 156.152C478.036 153.741 483.097 152.48 489.705 152.48V151.48ZM473.865 155.32L473.335 154.472C469.206 157.052 467.105 160.811 467.105 165.64H468.105H469.105C469.105 161.509 470.844 158.388 474.395 156.168L473.865 155.32ZM468.105 165.64H467.105C467.105 170.741 469.088 174.609 473.105 177.054L473.625 176.2L474.145 175.346C470.802 173.311 469.105 170.139 469.105 165.64H468.105ZM473.625 176.2L473.121 177.064C477.099 179.384 482.345 181.093 488.813 182.225L488.985 181.24L489.157 180.255C482.825 179.147 477.831 177.496 474.129 175.336L473.625 176.2ZM488.985 181.24L488.816 182.226L497.216 183.666L497.385 182.68L497.554 181.694L489.154 180.254L488.985 181.24ZM497.385 182.68L497.218 183.666C505.647 185.097 513.347 187.083 520.323 189.62L520.665 188.68L521.007 187.74C513.903 185.157 506.083 183.143 497.552 181.694L497.385 182.68ZM520.665 188.68L520.323 189.62C527.23 192.131 532.591 195.721 536.457 200.36L537.225 199.72L537.993 199.08C533.859 194.119 528.18 190.349 521.007 187.74L520.665 188.68ZM537.225 199.72L536.469 200.375C540.434 204.95 542.465 211.096 542.465 218.92H543.465H544.465C544.465 210.744 542.336 204.09 537.981 199.065L537.225 199.72ZM543.465 218.92H542.465C542.465 230.473 538.192 239.364 529.667 245.718L530.265 246.52L530.863 247.322C539.938 240.556 544.465 231.047 544.465 218.92H543.465ZM530.265 246.52L529.667 245.718C521.092 252.111 509.485 255.36 494.745 255.36V256.36V257.36C509.765 257.36 521.838 254.049 530.863 247.322L530.265 246.52ZM576.741 253H575.741V254H576.741V253ZM576.741 155.56H577.741V154.56H576.741V155.56ZM543.621 155.56H542.621V156.56H543.621V155.56ZM543.621 134.68V133.68H542.621V134.68H543.621ZM576.741 134.68V135.68H577.741V134.68H576.741ZM583.221 91.48L582.513 90.7729L583.221 91.48ZM629.301 85H630.301V84H629.301V85ZM629.301 105.88V106.88H630.301V105.88H629.301ZM601.461 134.68H600.461V135.68H601.461V134.68ZM654.501 134.68H655.501V133.68H654.501V134.68ZM654.501 155.56V156.56H655.501V155.56H654.501ZM601.461 155.56V154.56H600.461V155.56H601.461ZM601.461 253V254H602.461V253H601.461ZM654.501 253H653.501V254H654.501V253ZM654.501 134.68V133.68H653.501V134.68H654.501ZM679.221 134.68H680.221V133.68H679.221V134.68ZM679.221 253V254H680.221V253H679.221ZM654.741 114.76L654.034 115.467L654.051 115.485L654.07 115.502L654.741 114.76ZM654.741 90.28L654.07 89.5385L654.061 89.5466L654.052 89.555L654.741 90.28ZM678.981 90.28L678.292 91.005L678.301 91.0134L678.31 91.0215L678.981 90.28ZM678.981 114.76L679.669 115.485L679.67 115.484L678.981 114.76ZM576.741 253H577.741V155.56H576.741H575.741V253H576.741ZM576.741 155.56V154.56H543.621V155.56V156.56H576.741V155.56ZM543.621 155.56H544.621V134.68H543.621H542.621V155.56H543.621ZM543.621 134.68V135.68H576.741V134.68V133.68H543.621V134.68ZM576.741 134.68H577.741V108.76H576.741H575.741V134.68H576.741ZM576.741 108.76H577.741C577.741 101.774 579.828 96.2864 583.928 92.1871L583.221 91.48L582.513 90.7729C577.973 95.3136 575.741 101.346 575.741 108.76H576.741ZM583.221 91.48L583.928 92.1871C588.027 88.0878 593.515 86 600.501 86V85V84C593.086 84 587.054 86.2321 582.513 90.7729L583.221 91.48ZM600.501 85V86H629.301V85V84H600.501V85ZM629.301 85H628.301V105.88H629.301H630.301V85H629.301ZM629.301 105.88V104.88H608.421V105.88V106.88H629.301V105.88ZM608.421 105.88V104.88C605.938 104.88 603.894 105.524 602.482 106.985C601.075 108.44 600.461 110.534 600.461 113.08H601.461H602.461C602.461 110.826 603.006 109.32 603.92 108.375C604.827 107.436 606.264 106.88 608.421 106.88V105.88ZM601.461 113.08H600.461V134.68H601.461H602.461V113.08H601.461ZM601.461 134.68V135.68H654.501V134.68V133.68H601.461V134.68ZM654.501 134.68H653.501V155.56H654.501H655.501V134.68H654.501ZM654.501 155.56V154.56H601.461V155.56V156.56H654.501V155.56ZM601.461 155.56H600.461V253H601.461H602.461V155.56H601.461ZM601.461 253V252H576.741V253V254H601.461V253ZM654.501 253H655.501V134.68H654.501H653.501V253H654.501ZM654.501 134.68V135.68H679.221V134.68V133.68H654.501V134.68ZM679.221 134.68H678.221V253H679.221H680.221V134.68H679.221ZM679.221 253V252H654.501V253V254H679.221V253ZM666.981 119.32V118.32C662.412 118.32 658.576 116.882 655.412 114.018L654.741 114.76L654.07 115.502C657.625 118.718 661.949 120.32 666.981 120.32V119.32ZM654.741 114.76L655.448 114.053C652.454 111.059 650.941 107.243 650.941 102.52H649.941H648.941C648.941 107.717 650.627 112.061 654.034 115.467L654.741 114.76ZM649.941 102.52H650.941C650.941 97.6263 652.46 93.8256 655.429 91.005L654.741 90.28L654.052 89.555C650.621 92.8144 648.941 97.1737 648.941 102.52H649.941ZM654.741 90.28L655.412 91.0215C658.576 88.1584 662.412 86.72 666.981 86.72V85.72V84.72C661.949 84.72 657.625 86.3216 654.07 89.5385L654.741 90.28ZM666.981 85.72V86.72C671.549 86.72 675.295 88.1577 678.292 91.005L678.981 90.28L679.669 89.555C676.266 86.3222 672.012 84.72 666.981 84.72V85.72ZM678.981 90.28L678.31 91.0215C681.432 93.8463 683.021 97.6419 683.021 102.52H684.021H685.021C685.021 97.1581 683.249 92.7937 679.652 89.5385L678.981 90.28ZM684.021 102.52H683.021C683.021 107.227 681.438 111.039 678.291 114.036L678.981 114.76L679.67 115.484C683.243 112.081 685.021 107.733 685.021 102.52H684.021ZM678.981 114.76L678.292 114.035C675.295 116.882 671.549 118.32 666.981 118.32V119.32V120.32C672.012 120.32 676.266 118.718 679.669 115.485L678.981 114.76ZM701.293 253H700.293V254H701.293V253ZM701.293 134.68V133.68H700.293V134.68H701.293ZM725.533 134.68H726.533V133.68H725.533V134.68ZM725.533 152.44H724.533V153.44H725.533V152.44ZM729.373 152.44V153.44H730.01L730.279 152.863L729.373 152.44ZM741.373 139L741.959 139.811L741.373 139ZM790.813 138.76L790.31 139.625L790.319 139.629L790.813 138.76ZM807.373 155.8L806.494 156.278L806.499 156.286L807.373 155.8ZM813.373 253V254H814.373V253H813.373ZM788.653 253H787.653V254H788.653V253ZM780.973 161.32L780.277 162.038L780.283 162.044L780.289 162.05L780.973 161.32ZM735.133 163.96L734.4 163.279L734.392 163.289L735.133 163.96ZM726.013 253V254H727.013V253H726.013ZM701.293 253H702.293V134.68H701.293H700.293V253H701.293ZM701.293 134.68V135.68H725.533V134.68V133.68H701.293V134.68ZM725.533 134.68H724.533V152.44H725.533H726.533V134.68H725.533ZM725.533 152.44V153.44H729.373V152.44V151.44H725.533V152.44ZM729.373 152.44L730.279 152.863C732.427 148.261 736.291 143.904 741.959 139.811L741.373 139L740.788 138.189C734.935 142.416 730.799 147.019 728.467 152.017L729.373 152.44ZM741.373 139L741.959 139.811C747.474 135.828 755.787 133.76 767.053 133.76V132.76V131.76C755.599 131.76 746.793 133.852 740.788 138.189L741.373 139ZM767.053 132.76V133.76C775.859 133.76 783.602 135.724 790.31 139.625L790.813 138.76L791.316 137.895C784.265 133.796 776.167 131.76 767.053 131.76V132.76ZM790.813 138.76L790.319 139.629C797.191 143.534 802.58 149.076 806.495 156.278L807.373 155.8L808.252 155.322C804.166 147.804 798.515 141.986 791.307 137.891L790.813 138.76ZM807.373 155.8L806.499 156.286C810.399 163.305 812.373 171.849 812.373 181.96H813.373H814.373C814.373 171.591 812.348 162.695 808.247 155.314L807.373 155.8ZM813.373 181.96H812.373V253H813.373H814.373V181.96H813.373ZM813.373 253V252H788.653V253V254H813.373V253ZM788.653 253H789.653V183.88H788.653H787.653V253H788.653ZM788.653 183.88H789.653C789.653 173.492 787.056 165.652 781.657 160.59L780.973 161.32L780.289 162.05C785.13 166.588 787.653 173.788 787.653 183.88H788.653ZM780.973 161.32L781.669 160.602C776.318 155.418 769.003 152.88 759.853 152.88V153.88V154.88C768.623 154.88 775.389 157.302 780.277 162.038L780.973 161.32ZM759.853 153.88V152.88C749.371 152.88 740.853 156.331 734.4 163.28L735.133 163.96L735.866 164.64C741.894 158.149 749.855 154.88 759.853 154.88V153.88ZM735.133 163.96L734.392 163.289C728.088 170.257 725.013 180.294 725.013 193.24H726.013H727.013C727.013 180.586 730.019 171.103 735.875 164.631L735.133 163.96ZM726.013 193.24H725.013V253H726.013H727.013V193.24H726.013ZM726.013 253V252H701.293V253V254H726.013V253ZM834.549 253H833.549V254H834.549V253ZM834.549 134.68V133.68H833.549V134.68H834.549ZM859.269 134.68H860.269V133.68H859.269V134.68ZM859.269 253V254H860.269V253H859.269ZM834.789 114.04L834.082 114.747L834.1 114.765L834.118 114.782L834.789 114.04ZM834.789 89.8L835.478 90.525L835.479 90.5241L834.789 89.8ZM859.269 89.8L858.562 90.5071L858.571 90.5162L858.581 90.525L859.269 89.8ZM859.269 114.04L859.958 114.765L859.967 114.756L859.977 114.747L859.269 114.04ZM834.549 253H835.549V134.68H834.549H833.549V253H834.549ZM834.549 134.68V135.68H859.269V134.68V133.68H834.549V134.68ZM859.269 134.68H858.269V253H859.269H860.269V134.68H859.269ZM859.269 253V252H834.549V253V254H859.269V253ZM847.029 118.6V117.6C842.461 117.6 838.625 116.162 835.46 113.298L834.789 114.04L834.118 114.782C837.674 117.998 841.998 119.6 847.029 119.6V118.6ZM834.789 114.04L835.497 113.333C832.503 110.339 830.989 106.523 830.989 101.8H829.989H828.989C828.989 106.997 830.676 111.341 834.082 114.747L834.789 114.04ZM829.989 101.8H830.989C830.989 97.0768 832.502 93.3519 835.478 90.525L834.789 89.8L834.101 89.075C830.676 92.3281 828.989 96.6032 828.989 101.8H829.989ZM834.789 89.8L835.479 90.5241C838.646 87.5079 842.476 86 847.029 86V85V84C841.982 84 837.653 85.6921 834.1 89.0759L834.789 89.8ZM847.029 85V86C851.752 86 855.569 87.5136 858.562 90.5071L859.269 89.8L859.977 89.0929C856.57 85.6864 852.227 84 847.029 84V85ZM859.269 89.8L858.581 90.525C861.556 93.3519 863.069 97.0768 863.069 101.8H864.069H865.069C865.069 96.6032 863.382 92.3281 859.958 89.075L859.269 89.8ZM864.069 101.8H863.069C863.069 106.523 861.556 110.339 858.562 113.333L859.269 114.04L859.977 114.747C863.383 111.341 865.069 106.997 865.069 101.8H864.069ZM859.269 114.04L858.581 113.315C855.59 116.156 851.767 117.6 847.029 117.6V118.6V119.6C852.211 119.6 856.549 118.004 859.958 114.765L859.269 114.04ZM908.676 246.52L907.955 247.214L907.962 247.22L907.969 247.227L908.676 246.52ZM902.436 155.56H903.436V154.56H902.436V155.56ZM869.796 155.56H868.796V156.56H869.796V155.56ZM869.796 134.68V133.68H868.796V134.68H869.796ZM902.436 134.68V135.68H903.436V134.68H902.436ZM902.436 95.56V94.56H901.436V95.56H902.436ZM927.156 95.56H928.156V94.56H927.156V95.56ZM927.156 134.68H926.156V135.68H927.156V134.68ZM954.996 134.68H955.996V133.68H954.996V134.68ZM954.996 155.56V156.56H955.996V155.56H954.996ZM927.156 155.56V154.56H926.156V155.56H927.156ZM958.596 232.12H959.596V231.12H958.596V232.12ZM958.596 253V254H959.596V253H958.596ZM986.436 246.52L985.729 247.227L986.436 246.52ZM979.956 155.56H980.956V154.56H979.956V155.56ZM954.996 155.56H953.996V156.56H954.996V155.56ZM954.996 134.68V133.68H953.996V134.68H954.996ZM979.956 134.68V135.68H980.956V134.68H979.956ZM979.956 95.56V94.56H978.956V95.56H979.956ZM1004.68 95.56H1005.68V94.56H1004.68V95.56ZM1004.68 134.68H1003.68V135.68H1004.68V134.68ZM1040.2 134.68H1041.2V133.68H1040.2V134.68ZM1040.2 155.56V156.56H1041.2V155.56H1040.2ZM1004.68 155.56V154.56H1003.68V155.56H1004.68ZM1036.12 232.12H1037.12V231.12H1036.12V232.12ZM1036.12 253V254H1037.12V253H1036.12ZM925.956 253V252C918.97 252 913.482 249.912 909.383 245.813L908.676 246.52L907.969 247.227C912.509 251.768 918.541 254 925.956 254V253ZM908.676 246.52L909.396 245.826C905.45 241.729 903.436 236.237 903.436 229.24H902.436H901.436C901.436 236.643 903.581 242.671 907.955 247.214L908.676 246.52ZM902.436 229.24H903.436V155.56H902.436H901.436V229.24H902.436ZM902.436 155.56V154.56H869.796V155.56V156.56H902.436V155.56ZM869.796 155.56H870.796V134.68H869.796H868.796V155.56H869.796ZM869.796 134.68V135.68H902.436V134.68V133.68H869.796V134.68ZM902.436 134.68H903.436V95.56H902.436H901.436V134.68H902.436ZM902.436 95.56V96.56H927.156V95.56V94.56H902.436V95.56ZM927.156 95.56H926.156V134.68H927.156H928.156V95.56H927.156ZM927.156 134.68V135.68H954.996V134.68V133.68H927.156V134.68ZM954.996 134.68H953.996V155.56H954.996H955.996V134.68H954.996ZM954.996 155.56V154.56H927.156V155.56V156.56H954.996V155.56ZM927.156 155.56H926.156V224.92H927.156H928.156V155.56H927.156ZM927.156 224.92H926.156C926.156 227.458 926.746 229.547 928.105 231.002C929.475 232.471 931.463 233.12 933.876 233.12V232.12V231.12C931.808 231.12 930.436 230.569 929.567 229.638C928.685 228.693 928.156 227.182 928.156 224.92H927.156ZM933.876 232.12V233.12H958.596V232.12V231.12H933.876V232.12ZM958.596 232.12H957.596V253H958.596H959.596V232.12H958.596ZM958.596 253V252H925.956V253V254H958.596V253ZM1003.72 253V252C996.73 252 991.242 249.912 987.143 245.813L986.436 246.52L985.729 247.227C990.269 251.768 996.301 254 1003.72 254V253ZM986.436 246.52L987.143 245.813C983.043 241.714 980.956 236.226 980.956 229.24H979.956H978.956C978.956 236.654 981.188 242.686 985.729 247.227L986.436 246.52ZM979.956 229.24H980.956V155.56H979.956H978.956V229.24H979.956ZM979.956 155.56V154.56H954.996V155.56V156.56H979.956V155.56ZM954.996 155.56H955.996V134.68H954.996H953.996V155.56H954.996ZM954.996 134.68V135.68H979.956V134.68V133.68H954.996V134.68ZM979.956 134.68H980.956V95.56H979.956H978.956V134.68H979.956ZM979.956 95.56V96.56H1004.68V95.56V94.56H979.956V95.56ZM1004.68 95.56H1003.68V134.68H1004.68H1005.68V95.56H1004.68ZM1004.68 134.68V135.68H1040.2V134.68V133.68H1004.68V134.68ZM1040.2 134.68H1039.2V155.56H1040.2H1041.2V134.68H1040.2ZM1040.2 155.56V154.56H1004.68V155.56V156.56H1040.2V155.56ZM1004.68 155.56H1003.68V224.92H1004.68H1005.68V155.56H1004.68ZM1004.68 224.92H1003.68C1003.68 227.466 1004.29 229.56 1005.7 231.015C1007.11 232.476 1009.15 233.12 1011.64 233.12V232.12V231.12C1009.48 231.12 1008.04 230.564 1007.13 229.625C1006.22 228.68 1005.68 227.174 1005.68 224.92H1004.68ZM1011.64 232.12V233.12H1036.12V232.12V231.12H1011.64V232.12ZM1036.12 232.12H1035.12V253H1036.12H1037.12V232.12H1036.12ZM1036.12 253V252H1003.72V253V254H1036.12V253ZM1077.69 248.92L1077.19 249.788L1077.21 249.795L1077.69 248.92ZM1056.57 227.56L1055.69 228.031L1055.69 228.041L1055.7 228.05L1056.57 227.56ZM1056.57 160.36L1057.45 160.838L1057.45 160.831L1056.57 160.36ZM1077.21 139L1077.7 139.871L1077.71 139.868L1077.21 139ZM1137.93 139L1137.41 139.856L1137.42 139.862L1137.43 139.867L1137.93 139ZM1158.09 159.88L1158.97 159.408L1158.09 159.88ZM1165.29 200.68V201.68H1166.29V200.68H1165.29ZM1074.33 200.68V199.68H1073.3L1073.33 200.711L1074.33 200.68ZM1084.65 225.64L1083.96 226.365L1083.97 226.373L1083.98 226.382L1084.65 225.64ZM1130.49 228.52L1129.84 227.764L1129.83 227.77L1129.82 227.775L1130.49 228.52ZM1141.53 214.12L1141.99 213.232L1141.07 212.754L1140.63 213.694L1141.53 214.12ZM1161.93 224.68L1162.82 225.127L1163.27 224.245L1162.39 223.792L1161.93 224.68ZM1152.09 238.84L1151.34 238.183L1151.33 238.19L1151.32 238.197L1152.09 238.84ZM1135.53 251.32L1135.97 252.219L1135.53 251.32ZM1074.57 181.72L1073.58 181.579L1073.42 182.72H1074.57V181.72ZM1140.09 181.72V182.72H1141.16L1141.09 181.649L1140.09 181.72ZM1130.49 160.84L1129.83 161.587L1129.83 161.593L1129.84 161.598L1130.49 160.84ZM1085.13 160.84L1085.78 161.598L1085.78 161.596L1085.13 160.84ZM1109.13 256.36V255.36C1097.27 255.36 1086.96 252.91 1078.17 248.045L1077.69 248.92L1077.21 249.795C1086.34 254.85 1096.99 257.36 1109.13 257.36V256.36ZM1077.69 248.92L1078.19 248.052C1069.39 243.023 1062.47 236.035 1057.44 227.07L1056.57 227.56L1055.7 228.05C1060.91 237.325 1068.07 244.577 1077.19 249.788L1077.69 248.92ZM1056.57 227.56L1057.45 227.089C1052.58 217.975 1050.13 207.421 1050.13 195.4H1049.13H1048.13C1048.13 207.699 1050.64 218.585 1055.69 228.031L1056.57 227.56ZM1049.13 195.4H1050.13V192.52H1049.13H1048.13V195.4H1049.13ZM1049.13 192.52H1050.13C1050.13 180.336 1052.58 169.786 1057.45 160.838L1056.57 160.36L1055.69 159.882C1050.64 169.174 1048.13 180.064 1048.13 192.52H1049.13ZM1056.57 160.36L1057.45 160.831C1062.33 151.712 1069.07 144.734 1077.7 139.871L1077.21 139L1076.72 138.129C1067.75 143.186 1060.73 150.448 1055.69 159.889L1056.57 160.36ZM1077.21 139L1077.71 139.868C1086.5 134.845 1096.64 132.32 1108.17 132.32V131.32V130.32C1096.34 130.32 1085.84 132.915 1076.71 138.132L1077.21 139ZM1108.17 131.32V132.32C1119.38 132.32 1129.11 134.843 1137.41 139.856L1137.93 139L1138.45 138.144C1129.79 132.917 1119.68 130.32 1108.17 130.32V131.32ZM1137.93 139L1137.43 139.867C1145.91 144.732 1152.49 151.554 1157.21 160.352L1158.09 159.88L1158.97 159.408C1154.08 150.286 1147.23 143.188 1138.43 138.133L1137.93 139ZM1158.09 159.88L1157.21 160.352C1161.92 169.143 1164.29 179.455 1164.29 191.32H1165.29H1166.29C1166.29 179.185 1163.86 168.537 1158.97 159.408L1158.09 159.88ZM1165.29 191.32H1164.29V200.68H1165.29H1166.29V191.32H1165.29ZM1165.29 200.68V199.68H1074.33V200.68V201.68H1165.29V200.68ZM1074.33 200.68L1073.33 200.711C1073.66 211.331 1077.18 219.916 1083.96 226.365L1084.65 225.64L1085.34 224.915C1079 218.884 1075.64 210.829 1075.33 200.649L1074.33 200.68ZM1084.65 225.64L1083.98 226.382C1090.9 232.644 1099.47 235.76 1109.61 235.76V234.76V233.76C1099.91 233.76 1091.84 230.796 1085.32 224.898L1084.65 225.64ZM1109.61 234.76V235.76C1119.02 235.76 1126.26 233.653 1131.16 229.265L1130.49 228.52L1129.82 227.775C1125.44 231.707 1118.76 233.76 1109.61 233.76V234.76ZM1130.49 228.52L1131.15 229.276C1136.04 225.03 1139.81 220.119 1142.43 214.546L1141.53 214.12L1140.63 213.694C1138.13 219.001 1134.54 223.69 1129.84 227.764L1130.49 228.52ZM1141.53 214.12L1141.07 215.008L1161.47 225.568L1161.93 224.68L1162.39 223.792L1141.99 213.232L1141.53 214.12ZM1161.93 224.68L1161.04 224.233C1158.84 228.618 1155.62 233.268 1151.34 238.183L1152.09 238.84L1152.84 239.497C1157.2 234.492 1160.54 229.702 1162.82 225.127L1161.93 224.68ZM1152.09 238.84L1151.32 238.197C1147.27 243.032 1141.87 247.112 1135.09 250.421L1135.53 251.32L1135.97 252.219C1142.95 248.808 1148.59 244.568 1152.86 239.483L1152.09 238.84ZM1135.53 251.32L1135.09 250.421C1128.39 253.693 1119.76 255.36 1109.13 255.36V256.36V257.36C1119.95 257.36 1128.91 255.667 1135.97 252.219L1135.53 251.32ZM1074.57 181.72V182.72H1140.09V181.72V180.72H1074.57V181.72ZM1140.09 181.72L1141.09 181.649C1140.43 172.475 1137.14 165.247 1131.14 160.082L1130.49 160.84L1129.84 161.598C1135.36 166.353 1138.47 173.045 1139.09 181.791L1140.09 181.72ZM1130.49 160.84L1131.15 160.093C1125.18 154.778 1117.4 152.16 1107.93 152.16V153.16V154.16C1117.02 154.16 1124.28 156.662 1129.83 161.587L1130.49 160.84ZM1107.93 153.16V152.16C1098.46 152.16 1090.61 154.778 1084.48 160.084L1085.13 160.84L1085.78 161.596C1091.49 156.662 1098.84 154.16 1107.93 154.16V153.16ZM1085.13 160.84L1084.48 160.082C1078.5 165.229 1074.89 172.427 1073.58 181.579L1074.57 181.72L1075.56 181.861C1076.81 173.093 1080.24 166.371 1085.78 161.598L1085.13 160.84Z" fill="url(#paint0_linear_338_121)" mask="url(#path-1-outside-1_338_121)"/>
<mask id="path-3-outside-2_338_121" maskUnits="userSpaceOnUse" x="5" y="0" width="1162" height="174" fill="black">
<rect fill="white" x="5" width="1162" height="174"/>
<path d="M62.64 169C55.44 169 49.68 166.84 45.36 162.52C41.2 158.2 39.12 152.44 39.12 145.24V71.56H6.48V50.68H39.12V11.56H63.84V50.68H99.12V71.56H63.84V140.92C63.84 145.72 66.08 148.12 70.56 148.12H95.28V169H62.64ZM113.762 169V50.68H138.002V64.6H141.842C143.762 59.64 146.802 56.04 150.962 53.8C155.282 51.4 160.562 50.2 166.802 50.2H180.962V72.52H165.842C157.842 72.52 151.282 74.76 146.162 79.24C141.042 83.56 138.482 90.28 138.482 99.4V169H113.762ZM225.613 172.36C217.133 172.36 209.533 170.92 202.813 168.04C196.253 165.16 190.973 160.92 186.973 155.32C183.133 149.72 181.213 142.92 181.213 134.92C181.213 126.76 183.133 120.04 186.973 114.76C190.973 109.32 196.333 105.24 203.053 102.52C209.933 99.8 217.693 98.44 226.333 98.44H262.333V90.76C262.333 83.88 260.253 78.36 256.093 74.2C251.933 70.04 245.533 67.96 236.893 67.96C228.413 67.96 221.933 69.96 217.453 73.96C212.973 77.96 210.013 83.16 208.573 89.56L185.533 82.12C187.453 75.72 190.493 69.96 194.653 64.84C198.973 59.56 204.653 55.32 211.693 52.12C218.733 48.92 227.213 47.32 237.133 47.32C252.493 47.32 264.573 51.24 273.373 59.08C282.173 66.92 286.573 78.04 286.573 92.44V141.16C286.573 145.96 288.813 148.36 293.293 148.36H303.373V169H284.893C279.293 169 274.733 167.56 271.213 164.68C267.693 161.8 265.933 157.88 265.933 152.92V152.2H262.333C261.053 154.6 259.133 157.4 256.573 160.6C254.013 163.8 250.253 166.6 245.293 169C240.333 171.24 233.773 172.36 225.613 172.36ZM229.213 151.96C239.133 151.96 247.133 149.16 253.213 143.56C259.293 137.8 262.333 129.96 262.333 120.04V117.64H227.773C221.213 117.64 215.933 119.08 211.933 121.96C207.933 124.68 205.933 128.76 205.933 134.2C205.933 139.64 208.013 143.96 212.173 147.16C216.333 150.36 222.013 151.96 229.213 151.96ZM313.009 169V50.68H337.249V68.44H341.089C343.329 63.64 347.329 59.16 353.089 55C358.849 50.84 367.409 48.76 378.769 48.76C387.729 48.76 395.649 50.76 402.529 54.76C409.569 58.76 415.089 64.44 419.089 71.8C423.089 79 425.089 87.72 425.089 97.96V169H400.369V99.88C400.369 89.64 397.809 82.12 392.689 77.32C387.569 72.36 380.529 69.88 371.569 69.88C361.329 69.88 353.089 73.24 346.849 79.96C340.769 86.68 337.729 96.44 337.729 109.24V169H313.009ZM494.745 172.36C479.705 172.36 467.225 169 457.305 162.28C447.385 155.56 441.305 145.4 439.065 131.8L462.105 126.28C463.385 132.84 465.545 138.04 468.585 141.88C471.625 145.72 475.385 148.44 479.865 150.04C484.505 151.64 489.465 152.44 494.745 152.44C502.585 152.44 508.585 150.92 512.745 147.88C517.065 144.84 519.225 140.92 519.225 136.12C519.225 131.32 517.225 127.8 513.225 125.56C509.225 123.32 503.305 121.48 495.465 120.04L487.305 118.6C479.305 117.16 472.025 115.08 465.465 112.36C458.905 109.64 453.705 105.88 449.865 101.08C446.025 96.28 444.105 90.12 444.105 82.6C444.105 71.4 448.265 62.76 456.585 56.68C464.905 50.44 475.945 47.32 489.705 47.32C502.985 47.32 513.865 50.36 522.345 56.44C530.985 62.36 536.585 70.44 539.145 80.68L516.105 87.16C514.665 79.96 511.625 74.92 506.985 72.04C502.345 69 496.585 67.48 489.705 67.48C482.985 67.48 477.705 68.76 473.865 71.32C470.025 73.72 468.105 77.16 468.105 81.64C468.105 86.44 469.945 89.96 473.625 92.2C477.465 94.44 482.585 96.12 488.985 97.24L497.385 98.68C505.865 100.12 513.625 102.12 520.665 104.68C527.705 107.24 533.225 110.92 537.225 115.72C541.385 120.52 543.465 126.92 543.465 134.92C543.465 146.76 539.065 155.96 530.265 162.52C521.465 169.08 509.625 172.36 494.745 172.36ZM576.741 169V71.56H543.621V50.68H576.741V24.76C576.741 17.56 578.901 11.8 583.221 7.47999C587.541 3.15999 593.301 0.999989 600.501 0.999989H629.301V21.88H608.421C603.781 21.88 601.461 24.28 601.461 29.08V50.68H654.501V71.56H601.461V169H576.741ZM654.501 169V50.68H679.221V169H654.501ZM666.981 35.32C662.181 35.32 658.101 33.8 654.741 30.76C651.541 27.56 649.941 23.48 649.941 18.52C649.941 13.4 651.541 9.31999 654.741 6.27999C658.101 3.23999 662.181 1.71999 666.981 1.71999C671.781 1.71999 675.781 3.23999 678.981 6.27999C682.341 9.31999 684.021 13.4 684.021 18.52C684.021 23.48 682.341 27.56 678.981 30.76C675.781 33.8 671.781 35.32 666.981 35.32ZM701.293 169V50.68H725.533V68.44H729.373C731.613 63.64 735.613 59.16 741.373 55C747.133 50.84 755.693 48.76 767.053 48.76C776.013 48.76 783.933 50.76 790.813 54.76C797.853 58.76 803.373 64.44 807.373 71.8C811.373 79 813.373 87.72 813.373 97.96V169H788.653V99.88C788.653 89.64 786.093 82.12 780.973 77.32C775.853 72.36 768.813 69.88 759.853 69.88C749.613 69.88 741.373 73.24 735.133 79.96C729.053 86.68 726.013 96.44 726.013 109.24V169H701.293ZM834.549 169V50.68H859.269V169H834.549ZM847.029 34.6C842.229 34.6 838.149 33.08 834.789 30.04C831.589 26.84 829.989 22.76 829.989 17.8C829.989 12.84 831.589 8.84 834.789 5.8C838.149 2.59999 842.229 0.999989 847.029 0.999989C851.989 0.999989 856.069 2.59999 859.269 5.8C862.469 8.84 864.069 12.84 864.069 17.8C864.069 22.76 862.469 26.84 859.269 30.04C856.069 33.08 851.989 34.6 847.029 34.6ZM925.956 169C918.756 169 912.996 166.84 908.676 162.52C904.516 158.2 902.436 152.44 902.436 145.24V71.56H869.796V50.68H902.436V11.56H927.156V50.68H954.996V71.56H927.156V140.92C927.156 145.72 929.396 148.12 933.876 148.12H958.596V169H925.956ZM1003.72 169C996.516 169 990.756 166.84 986.436 162.52C982.116 158.2 979.956 152.44 979.956 145.24V71.56H954.996V50.68H979.956V11.56H1004.68V50.68H1040.2V71.56H1004.68V140.92C1004.68 145.72 1007 148.12 1011.64 148.12H1036.12V169H1003.72ZM1109.13 172.36C1097.13 172.36 1086.65 169.88 1077.69 164.92C1068.73 159.8 1061.69 152.68 1056.57 143.56C1051.61 134.28 1049.13 123.56 1049.13 111.4V108.52C1049.13 96.2 1051.61 85.48 1056.57 76.36C1061.53 67.08 1068.41 59.96 1077.21 55C1086.17 49.88 1096.49 47.32 1108.17 47.32C1119.53 47.32 1129.45 49.88 1137.93 55C1146.57 59.96 1153.29 66.92 1158.09 75.88C1162.89 84.84 1165.29 95.32 1165.29 107.32V116.68H1074.33C1074.65 127.08 1078.09 135.4 1084.65 141.64C1091.37 147.72 1099.69 150.76 1109.61 150.76C1118.89 150.76 1125.85 148.68 1130.49 144.52C1135.29 140.36 1138.97 135.56 1141.53 130.12L1161.93 140.68C1159.69 145.16 1156.41 149.88 1152.09 154.84C1147.93 159.8 1142.41 163.96 1135.53 167.32C1128.65 170.68 1119.85 172.36 1109.13 172.36ZM1074.57 97.72H1140.09C1139.45 88.76 1136.25 81.8 1130.49 76.84C1124.73 71.72 1117.21 69.16 1107.93 69.16C1098.65 69.16 1091.05 71.72 1085.13 76.84C1079.37 81.8 1075.85 88.76 1074.57 97.72Z"/>
</mask>
<path d="M45.36 162.52L44.6397 163.214L44.6462 163.22L44.6529 163.227L45.36 162.52ZM39.12 71.56H40.12V70.56H39.12V71.56ZM6.48 71.56H5.48V72.56H6.48V71.56ZM6.48 50.68V49.68H5.48V50.68H6.48ZM39.12 50.68V51.68H40.12V50.68H39.12ZM39.12 11.56V10.56H38.12V11.56H39.12ZM63.84 11.56H64.84V10.56H63.84V11.56ZM63.84 50.68H62.84V51.68H63.84V50.68ZM99.12 50.68H100.12V49.68H99.12V50.68ZM99.12 71.56V72.56H100.12V71.56H99.12ZM63.84 71.56V70.56H62.84V71.56H63.84ZM95.28 148.12H96.28V147.12H95.28V148.12ZM95.28 169V170H96.28V169H95.28ZM62.64 169V168C55.6543 168 50.1664 165.912 46.0671 161.813L45.36 162.52L44.6529 163.227C49.1936 167.768 55.2257 170 62.64 170V169ZM45.36 162.52L46.0803 161.826C42.1347 157.729 40.12 152.237 40.12 145.24H39.12H38.12C38.12 152.643 40.2653 158.671 44.6397 163.214L45.36 162.52ZM39.12 145.24H40.12V71.56H39.12H38.12V145.24H39.12ZM39.12 71.56V70.56H6.48V71.56V72.56H39.12V71.56ZM6.48 71.56H7.48V50.68H6.48H5.48V71.56H6.48ZM6.48 50.68V51.68H39.12V50.68V49.68H6.48V50.68ZM39.12 50.68H40.12V11.56H39.12H38.12V50.68H39.12ZM39.12 11.56V12.56H63.84V11.56V10.56H39.12V11.56ZM63.84 11.56H62.84V50.68H63.84H64.84V11.56H63.84ZM63.84 50.68V51.68H99.12V50.68V49.68H63.84V50.68ZM99.12 50.68H98.12V71.56H99.12H100.12V50.68H99.12ZM99.12 71.56V70.56H63.84V71.56V72.56H99.12V71.56ZM63.84 71.56H62.84V140.92H63.84H64.84V71.56H63.84ZM63.84 140.92H62.84C62.84 143.458 63.4307 145.547 64.7889 147.002C66.1593 148.471 68.1475 149.12 70.56 149.12V148.12V147.12C68.4925 147.12 67.1207 146.569 66.2511 145.638C65.3693 144.693 64.84 143.182 64.84 140.92H63.84ZM70.56 148.12V149.12H95.28V148.12V147.12H70.56V148.12ZM95.28 148.12H94.28V169H95.28H96.28V148.12H95.28ZM95.28 169V168H62.64V169V170H95.28V169ZM113.762 169H112.762V170H113.762V169ZM113.762 50.68V49.68H112.762V50.68H113.762ZM138.002 50.68H139.002V49.68H138.002V50.68ZM138.002 64.6H137.002V65.6H138.002V64.6ZM141.842 64.6V65.6H142.527L142.774 64.961L141.842 64.6ZM150.962 53.8L151.436 54.6805L151.448 54.6742L150.962 53.8ZM180.962 50.2H181.962V49.2H180.962V50.2ZM180.962 72.52V73.52H181.962V72.52H180.962ZM146.162 79.24L146.807 80.0043L146.814 79.9985L146.82 79.9926L146.162 79.24ZM138.482 169V170H139.482V169H138.482ZM113.762 169H114.762V50.68H113.762H112.762V169H113.762ZM113.762 50.68V51.68H138.002V50.68V49.68H113.762V50.68ZM138.002 50.68H137.002V64.6H138.002H139.002V50.68H138.002ZM138.002 64.6V65.6H141.842V64.6V63.6H138.002V64.6ZM141.842 64.6L142.774 64.961C144.62 60.1935 147.512 56.7932 151.436 54.6805L150.962 53.8L150.488 52.9195C146.091 55.2868 142.904 59.0865 140.909 64.239L141.842 64.6ZM150.962 53.8L151.448 54.6742C155.585 52.3756 160.688 51.2 166.802 51.2V50.2V49.2C160.436 49.2 154.979 50.4244 150.476 52.9258L150.962 53.8ZM166.802 50.2V51.2H180.962V50.2V49.2H166.802V50.2ZM180.962 50.2H179.962V72.52H180.962H181.962V50.2H180.962ZM180.962 72.52V71.52H165.842V72.52V73.52H180.962V72.52ZM165.842 72.52V71.52C157.645 71.52 150.837 73.8206 145.503 78.4874L146.162 79.24L146.82 79.9926C151.727 75.6994 158.039 73.52 165.842 73.52V72.52ZM146.162 79.24L145.517 78.4757C140.098 83.0478 137.482 90.0976 137.482 99.4H138.482H139.482C139.482 90.4624 141.986 84.0722 146.807 80.0043L146.162 79.24ZM138.482 99.4H137.482V169H138.482H139.482V99.4H138.482ZM138.482 169V168H113.762V169V170H138.482V169ZM202.813 168.04L202.411 168.956L202.419 168.959L202.813 168.04ZM186.973 155.32L186.148 155.886L186.154 155.893L186.159 155.901L186.973 155.32ZM186.973 114.76L186.167 114.168L186.164 114.172L186.973 114.76ZM203.053 102.52L202.685 101.59L202.678 101.593L203.053 102.52ZM262.333 98.44V99.44H263.333V98.44H262.333ZM256.093 74.2L255.386 74.9071L256.093 74.2ZM208.573 89.56L208.266 90.5116L209.308 90.8482L209.549 89.7795L208.573 89.56ZM185.533 82.12L184.575 81.8326L184.294 82.7707L185.226 83.0716L185.533 82.12ZM194.653 64.84L193.879 64.2068L193.877 64.2094L194.653 64.84ZM211.693 52.12L212.107 53.0304L211.693 52.12ZM273.373 59.08L274.038 58.3333L273.373 59.08ZM303.373 148.36H304.373V147.36H303.373V148.36ZM303.373 169V170H304.373V169H303.373ZM271.213 164.68L271.846 163.906L271.213 164.68ZM265.933 152.2H266.933V151.2H265.933V152.2ZM262.333 152.2V151.2H261.733L261.451 151.729L262.333 152.2ZM256.573 160.6L257.354 161.225L256.573 160.6ZM245.293 169L245.705 169.911L245.717 169.906L245.729 169.9L245.293 169ZM253.213 143.56L253.891 144.296L253.901 144.286L253.213 143.56ZM262.333 117.64H263.333V116.64H262.333V117.64ZM211.933 121.96L212.495 122.787L212.507 122.779L212.517 122.772L211.933 121.96ZM225.613 172.36V171.36C217.247 171.36 209.784 169.94 203.207 167.121L202.813 168.04L202.419 168.959C209.282 171.9 217.019 173.36 225.613 173.36V172.36ZM202.813 168.04L203.215 167.124C196.813 164.314 191.678 160.186 187.787 154.739L186.973 155.32L186.159 155.901C190.268 161.654 195.693 166.006 202.411 168.956L202.813 168.04ZM186.973 155.32L187.798 154.754C184.091 149.349 182.213 142.755 182.213 134.92H181.213H180.213C180.213 143.085 182.175 150.091 186.148 155.886L186.973 155.32ZM181.213 134.92H182.213C182.213 126.918 184.094 120.419 187.782 115.348L186.973 114.76L186.164 114.172C182.172 119.661 180.213 126.602 180.213 134.92H181.213ZM186.973 114.76L187.779 115.352C191.661 110.073 196.867 106.103 203.428 103.447L203.053 102.52L202.678 101.593C195.799 104.377 190.285 108.567 186.167 114.168L186.973 114.76ZM203.053 102.52L203.421 103.45C210.166 100.783 217.798 99.44 226.333 99.44V98.44V97.44C217.588 97.44 209.7 98.8167 202.685 101.59L203.053 102.52ZM226.333 98.44V99.44H262.333V98.44V97.44H226.333V98.44ZM262.333 98.44H263.333V90.76H262.333H261.333V98.44H262.333ZM262.333 90.76H263.333C263.333 83.6633 261.179 77.8721 256.8 73.4929L256.093 74.2L255.386 74.9071C259.327 78.8479 261.333 84.0967 261.333 90.76H262.333ZM256.093 74.2L256.8 73.4929C252.38 69.0729 245.674 66.96 236.893 66.96V67.96V68.96C245.392 68.96 251.486 71.007 255.386 74.9071L256.093 74.2ZM236.893 67.96V66.96C228.268 66.96 221.514 68.9939 216.787 73.2141L217.453 73.96L218.119 74.7059C222.353 70.9261 228.558 68.96 236.893 68.96V67.96ZM217.453 73.96L216.787 73.2141C212.137 77.3659 209.079 82.7568 207.598 89.3405L208.573 89.56L209.549 89.7795C210.947 83.5632 213.809 78.5541 218.119 74.7059L217.453 73.96ZM208.573 89.56L208.88 88.6084L185.84 81.1684L185.533 82.12L185.226 83.0716L208.266 90.5116L208.573 89.56ZM185.533 82.12L186.491 82.4073C188.374 76.1309 191.353 70.4878 195.429 65.4706L194.653 64.84L193.877 64.2094C189.634 69.4322 186.532 75.3091 184.575 81.8326L185.533 82.12ZM194.653 64.84L195.427 65.4732C199.638 60.327 205.188 56.1754 212.107 53.0304L211.693 52.12L211.279 51.2096C204.118 54.4646 198.309 58.793 193.879 64.2068L194.653 64.84ZM211.693 52.12L212.107 53.0304C218.986 49.9036 227.317 48.32 237.133 48.32V47.32V46.32C227.109 46.32 218.481 47.9364 211.279 51.2096L211.693 52.12ZM237.133 47.32V48.32C252.324 48.32 264.141 52.1942 272.708 59.8267L273.373 59.08L274.038 58.3333C265.005 50.2858 252.662 46.32 237.133 46.32V47.32ZM273.373 59.08L272.708 59.8267C281.249 67.4356 285.573 78.2566 285.573 92.44H286.573H287.573C287.573 77.8234 283.098 66.4044 274.038 58.3333L273.373 59.08ZM286.573 92.44H285.573V141.16H286.573H287.573V92.44H286.573ZM286.573 141.16H285.573C285.573 143.698 286.164 145.787 287.522 147.242C288.892 148.711 290.881 149.36 293.293 149.36V148.36V147.36C291.226 147.36 289.854 146.809 288.984 145.878C288.102 144.933 287.573 143.422 287.573 141.16H286.573ZM293.293 148.36V149.36H303.373V148.36V147.36H293.293V148.36ZM303.373 148.36H302.373V169H303.373H304.373V148.36H303.373ZM303.373 169V168H284.893V169V170H303.373V169ZM284.893 169V168C279.469 168 275.149 166.608 271.846 163.906L271.213 164.68L270.58 165.454C274.317 168.512 279.117 170 284.893 170V169ZM271.213 164.68L271.846 163.906C268.581 161.235 266.933 157.611 266.933 152.92H265.933H264.933C264.933 158.149 266.805 162.365 270.58 165.454L271.213 164.68ZM265.933 152.92H266.933V152.2H265.933H264.933V152.92H265.933ZM265.933 152.2V151.2H262.333V152.2V153.2H265.933V152.2ZM262.333 152.2L261.451 151.729C260.21 154.055 258.331 156.802 255.792 159.975L256.573 160.6L257.354 161.225C259.935 157.998 261.896 155.145 263.215 152.671L262.333 152.2ZM256.573 160.6L255.792 159.975C253.352 163.026 249.727 165.744 244.858 168.1L245.293 169L245.729 169.9C250.779 167.456 254.675 164.574 257.354 161.225L256.573 160.6ZM245.293 169L244.882 168.089C240.099 170.248 233.696 171.36 225.613 171.36V172.36V173.36C233.851 173.36 240.567 172.232 245.705 169.911L245.293 169ZM229.213 151.96V152.96C239.331 152.96 247.59 150.098 253.891 144.296L253.213 143.56L252.536 142.824C246.676 148.222 238.935 150.96 229.213 150.96V151.96ZM253.213 143.56L253.901 144.286C260.217 138.302 263.333 130.18 263.333 120.04H262.333H261.333C261.333 129.74 258.369 137.298 252.525 142.834L253.213 143.56ZM262.333 120.04H263.333V117.64H262.333H261.333V120.04H262.333ZM262.333 117.64V116.64H227.773V117.64V118.64H262.333V117.64ZM227.773 117.64V116.64C221.072 116.64 215.567 118.111 211.349 121.148L211.933 121.96L212.517 122.772C216.299 120.049 221.354 118.64 227.773 118.64V117.64ZM211.933 121.96L211.371 121.133C207.059 124.065 204.933 128.477 204.933 134.2H205.933H206.933C206.933 129.043 208.807 125.295 212.495 122.787L211.933 121.96ZM205.933 134.2H204.933C204.933 139.937 207.147 144.555 211.563 147.953L212.173 147.16L212.783 146.367C208.879 143.365 206.933 139.343 206.933 134.2H205.933ZM212.173 147.16L211.563 147.953C215.953 151.329 221.873 152.96 229.213 152.96V151.96V150.96C222.153 150.96 216.713 149.391 212.783 146.367L212.173 147.16ZM313.009 169H312.009V170H313.009V169ZM313.009 50.68V49.68H312.009V50.68H313.009ZM337.249 50.68H338.249V49.68H337.249V50.68ZM337.249 68.44H336.249V69.44H337.249V68.44ZM341.089 68.44V69.44H341.726L341.995 68.8629L341.089 68.44ZM353.089 55L353.674 55.8107L353.089 55ZM402.529 54.76L402.026 55.6245L402.035 55.6295L402.529 54.76ZM419.089 71.8L418.21 72.2775L418.215 72.2856L419.089 71.8ZM425.089 169V170H426.089V169H425.089ZM400.369 169H399.369V170H400.369V169ZM392.689 77.32L391.993 78.0382L391.999 78.0439L392.005 78.0495L392.689 77.32ZM346.849 79.96L346.116 79.2795L346.107 79.2891L346.849 79.96ZM337.729 169V170H338.729V169H337.729ZM313.009 169H314.009V50.68H313.009H312.009V169H313.009ZM313.009 50.68V51.68H337.249V50.68V49.68H313.009V50.68ZM337.249 50.68H336.249V68.44H337.249H338.249V50.68H337.249ZM337.249 68.44V69.44H341.089V68.44V67.44H337.249V68.44ZM341.089 68.44L341.995 68.8629C344.142 64.2612 348.007 59.9036 353.674 55.8107L353.089 55L352.503 54.1893C346.65 58.4164 342.515 63.0188 340.183 68.0171L341.089 68.44ZM353.089 55L353.674 55.8107C359.189 51.8277 367.503 49.76 378.769 49.76V48.76V47.76C367.315 47.76 358.508 49.8523 352.503 54.1893L353.089 55ZM378.769 48.76V49.76C387.575 49.76 395.317 51.724 402.026 55.6245L402.529 54.76L403.031 53.8955C395.98 49.796 387.883 47.76 378.769 47.76V48.76ZM402.529 54.76L402.035 55.6295C408.907 59.534 414.296 65.0755 418.21 72.2775L419.089 71.8L419.967 71.3225C415.882 63.8045 410.231 57.986 403.023 53.8905L402.529 54.76ZM419.089 71.8L418.215 72.2856C422.114 79.3051 424.089 87.8492 424.089 97.96H425.089H426.089C426.089 87.5908 424.063 78.6949 419.963 71.3143L419.089 71.8ZM425.089 97.96H424.089V169H425.089H426.089V97.96H425.089ZM425.089 169V168H400.369V169V170H425.089V169ZM400.369 169H401.369V99.88H400.369H399.369V169H400.369ZM400.369 99.88H401.369C401.369 89.4916 398.772 81.6522 393.373 76.5905L392.689 77.32L392.005 78.0495C396.846 82.5878 399.369 89.7883 399.369 99.88H400.369ZM392.689 77.32L393.385 76.6018C388.033 71.4176 380.718 68.88 371.569 68.88V69.88V70.88C380.339 70.88 387.104 73.3024 391.993 78.0382L392.689 77.32ZM371.569 69.88V68.88C361.087 68.88 352.568 72.3309 346.116 79.2795L346.849 79.96L347.582 80.6404C353.609 74.1491 361.571 70.88 371.569 70.88V69.88ZM346.849 79.96L346.107 79.2891C339.803 86.2566 336.729 96.294 336.729 109.24H337.729H338.729C338.729 96.586 341.734 87.1034 347.59 80.6309L346.849 79.96ZM337.729 109.24H336.729V169H337.729H338.729V109.24H337.729ZM337.729 169V168H313.009V169V170H337.729V169ZM457.305 162.28L457.866 161.452L457.305 162.28ZM439.065 131.8L438.832 130.828L437.927 131.044L438.078 131.963L439.065 131.8ZM462.105 126.28L463.086 126.088L462.887 125.064L461.872 125.308L462.105 126.28ZM468.585 141.88L469.369 141.259L468.585 141.88ZM479.865 150.04L479.529 150.982L479.539 150.985L479.865 150.04ZM512.745 147.88L512.169 147.062L512.162 147.067L512.155 147.073L512.745 147.88ZM495.465 120.04L495.646 119.056L495.639 119.055L495.465 120.04ZM487.305 118.6L487.128 119.584L487.131 119.585L487.305 118.6ZM465.465 112.36L465.082 113.284L465.465 112.36ZM449.865 101.08L450.646 100.455L449.865 101.08ZM456.585 56.68L457.175 57.4874L457.185 57.48L456.585 56.68ZM522.345 56.44L521.762 57.2527L521.771 57.2589L521.78 57.2649L522.345 56.44ZM539.145 80.68L539.416 81.6426L540.351 81.3797L540.115 80.4375L539.145 80.68ZM516.105 87.16L515.124 87.3561L515.336 88.415L516.376 88.1226L516.105 87.16ZM506.985 72.04L506.437 72.8765L506.447 72.8832L506.458 72.8896L506.985 72.04ZM473.865 71.32L474.395 72.168L474.407 72.1602L474.42 72.152L473.865 71.32ZM473.625 92.2L473.105 93.0542L473.113 93.0591L473.121 93.0638L473.625 92.2ZM488.985 97.24L488.813 98.225L488.816 98.2256L488.985 97.24ZM497.385 98.68L497.216 99.6656L497.218 99.6659L497.385 98.68ZM537.225 115.72L536.457 116.36L536.463 116.368L536.469 116.375L537.225 115.72ZM530.265 162.52L530.863 163.322L530.265 162.52ZM494.745 172.36V171.36C479.854 171.36 467.582 168.034 457.866 161.452L457.305 162.28L456.744 163.108C466.867 169.966 479.556 173.36 494.745 173.36V172.36ZM457.305 162.28L457.866 161.452C448.208 154.91 442.254 145.011 440.052 131.637L439.065 131.8L438.078 131.963C440.356 145.789 446.562 156.21 456.744 163.108L457.305 162.28ZM439.065 131.8L439.298 132.772L462.338 127.252L462.105 126.28L461.872 125.308L438.832 130.828L439.065 131.8ZM462.105 126.28L461.124 126.472C462.423 133.134 464.632 138.498 467.801 142.501L468.585 141.88L469.369 141.259C466.458 137.582 464.346 132.546 463.086 126.088L462.105 126.28ZM468.585 141.88L467.801 142.501C470.954 146.483 474.867 149.317 479.529 150.982L479.865 150.04L480.201 149.098C475.903 147.563 472.296 144.957 469.369 141.259L468.585 141.88ZM479.865 150.04L479.539 150.985C484.292 152.624 489.362 153.44 494.745 153.44V152.44V151.44C489.568 151.44 484.718 150.656 480.191 149.095L479.865 150.04ZM494.745 152.44V153.44C502.693 153.44 508.935 151.903 513.335 148.687L512.745 147.88L512.155 147.073C508.235 149.937 502.477 151.44 494.745 151.44V152.44ZM512.745 147.88L513.32 148.698C517.875 145.492 520.225 141.282 520.225 136.12H519.225H518.225C518.225 140.558 516.255 144.188 512.169 147.062L512.745 147.88ZM519.225 136.12H520.225C520.225 130.979 518.047 127.114 513.714 124.687L513.225 125.56L512.736 126.433C516.403 128.486 518.225 131.661 518.225 136.12H519.225ZM513.225 125.56L513.714 124.687C509.572 122.368 503.526 120.504 495.646 119.056L495.465 120.04L495.284 121.024C503.084 122.456 508.878 124.272 512.736 126.433L513.225 125.56ZM495.465 120.04L495.639 119.055L487.479 117.615L487.305 118.6L487.131 119.585L495.291 121.025L495.465 120.04ZM487.305 118.6L487.482 117.616C479.543 116.187 472.333 114.125 465.848 111.436L465.465 112.36L465.082 113.284C471.717 116.035 479.067 118.133 487.128 119.584L487.305 118.6ZM465.465 112.36L465.848 111.436C459.419 108.771 454.365 105.104 450.646 100.455L449.865 101.08L449.084 101.705C453.045 106.655 458.391 110.509 465.082 113.284L465.465 112.36ZM449.865 101.08L450.646 100.455C446.977 95.8695 445.105 89.9452 445.105 82.6H444.105H443.105C443.105 90.2948 445.073 96.6905 449.084 101.705L449.865 101.08ZM444.105 82.6H445.105C445.105 71.6869 449.138 63.3608 457.175 57.4874L456.585 56.68L455.995 55.8726C447.392 62.1592 443.105 71.1131 443.105 82.6H444.105ZM456.585 56.68L457.185 57.48C465.283 51.4062 476.092 48.32 489.705 48.32V47.32V46.32C475.798 46.32 464.527 49.4738 455.985 55.88L456.585 56.68ZM489.705 47.32V48.32C502.833 48.32 513.493 51.3241 521.762 57.2527L522.345 56.44L522.928 55.6273C514.237 49.3959 503.137 46.32 489.705 46.32V47.32ZM522.345 56.44L521.78 57.2649C530.216 63.0456 535.674 70.9176 538.175 80.9225L539.145 80.68L540.115 80.4375C537.496 69.9624 531.754 61.6744 522.91 55.6151L522.345 56.44ZM539.145 80.68L538.874 79.7173L515.834 86.1973L516.105 87.16L516.376 88.1226L539.416 81.6426L539.145 80.68ZM516.105 87.16L517.086 86.9639C515.611 79.59 512.46 74.2613 507.512 71.1904L506.985 72.04L506.458 72.8896C510.79 75.5787 513.719 80.33 515.124 87.3561L516.105 87.16ZM506.985 72.04L507.533 71.2035C502.695 68.0338 496.733 66.48 489.705 66.48V67.48V68.48C496.437 68.48 501.995 69.9662 506.437 72.8765L506.985 72.04ZM489.705 67.48V66.48C482.873 66.48 477.374 67.7791 473.31 70.4879L473.865 71.32L474.42 72.152C478.036 69.7409 483.097 68.48 489.705 68.48V67.48ZM473.865 71.32L473.335 70.472C469.206 73.0523 467.105 76.8107 467.105 81.64H468.105H469.105C469.105 77.5093 470.844 74.3877 474.395 72.168L473.865 71.32ZM468.105 81.64H467.105C467.105 86.7413 469.088 90.6093 473.105 93.0542L473.625 92.2L474.145 91.3458C470.802 89.3107 469.105 86.1386 469.105 81.64H468.105ZM473.625 92.2L473.121 93.0638C477.099 95.3843 482.345 97.0932 488.813 98.225L488.985 97.24L489.157 96.255C482.825 95.1468 477.831 93.4957 474.129 91.3362L473.625 92.2ZM488.985 97.24L488.816 98.2256L497.216 99.6656L497.385 98.68L497.554 97.6944L489.154 96.2544L488.985 97.24ZM497.385 98.68L497.218 99.6659C505.647 101.097 513.347 103.083 520.323 105.62L520.665 104.68L521.007 103.74C513.903 101.157 506.083 99.1427 497.552 97.6941L497.385 98.68ZM520.665 104.68L520.323 105.62C527.23 108.131 532.591 111.721 536.457 116.36L537.225 115.72L537.993 115.08C533.859 110.119 528.18 106.349 521.007 103.74L520.665 104.68ZM537.225 115.72L536.469 116.375C540.434 120.95 542.465 127.096 542.465 134.92H543.465H544.465C544.465 126.744 542.336 120.09 537.981 115.065L537.225 115.72ZM543.465 134.92H542.465C542.465 146.473 538.192 155.364 529.667 161.718L530.265 162.52L530.863 163.322C539.938 156.556 544.465 147.047 544.465 134.92H543.465ZM530.265 162.52L529.667 161.718C521.092 168.111 509.485 171.36 494.745 171.36V172.36V173.36C509.765 173.36 521.838 170.049 530.863 163.322L530.265 162.52ZM576.741 169H575.741V170H576.741V169ZM576.741 71.56H577.741V70.56H576.741V71.56ZM543.621 71.56H542.621V72.56H543.621V71.56ZM543.621 50.68V49.68H542.621V50.68H543.621ZM576.741 50.68V51.68H577.741V50.68H576.741ZM583.221 7.47999L582.513 6.77288L583.221 7.47999ZM629.301 0.999989H630.301V-1.14441e-05H629.301V0.999989ZM629.301 21.88V22.88H630.301V21.88H629.301ZM601.461 50.68H600.461V51.68H601.461V50.68ZM654.501 50.68H655.501V49.68H654.501V50.68ZM654.501 71.56V72.56H655.501V71.56H654.501ZM601.461 71.56V70.56H600.461V71.56H601.461ZM601.461 169V170H602.461V169H601.461ZM654.501 169H653.501V170H654.501V169ZM654.501 50.68V49.68H653.501V50.68H654.501ZM679.221 50.68H680.221V49.68H679.221V50.68ZM679.221 169V170H680.221V169H679.221ZM654.741 30.76L654.034 31.4671L654.051 31.4848L654.07 31.5015L654.741 30.76ZM654.741 6.27999L654.07 5.53846L654.061 5.54662L654.052 5.55499L654.741 6.27999ZM678.981 6.27999L678.292 7.00499L678.301 7.01337L678.31 7.02153L678.981 6.27999ZM678.981 30.76L679.669 31.485L679.67 31.4841L678.981 30.76ZM576.741 169H577.741V71.56H576.741H575.741V169H576.741ZM576.741 71.56V70.56H543.621V71.56V72.56H576.741V71.56ZM543.621 71.56H544.621V50.68H543.621H542.621V71.56H543.621ZM543.621 50.68V51.68H576.741V50.68V49.68H543.621V50.68ZM576.741 50.68H577.741V24.76H576.741H575.741V50.68H576.741ZM576.741 24.76H577.741C577.741 17.7743 579.828 12.2864 583.928 8.1871L583.221 7.47999L582.513 6.77288C577.973 11.3136 575.741 17.3457 575.741 24.76H576.741ZM583.221 7.47999L583.928 8.1871C588.027 4.08783 593.515 1.99999 600.501 1.99999V0.999989V-1.14441e-05C593.086 -1.14441e-05 587.054 2.23215 582.513 6.77288L583.221 7.47999ZM600.501 0.999989V1.99999H629.301V0.999989V-1.14441e-05H600.501V0.999989ZM629.301 0.999989H628.301V21.88H629.301H630.301V0.999989H629.301ZM629.301 21.88V20.88H608.421V21.88V22.88H629.301V21.88ZM608.421 21.88V20.88C605.938 20.88 603.894 21.524 602.482 22.985C601.075 24.4396 600.461 26.5342 600.461 29.08H601.461H602.461C602.461 26.8258 603.006 25.3204 603.92 24.375C604.827 23.436 606.264 22.88 608.421 22.88V21.88ZM601.461 29.08H600.461V50.68H601.461H602.461V29.08H601.461ZM601.461 50.68V51.68H654.501V50.68V49.68H601.461V50.68ZM654.501 50.68H653.501V71.56H654.501H655.501V50.68H654.501ZM654.501 71.56V70.56H601.461V71.56V72.56H654.501V71.56ZM601.461 71.56H600.461V169H601.461H602.461V71.56H601.461ZM601.461 169V168H576.741V169V170H601.461V169ZM654.501 169H655.501V50.68H654.501H653.501V169H654.501ZM654.501 50.68V51.68H679.221V50.68V49.68H654.501V50.68ZM679.221 50.68H678.221V169H679.221H680.221V50.68H679.221ZM679.221 169V168H654.501V169V170H679.221V169ZM666.981 35.32V34.32C662.412 34.32 658.576 32.8816 655.412 30.0185L654.741 30.76L654.07 31.5015C657.625 34.7184 661.949 36.32 666.981 36.32V35.32ZM654.741 30.76L655.448 30.0529C652.454 27.0593 650.941 23.2428 650.941 18.52H649.941H648.941C648.941 23.7172 650.627 28.0606 654.034 31.4671L654.741 30.76ZM649.941 18.52H650.941C650.941 13.6263 652.46 9.82561 655.429 7.00499L654.741 6.27999L654.052 5.55499C650.621 8.81437 648.941 13.1737 648.941 18.52H649.941ZM654.741 6.27999L655.412 7.02153C658.576 4.15837 662.412 2.71999 666.981 2.71999V1.71999V0.719994C661.949 0.719994 657.625 2.32162 654.07 5.53846L654.741 6.27999ZM666.981 1.71999V2.71999C671.549 2.71999 675.295 4.15775 678.292 7.00499L678.981 6.27999L679.669 5.55499C676.266 2.32224 672.012 0.719994 666.981 0.719994V1.71999ZM678.981 6.27999L678.31 7.02153C681.432 9.84626 683.021 13.6419 683.021 18.52H684.021H685.021C685.021 13.1581 683.249 8.79372 679.652 5.53846L678.981 6.27999ZM684.021 18.52H683.021C683.021 23.2274 681.438 27.0387 678.291 30.0359L678.981 30.76L679.67 31.4841C683.243 28.0813 685.021 23.7326 685.021 18.52H684.021ZM678.981 30.76L678.292 30.035C675.295 32.8822 671.549 34.32 666.981 34.32V35.32V36.32C672.012 36.32 676.266 34.7177 679.669 31.485L678.981 30.76ZM701.293 169H700.293V170H701.293V169ZM701.293 50.68V49.68H700.293V50.68H701.293ZM725.533 50.68H726.533V49.68H725.533V50.68ZM725.533 68.44H724.533V69.44H725.533V68.44ZM729.373 68.44V69.44H730.01L730.279 68.8629L729.373 68.44ZM741.373 55L741.959 55.8107L741.373 55ZM790.813 54.76L790.31 55.6245L790.319 55.6295L790.813 54.76ZM807.373 71.8L806.494 72.2775L806.499 72.2856L807.373 71.8ZM813.373 169V170H814.373V169H813.373ZM788.653 169H787.653V170H788.653V169ZM780.973 77.32L780.277 78.0382L780.283 78.0439L780.289 78.0495L780.973 77.32ZM735.133 79.96L734.4 79.2795L734.392 79.2891L735.133 79.96ZM726.013 169V170H727.013V169H726.013ZM701.293 169H702.293V50.68H701.293H700.293V169H701.293ZM701.293 50.68V51.68H725.533V50.68V49.68H701.293V50.68ZM725.533 50.68H724.533V68.44H725.533H726.533V50.68H725.533ZM725.533 68.44V69.44H729.373V68.44V67.44H725.533V68.44ZM729.373 68.44L730.279 68.8629C732.427 64.2612 736.291 59.9036 741.959 55.8107L741.373 55L740.788 54.1893C734.935 58.4164 730.799 63.0188 728.467 68.0171L729.373 68.44ZM741.373 55L741.959 55.8107C747.474 51.8277 755.787 49.76 767.053 49.76V48.76V47.76C755.599 47.76 746.793 49.8523 740.788 54.1893L741.373 55ZM767.053 48.76V49.76C775.859 49.76 783.602 51.724 790.31 55.6245L790.813 54.76L791.316 53.8955C784.265 49.796 776.167 47.76 767.053 47.76V48.76ZM790.813 54.76L790.319 55.6295C797.191 59.534 802.58 65.0755 806.495 72.2775L807.373 71.8L808.252 71.3225C804.166 63.8045 798.515 57.986 791.307 53.8905L790.813 54.76ZM807.373 71.8L806.499 72.2856C810.399 79.3051 812.373 87.8492 812.373 97.96H813.373H814.373C814.373 87.5908 812.348 78.6949 808.247 71.3143L807.373 71.8ZM813.373 97.96H812.373V169H813.373H814.373V97.96H813.373ZM813.373 169V168H788.653V169V170H813.373V169ZM788.653 169H789.653V99.88H788.653H787.653V169H788.653ZM788.653 99.88H789.653C789.653 89.4916 787.056 81.6522 781.657 76.5905L780.973 77.32L780.289 78.0495C785.13 82.5878 787.653 89.7883 787.653 99.88H788.653ZM780.973 77.32L781.669 76.6018C776.318 71.4176 769.003 68.88 759.853 68.88V69.88V70.88C768.623 70.88 775.389 73.3024 780.277 78.0382L780.973 77.32ZM759.853 69.88V68.88C749.371 68.88 740.853 72.3309 734.4 79.2795L735.133 79.96L735.866 80.6404C741.894 74.1491 749.855 70.88 759.853 70.88V69.88ZM735.133 79.96L734.392 79.2891C728.088 86.2566 725.013 96.294 725.013 109.24H726.013H727.013C727.013 96.586 730.019 87.1034 735.875 80.6309L735.133 79.96ZM726.013 109.24H725.013V169H726.013H727.013V109.24H726.013ZM726.013 169V168H701.293V169V170H726.013V169ZM834.549 169H833.549V170H834.549V169ZM834.549 50.68V49.68H833.549V50.68H834.549ZM859.269 50.68H860.269V49.68H859.269V50.68ZM859.269 169V170H860.269V169H859.269ZM834.789 30.04L834.082 30.7471L834.1 30.7648L834.118 30.7815L834.789 30.04ZM834.789 5.8L835.478 6.525L835.479 6.52414L834.789 5.8ZM859.269 5.8L858.562 6.5071L858.571 6.51617L858.581 6.525L859.269 5.8ZM859.269 30.04L859.958 30.765L859.967 30.7562L859.977 30.7471L859.269 30.04ZM834.549 169H835.549V50.68H834.549H833.549V169H834.549ZM834.549 50.68V51.68H859.269V50.68V49.68H834.549V50.68ZM859.269 50.68H858.269V169H859.269H860.269V50.68H859.269ZM859.269 169V168H834.549V169V170H859.269V169ZM847.029 34.6V33.6C842.461 33.6 838.625 32.1616 835.46 29.2985L834.789 30.04L834.118 30.7815C837.674 33.9984 841.998 35.6 847.029 35.6V34.6ZM834.789 30.04L835.497 29.3329C832.503 26.3393 830.989 22.5228 830.989 17.8H829.989H828.989C828.989 22.9972 830.676 27.3406 834.082 30.7471L834.789 30.04ZM829.989 17.8H830.989C830.989 13.0768 832.502 9.35194 835.478 6.525L834.789 5.8L834.101 5.075C830.676 8.32806 828.989 12.6032 828.989 17.8H829.989ZM834.789 5.8L835.479 6.52414C838.646 3.50787 842.476 1.99999 847.029 1.99999V0.999989V-1.14441e-05C841.982 -1.14441e-05 837.653 1.69211 834.1 5.07586L834.789 5.8ZM847.029 0.999989V1.99999C851.752 1.99999 855.569 3.51355 858.562 6.5071L859.269 5.8L859.977 5.09289C856.57 1.68643 852.227 -1.14441e-05 847.029 -1.14441e-05V0.999989ZM859.269 5.8L858.581 6.525C861.556 9.35194 863.069 13.0768 863.069 17.8H864.069H865.069C865.069 12.6032 863.382 8.32806 859.958 5.075L859.269 5.8ZM864.069 17.8H863.069C863.069 22.5228 861.556 26.3393 858.562 29.3329L859.269 30.04L859.977 30.7471C863.383 27.3406 865.069 22.9972 865.069 17.8H864.069ZM859.269 30.04L858.581 29.315C855.59 32.1561 851.767 33.6 847.029 33.6V34.6V35.6C852.211 35.6 856.549 34.0039 859.958 30.765L859.269 30.04ZM908.676 162.52L907.955 163.214L907.962 163.22L907.969 163.227L908.676 162.52ZM902.436 71.56H903.436V70.56H902.436V71.56ZM869.796 71.56H868.796V72.56H869.796V71.56ZM869.796 50.68V49.68H868.796V50.68H869.796ZM902.436 50.68V51.68H903.436V50.68H902.436ZM902.436 11.56V10.56H901.436V11.56H902.436ZM927.156 11.56H928.156V10.56H927.156V11.56ZM927.156 50.68H926.156V51.68H927.156V50.68ZM954.996 50.68H955.996V49.68H954.996V50.68ZM954.996 71.56V72.56H955.996V71.56H954.996ZM927.156 71.56V70.56H926.156V71.56H927.156ZM958.596 148.12H959.596V147.12H958.596V148.12ZM958.596 169V170H959.596V169H958.596ZM986.436 162.52L985.729 163.227L986.436 162.52ZM979.956 71.56H980.956V70.56H979.956V71.56ZM954.996 71.56H953.996V72.56H954.996V71.56ZM954.996 50.68V49.68H953.996V50.68H954.996ZM979.956 50.68V51.68H980.956V50.68H979.956ZM979.956 11.56V10.56H978.956V11.56H979.956ZM1004.68 11.56H1005.68V10.56H1004.68V11.56ZM1004.68 50.68H1003.68V51.68H1004.68V50.68ZM1040.2 50.68H1041.2V49.68H1040.2V50.68ZM1040.2 71.56V72.56H1041.2V71.56H1040.2ZM1004.68 71.56V70.56H1003.68V71.56H1004.68ZM1036.12 148.12H1037.12V147.12H1036.12V148.12ZM1036.12 169V170H1037.12V169H1036.12ZM925.956 169V168C918.97 168 913.482 165.912 909.383 161.813L908.676 162.52L907.969 163.227C912.509 167.768 918.541 170 925.956 170V169ZM908.676 162.52L909.396 161.826C905.45 157.729 903.436 152.237 903.436 145.24H902.436H901.436C901.436 152.643 903.581 158.671 907.955 163.214L908.676 162.52ZM902.436 145.24H903.436V71.56H902.436H901.436V145.24H902.436ZM902.436 71.56V70.56H869.796V71.56V72.56H902.436V71.56ZM869.796 71.56H870.796V50.68H869.796H868.796V71.56H869.796ZM869.796 50.68V51.68H902.436V50.68V49.68H869.796V50.68ZM902.436 50.68H903.436V11.56H902.436H901.436V50.68H902.436ZM902.436 11.56V12.56H927.156V11.56V10.56H902.436V11.56ZM927.156 11.56H926.156V50.68H927.156H928.156V11.56H927.156ZM927.156 50.68V51.68H954.996V50.68V49.68H927.156V50.68ZM954.996 50.68H953.996V71.56H954.996H955.996V50.68H954.996ZM954.996 71.56V70.56H927.156V71.56V72.56H954.996V71.56ZM927.156 71.56H926.156V140.92H927.156H928.156V71.56H927.156ZM927.156 140.92H926.156C926.156 143.458 926.746 145.547 928.105 147.002C929.475 148.471 931.463 149.12 933.876 149.12V148.12V147.12C931.808 147.12 930.436 146.569 929.567 145.638C928.685 144.693 928.156 143.182 928.156 140.92H927.156ZM933.876 148.12V149.12H958.596V148.12V147.12H933.876V148.12ZM958.596 148.12H957.596V169H958.596H959.596V148.12H958.596ZM958.596 169V168H925.956V169V170H958.596V169ZM1003.72 169V168C996.73 168 991.242 165.912 987.143 161.813L986.436 162.52L985.729 163.227C990.269 167.768 996.301 170 1003.72 170V169ZM986.436 162.52L987.143 161.813C983.043 157.714 980.956 152.226 980.956 145.24H979.956H978.956C978.956 152.654 981.188 158.686 985.729 163.227L986.436 162.52ZM979.956 145.24H980.956V71.56H979.956H978.956V145.24H979.956ZM979.956 71.56V70.56H954.996V71.56V72.56H979.956V71.56ZM954.996 71.56H955.996V50.68H954.996H953.996V71.56H954.996ZM954.996 50.68V51.68H979.956V50.68V49.68H954.996V50.68ZM979.956 50.68H980.956V11.56H979.956H978.956V50.68H979.956ZM979.956 11.56V12.56H1004.68V11.56V10.56H979.956V11.56ZM1004.68 11.56H1003.68V50.68H1004.68H1005.68V11.56H1004.68ZM1004.68 50.68V51.68H1040.2V50.68V49.68H1004.68V50.68ZM1040.2 50.68H1039.2V71.56H1040.2H1041.2V50.68H1040.2ZM1040.2 71.56V70.56H1004.68V71.56V72.56H1040.2V71.56ZM1004.68 71.56H1003.68V140.92H1004.68H1005.68V71.56H1004.68ZM1004.68 140.92H1003.68C1003.68 143.466 1004.29 145.56 1005.7 147.015C1007.11 148.476 1009.15 149.12 1011.64 149.12V148.12V147.12C1009.48 147.12 1008.04 146.564 1007.13 145.625C1006.22 144.68 1005.68 143.174 1005.68 140.92H1004.68ZM1011.64 148.12V149.12H1036.12V148.12V147.12H1011.64V148.12ZM1036.12 148.12H1035.12V169H1036.12H1037.12V148.12H1036.12ZM1036.12 169V168H1003.72V169V170H1036.12V169ZM1077.69 164.92L1077.19 165.788L1077.21 165.795L1077.69 164.92ZM1056.57 143.56L1055.69 144.031L1055.69 144.041L1055.7 144.05L1056.57 143.56ZM1056.57 76.36L1057.45 76.8378L1057.45 76.8314L1056.57 76.36ZM1077.21 55L1077.7 55.8712L1077.71 55.8682L1077.21 55ZM1137.93 55L1137.41 55.8561L1137.42 55.8618L1137.43 55.8672L1137.93 55ZM1158.09 75.88L1158.97 75.4078L1158.09 75.88ZM1165.29 116.68V117.68H1166.29V116.68H1165.29ZM1074.33 116.68V115.68H1073.3L1073.33 116.711L1074.33 116.68ZM1084.65 141.64L1083.96 142.365L1083.97 142.373L1083.98 142.382L1084.65 141.64ZM1130.49 144.52L1129.84 143.764L1129.83 143.77L1129.82 143.775L1130.49 144.52ZM1141.53 130.12L1141.99 129.232L1141.07 128.754L1140.63 129.694L1141.53 130.12ZM1161.93 140.68L1162.82 141.127L1163.27 140.245L1162.39 139.792L1161.93 140.68ZM1152.09 154.84L1151.34 154.183L1151.33 154.19L1151.32 154.197L1152.09 154.84ZM1135.53 167.32L1135.97 168.219L1135.53 167.32ZM1074.57 97.72L1073.58 97.5786L1073.42 98.72H1074.57V97.72ZM1140.09 97.72V98.72H1141.16L1141.09 97.6488L1140.09 97.72ZM1130.49 76.84L1129.83 77.5874L1129.83 77.5926L1129.84 77.5978L1130.49 76.84ZM1085.13 76.84L1085.78 77.5978L1085.78 77.5964L1085.13 76.84ZM1109.13 172.36V171.36C1097.27 171.36 1086.96 168.91 1078.17 164.045L1077.69 164.92L1077.21 165.795C1086.34 170.85 1096.99 173.36 1109.13 173.36V172.36ZM1077.69 164.92L1078.19 164.052C1069.39 159.023 1062.47 152.035 1057.44 143.07L1056.57 143.56L1055.7 144.05C1060.91 153.325 1068.07 160.577 1077.19 165.788L1077.69 164.92ZM1056.57 143.56L1057.45 143.089C1052.58 133.975 1050.13 123.421 1050.13 111.4H1049.13H1048.13C1048.13 123.699 1050.64 134.585 1055.69 144.031L1056.57 143.56ZM1049.13 111.4H1050.13V108.52H1049.13H1048.13V111.4H1049.13ZM1049.13 108.52H1050.13C1050.13 96.3358 1052.58 85.786 1057.45 76.8378L1056.57 76.36L1055.69 75.8822C1050.64 85.174 1048.13 96.0642 1048.13 108.52H1049.13ZM1056.57 76.36L1057.45 76.8314C1062.33 67.7117 1069.07 60.7338 1077.7 55.8711L1077.21 55L1076.72 54.1288C1067.75 59.1862 1060.73 66.4482 1055.69 75.8886L1056.57 76.36ZM1077.21 55L1077.71 55.8682C1086.5 50.8455 1096.64 48.32 1108.17 48.32V47.32V46.32C1096.34 46.32 1085.84 48.9145 1076.71 54.1318L1077.21 55ZM1108.17 47.32V48.32C1119.38 48.32 1129.11 50.8434 1137.41 55.8561L1137.93 55L1138.45 54.1439C1129.79 48.9166 1119.68 46.32 1108.17 46.32V47.32ZM1137.93 55L1137.43 55.8672C1145.91 60.7321 1152.49 67.5537 1157.21 76.3522L1158.09 75.88L1158.97 75.4078C1154.08 66.2863 1147.23 59.1879 1138.43 54.1327L1137.93 55ZM1158.09 75.88L1157.21 76.3522C1161.92 85.1428 1164.29 95.455 1164.29 107.32H1165.29H1166.29C1166.29 95.185 1163.86 84.5371 1158.97 75.4078L1158.09 75.88ZM1165.29 107.32H1164.29V116.68H1165.29H1166.29V107.32H1165.29ZM1165.29 116.68V115.68H1074.33V116.68V117.68H1165.29V116.68ZM1074.33 116.68L1073.33 116.711C1073.66 127.331 1077.18 135.916 1083.96 142.365L1084.65 141.64L1085.34 140.915C1079 134.884 1075.64 126.829 1075.33 116.649L1074.33 116.68ZM1084.65 141.64L1083.98 142.382C1090.9 148.644 1099.47 151.76 1109.61 151.76V150.76V149.76C1099.91 149.76 1091.84 146.796 1085.32 140.898L1084.65 141.64ZM1109.61 150.76V151.76C1119.02 151.76 1126.26 149.653 1131.16 145.265L1130.49 144.52L1129.82 143.775C1125.44 147.707 1118.76 149.76 1109.61 149.76V150.76ZM1130.49 144.52L1131.15 145.276C1136.04 141.03 1139.81 136.119 1142.43 130.546L1141.53 130.12L1140.63 129.694C1138.13 135.001 1134.54 139.69 1129.84 143.764L1130.49 144.52ZM1141.53 130.12L1141.07 131.008L1161.47 141.568L1161.93 140.68L1162.39 139.792L1141.99 129.232L1141.53 130.12ZM1161.93 140.68L1161.04 140.233C1158.84 144.618 1155.62 149.268 1151.34 154.183L1152.09 154.84L1152.84 155.497C1157.2 150.492 1160.54 145.702 1162.82 141.127L1161.93 140.68ZM1152.09 154.84L1151.32 154.197C1147.27 159.032 1141.87 163.112 1135.09 166.421L1135.53 167.32L1135.97 168.219C1142.95 164.808 1148.59 160.568 1152.86 155.483L1152.09 154.84ZM1135.53 167.32L1135.09 166.421C1128.39 169.693 1119.76 171.36 1109.13 171.36V172.36V173.36C1119.95 173.36 1128.91 171.667 1135.97 168.219L1135.53 167.32ZM1074.57 97.72V98.72H1140.09V97.72V96.72H1074.57V97.72ZM1140.09 97.72L1141.09 97.6488C1140.43 88.4751 1137.14 81.2473 1131.14 76.0822L1130.49 76.84L1129.84 77.5978C1135.36 82.3527 1138.47 89.0449 1139.09 97.7912L1140.09 97.72ZM1130.49 76.84L1131.15 76.0926C1125.18 70.7781 1117.4 68.16 1107.93 68.16V69.16V70.16C1117.02 70.16 1124.28 72.6619 1129.83 77.5874L1130.49 76.84ZM1107.93 69.16V68.16C1098.46 68.16 1090.61 70.7783 1084.48 76.0836L1085.13 76.84L1085.78 77.5964C1091.49 72.6617 1098.84 70.16 1107.93 70.16V69.16ZM1085.13 76.84L1084.48 76.0822C1078.5 81.2291 1074.89 88.4271 1073.58 97.5786L1074.57 97.72L1075.56 97.8614C1076.81 89.0929 1080.24 82.3709 1085.78 77.5978L1085.13 76.84Z" fill="url(#paint1_linear_338_121)" mask="url(#path-3-outside-2_338_121)"/>
<defs>
<linearGradient id="paint0_linear_338_121" x1="587.907" y1="126.835" x2="588.5" y2="235" gradientUnits="userSpaceOnUse">
<stop stop-color="white"/>
<stop offset="1" stop-color="#999999" stop-opacity="0"/>
</linearGradient>
<linearGradient id="paint1_linear_338_121" x1="589" y1="1" x2="589" y2="169" gradientUnits="userSpaceOnUse">
<stop offset="0.149038" stop-color="#FF315E"/>
<stop offset="0.427885" stop-color="#E861FF"/>
<stop offset="0.591346" stop-color="#8A38F5"/>
<stop offset="0.883459"/>
</linearGradient>
</defs>
</svg>
