<svg width="28" height="16" viewBox="0 0 28 16" fill="none" xmlns="http://www.w3.org/2000/svg">
<path d="M17.7661 14.6361C18.173 15.0684 18.862 15.1378 19.3568 14.8135L19.4533 14.7435L26.769 8.8352C27.0295 8.62481 27.1793 8.32016 27.1793 8.00001C27.1793 7.67985 27.0295 7.37521 26.769 7.16482L19.4533 1.25648L19.3568 1.18652C18.862 0.862219 18.173 0.931623 17.7661 1.36394C17.3321 1.82512 17.3835 2.5248 17.8814 2.92685L22.7919 6.89219H2.06506C1.40457 6.89219 0.869141 7.38818 0.869141 8.00001C0.869141 8.61184 1.40457 9.10782 2.06506 9.10782H22.7919L17.8814 13.0732L17.7934 13.1518C17.3788 13.5616 17.3592 14.2036 17.7661 14.6361Z" fill="black"/>
</svg>
