<svg width="29" height="29" viewBox="0 0 29 29" fill="none" xmlns="http://www.w3.org/2000/svg">
<path d="M10.875 4.49879C8.16632 5.11635 5.79657 6.74682 4.25168 9.05584C2.70679 11.3649 2.10384 14.1774 2.56649 16.9168M10.875 4.49879L7.24999 3.021M10.875 4.49879L9.66666 7.85433M23.0357 19.9377C23.7819 18.4359 24.1691 16.7813 24.1667 15.1043C24.1667 9.71516 20.248 5.24312 15.1042 4.37916M23.0357 19.9377L26.5833 17.521M23.0357 19.9377L21.1458 16.3127M4.24849 21.146C5.24137 22.6339 6.58632 23.8536 8.16391 24.6968C9.74149 25.54 11.5029 25.9805 13.2917 25.9793C15.9673 25.9827 18.5497 24.9962 20.5417 23.2098M4.24849 21.146H8.45832M4.24849 21.146V25.3752" stroke="#E6E6E6" stroke-width="1.5" stroke-linecap="round" stroke-linejoin="round"/>
</svg>
