<?xml version="1.0" standalone="no"?>
<!DOCTYPE svg PUBLIC "-//W3C//DTD SVG 20010904//EN"
 "http://www.w3.org/TR/2001/REC-SVG-20010904/DTD/svg10.dtd">
<svg version="1.0" xmlns="http://www.w3.org/2000/svg"
 width="248.000000pt" height="106.000000pt" viewBox="0 0 248.000000 106.000000"
 preserveAspectRatio="xMidYMid meet">

<g transform="translate(0.000000,106.000000) scale(0.100000,-0.100000)"
fill="#000000" stroke="none">
<path d="M392 946 c-174 -65 -277 -203 -296 -396 -3 -31 -2 -42 2 -25 l7 30
147 3 147 3 112 114 112 115 137 0 c95 0 140 -4 150 -12 7 -7 0 5 -16 26 -43
58 -136 123 -211 146 -92 28 -208 26 -291 -4z"/>
<path d="M930 740 c6 -11 13 -20 16 -20 2 0 0 9 -6 20 -6 11 -13 20 -16 20 -2
0 0 -9 6 -20z"/>
<path d="M808 702 l-147 -3 -73 -69 -73 -69 238 -3 237 -3 -1 25 c0 14 -8 48
-17 75 l-17 50 -147 -3z"/>
<path d="M105 435 c9 -61 58 -158 105 -209 89 -96 203 -146 336 -146 159 0
299 80 387 221 17 29 57 140 57 161 0 10 -90 13 -446 13 l-446 0 7 -40z m275
-50 c0 -19 -5 -25 -22 -25 -21 0 -23 -5 -23 -52 0 -50 -1 -53 -27 -56 -28 -3
-28 -2 -28 52 0 49 -2 56 -20 56 -15 0 -20 7 -20 25 0 24 2 25 70 25 68 0 70
-1 70 -25z m134 9 c28 -27 19 -37 -26 -31 l-43 6 41 -18 c48 -22 60 -45 40
-76 -27 -40 -97 -38 -125 4 l-16 24 50 -6 50 -6 -42 19 c-37 16 -43 24 -43 49
0 18 7 34 18 40 26 16 79 13 96 -5z m184 -11 c3 -19 -1 -23 -22 -23 -25 0 -26
-3 -26 -55 0 -52 -1 -55 -25 -55 -24 0 -25 3 -25 55 0 52 -1 55 -25 55 -18 0
-25 5 -25 18 0 29 10 33 80 30 59 -3 65 -5 68 -25z m134 10 c29 -26 22 -36
-23 -30 -46 6 -44 -2 4 -18 26 -8 33 -16 35 -41 2 -18 -3 -36 -12 -43 -22 -19
-84 -16 -107 5 -31 28 -23 37 29 31 l47 -6 -41 19 c-23 10 -44 25 -47 35 -8
19 6 51 25 58 27 11 72 6 90 -10z"/>
<path d="M2160 211 c-7 -13 -7 -22 0 -26 10 -6 14 1 11 19 -1 5 4 13 11 17 9
6 10 9 1 9 -7 0 -17 -9 -23 -19z"/>
<path d="M931 204 c0 -11 3 -14 6 -6 3 7 2 16 -1 19 -3 4 -6 -2 -5 -13z"/>
<path d="M1993 204 c-4 -10 0 -20 10 -26 24 -13 21 -36 -5 -41 -20 -5 -20 -5
2 -4 30 2 39 33 14 51 -9 7 -14 18 -10 24 4 7 5 12 1 12 -3 0 -8 -7 -12 -16z"/>
<path d="M2286 205 c-3 -9 0 -15 9 -15 9 0 12 6 9 15 -4 8 -7 15 -9 15 -2 0
-5 -7 -9 -15z"/>
<path d="M1008 175 c2 -14 6 -25 8 -25 2 0 4 11 4 25 0 14 -4 25 -9 25 -4 0
-6 -11 -3 -25z"/>
<path d="M1050 181 c0 -25 6 -27 13 -6 4 8 2 17 -3 20 -6 4 -10 -3 -10 -14z"/>
<path d="M1092 186 c7 -8 15 -12 17 -11 5 6 -10 25 -20 25 -5 0 -4 -6 3 -14z"/>
<path d="M1142 188 c-14 -14 -16 -44 -3 -52 4 -3 6 6 3 19 -5 30 20 44 46 24
15 -13 16 -12 3 4 -16 20 -32 22 -49 5z"/>
<path d="M1222 175 c0 -16 2 -22 5 -12 2 9 2 23 0 30 -3 6 -5 -1 -5 -18z"/>
<path d="M1265 189 c-4 -6 -5 -12 -2 -15 2 -3 7 2 10 11 7 17 1 20 -8 4z"/>
<path d="M1300 179 c-13 -24 -7 -49 12 -48 10 0 10 2 1 6 -18 7 -16 28 3 47 8
9 11 16 5 16 -6 0 -15 -9 -21 -21z"/>
<path d="M1345 190 c-3 -5 -1 -10 4 -10 6 0 11 5 11 10 0 6 -2 10 -4 10 -3 0
-8 -4 -11 -10z"/>
<path d="M1388 178 c4 -16 7 -18 10 -8 3 8 10 18 16 22 6 5 2 8 -11 8 -17 0
-20 -4 -15 -22z"/>
<path d="M1492 188 c-13 -13 -17 -58 -4 -58 4 0 8 12 7 27 0 18 6 29 18 31 20
4 24 -27 5 -48 -11 -12 -10 -12 5 0 21 16 19 53 -3 58 -9 1 -21 -3 -28 -10z"/>
<path d="M1570 181 c0 -25 6 -27 13 -6 4 8 2 17 -3 20 -6 4 -10 -3 -10 -14z"/>
<path d="M1780 181 c0 -25 6 -27 13 -6 4 8 2 17 -3 20 -6 4 -10 -3 -10 -14z"/>
<path d="M1810 196 c0 -2 7 -7 16 -10 8 -3 12 -2 9 4 -6 10 -25 14 -25 6z"/>
<path d="M1872 188 c-19 -19 -15 -58 6 -57 10 0 12 3 5 6 -19 7 -16 40 5 52 9
6 12 11 7 11 -6 0 -16 -5 -23 -12z"/>
<path d="M2072 188 c-19 -19 -15 -58 6 -57 10 0 12 3 5 6 -19 7 -16 40 5 52 9
6 12 11 7 11 -6 0 -16 -5 -23 -12z"/>
<path d="M2228 193 c7 -3 16 -2 19 1 4 3 -2 6 -13 5 -11 0 -14 -3 -6 -6z"/>
<path d="M964 165 c-4 -14 -4 -29 0 -32 3 -4 6 3 6 13 0 11 5 25 12 32 9 9 9
12 0 12 -6 0 -14 -11 -18 -25z"/>
<path d="M1911 174 c0 -11 3 -14 6 -6 3 7 2 16 -1 19 -3 4 -6 -2 -5 -13z"/>
<path d="M2111 174 c0 -11 3 -14 6 -6 3 7 2 16 -1 19 -3 4 -6 -2 -5 -13z"/>
<path d="M918 157 c-3 -19 -2 -25 4 -19 6 6 8 18 6 28 -3 14 -5 12 -10 -9z"/>
<path d="M1438 157 c-3 -19 -2 -25 4 -19 6 6 8 18 6 28 -3 14 -5 12 -10 -9z"/>
<path d="M2280 155 c0 -14 4 -25 9 -25 4 0 6 11 3 25 -2 14 -6 25 -8 25 -2 0
-4 -11 -4 -25z"/>
<path d="M1337 155 c-4 -8 -2 -17 3 -20 6 -4 10 3 10 14 0 25 -6 27 -13 6z"/>
<path d="M1612 150 c0 -14 2 -19 5 -12 2 6 2 18 0 25 -3 6 -5 1 -5 -13z"/>
<path d="M1822 150 c0 -14 2 -19 5 -12 2 6 2 18 0 25 -3 6 -5 1 -5 -13z"/>
<path d="M2152 150 c0 -14 2 -19 5 -12 2 6 2 18 0 25 -3 6 -5 1 -5 -13z"/>
<path d="M2339 138 c-3 -21 -4 -38 -3 -38 1 0 9 12 19 26 9 15 12 24 7 20 -6
-3 -12 2 -14 11 -3 10 -6 1 -9 -19z"/>
<path d="M1091 144 c0 -11 3 -14 6 -6 3 7 2 16 -1 19 -3 4 -6 -2 -5 -13z"/>
<path d="M1172 144 c-7 -8 -8 -14 -3 -14 10 0 25 19 20 25 -2 1 -10 -3 -17
-11z"/>
<path d="M1240 145 c-7 -9 -8 -15 -2 -15 5 0 12 7 16 15 3 8 4 15 2 15 -2 0
-9 -7 -16 -15z"/>
<path d="M1731 144 c0 -11 3 -14 6 -6 3 7 2 16 -1 19 -3 4 -6 -2 -5 -13z"/>
<path d="M2190 151 c0 -6 4 -13 10 -16 6 -3 7 1 4 9 -7 18 -14 21 -14 7z"/>
<path d="M1387 139 c7 -7 15 -10 18 -7 3 3 -2 9 -12 12 -14 6 -15 5 -6 -5z"/>
<path d="M1698 133 c7 -3 16 -2 19 1 4 3 -2 6 -13 5 -11 0 -14 -3 -6 -6z"/>
</g>
</svg>
