<?xml version="1.0" standalone="no"?>
<!DOCTYPE svg PUBLIC "-//W3C//DTD SVG 20010904//EN"
 "http://www.w3.org/TR/2001/REC-SVG-20010904/DTD/svg10.dtd">
<svg version="1.0" xmlns="http://www.w3.org/2000/svg"
 width="400.000000pt" height="160.000000pt" viewBox="0 0 400.000000 160.000000"
 preserveAspectRatio="xMidYMid meet">

<g transform="translate(0.000000,160.000000) scale(0.100000,-0.100000)"
fill="#000000" stroke="none">
<path d="M605 1346 c-308 -75 -459 -420 -303 -694 95 -167 296 -265 480 -234
157 27 282 122 354 268 39 77 39 79 39 199 0 121 0 121 -39 201 -101 204 -320
311 -531 260z m180 -57 c129 -24 238 -107 297 -226 63 -129 47 -307 -39 -420
-46 -60 -76 -86 -143 -122 -149 -80 -339 -56 -466 61 -242 223 -139 625 181
704 64 16 98 16 170 3z"/>
<path d="M873 1118 l2 -83 -167 -3 -168 -2 0 80 c0 49 -4 80 -10 80 -23 0
-112 -103 -138 -158 -23 -49 -27 -70 -27 -147 0 -79 4 -97 28 -148 27 -55 117
-157 137 -157 6 0 10 32 10 70 l0 70 165 0 165 0 0 -69 c0 -39 4 -72 9 -76 16
-9 125 106 151 160 21 43 25 65 25 150 0 90 -3 106 -28 157 -25 51 -126 158
-148 158 -4 0 -7 -37 -6 -82z m94 -95 c25 -43 28 -57 28 -138 0 -77 -4 -96
-24 -132 -14 -24 -27 -43 -30 -43 -3 0 -6 81 -6 180 0 99 1 180 2 180 1 0 15
-21 30 -47z m-487 -138 c0 -93 -4 -165 -9 -165 -19 0 -46 95 -46 165 0 70 27
165 46 165 5 0 9 -72 9 -165z m390 -10 l0 -95 -165 0 -165 0 0 95 0 95 165 0
165 0 0 -95z"/>
<path d="M1290 889 l0 -271 173 4 c185 4 214 11 250 59 44 60 27 178 -29 199
l-27 11 22 23 c52 55 46 138 -13 195 -44 42 -83 50 -243 51 l-133 0 0 -271z
m271 144 c18 -18 14 -65 -7 -80 -10 -7 -43 -13 -76 -13 l-58 0 0 56 0 56 65
-4 c36 -2 70 -9 76 -15z m7 -209 c14 -10 22 -25 22 -44 0 -43 -34 -62 -107
-58 l-58 3 -3 44 c-2 24 -1 50 2 57 8 20 115 19 144 -2z"/>
<path d="M1930 1147 c-53 -17 -116 -86 -134 -148 -19 -64 -20 -180 -2 -232 33
-92 90 -142 184 -159 126 -23 237 33 279 140 22 59 25 210 4 262 -40 99 -120
150 -231 149 -36 -1 -81 -6 -100 -12z m177 -149 c42 -42 51 -131 22 -209 -19
-51 -102 -75 -159 -46 -80 40 -80 233 0 275 37 19 107 9 137 -20z"/>
<path d="M2420 1133 c-69 -36 -93 -78 -87 -151 3 -43 10 -59 37 -87 36 -37
103 -69 168 -80 63 -10 88 -44 62 -85 -16 -25 -97 -18 -159 15 l-55 27 -34
-37 -34 -37 24 -25 c90 -98 306 -98 367 1 62 99 20 217 -87 245 -155 42 -152
41 -158 68 -5 20 -2 31 16 45 30 25 67 22 119 -8 l45 -25 40 40 40 40 -25 20
c-81 68 -189 81 -279 34z"/>
<path d="M2950 1147 c-57 -18 -135 -103 -154 -166 -69 -236 108 -441 326 -377
39 11 65 26 87 51 17 20 31 39 31 43 0 7 -51 50 -77 66 -7 4 -25 -2 -40 -13
-36 -26 -101 -35 -133 -19 -34 18 -70 92 -70 145 0 128 108 198 186 122 l32
-31 57 38 57 38 -50 47 c-70 65 -161 85 -252 56z"/>
<path d="M3300 870 l0 -270 70 0 70 0 0 110 0 110 85 0 84 0 3 -107 3 -108 68
-3 67 -3 0 133 c0 73 2 195 3 271 l2 137 -72 0 -73 0 0 -100 0 -100 -85 0 -85
0 0 100 0 100 -70 0 -70 0 0 -270z"/>
</g>
</svg>
