<?xml version="1.0" standalone="no"?>
<!DOCTYPE svg PUBLIC "-//W3C//DTD SVG 20010904//EN"
 "http://www.w3.org/TR/2001/REC-SVG-20010904/DTD/svg10.dtd">
<svg version="1.0" xmlns="http://www.w3.org/2000/svg"
 width="1142.000000pt" height="802.000000pt" viewBox="0 0 1142.000000 802.000000"
 preserveAspectRatio="xMidYMid meet">

<g transform="translate(0.000000,802.000000) scale(0.100000,-0.100000)"
fill="#000000" stroke="none">
<path d="M0 4015 l0 -4005 5710 0 5710 0 0 4005 0 4005 -5710 0 -5710 0 0
-4005z m3160 2137 c0 -19 -678 -1487 -686 -1486 -7 1 -641 1471 -644 1492 0 1
299 2 665 2 366 0 665 -4 665 -8z m1163 -969 c4 -537 7 -1382 7 -1878 0 -773
-2 -909 -15 -960 -36 -141 -125 -261 -240 -322 -67 -35 -283 -88 -505 -125
-115 -19 -174 -22 -395 -22 -233 0 -271 2 -365 22 -141 31 -260 72 -372 128
-155 78 -175 95 -220 191 -84 180 -118 449 -110 871 l2 122 358 0 357 0 0
-267 c1 -303 14 -400 76 -534 57 -124 131 -169 277 -169 141 0 258 58 323 159
l29 45 0 1858 0 1858 393 0 394 0 6 -977z m3867 -810 c0 -1151 4 -1810 10
-1850 25 -155 113 -257 256 -299 142 -41 317 34 384 165 46 92 50 126 50 483
l0 338 350 0 350 0 0 -630 0 -630 -1080 0 -1080 0 0 2105 0 2105 380 0 380 0
0 -1787z m-2114 1767 c290 -17 464 -46 621 -102 178 -64 250 -188 283 -487 9
-82 11 -212 7 -465 -9 -482 -21 -706 -40 -742 -21 -39 -75 -88 -175 -159 -45
-32 -81 -60 -79 -61 1 -2 40 -24 87 -50 195 -107 185 -79 204 -564 28 -669 19
-902 -46 -1245 l-21 -110 -66 -66 c-111 -110 -167 -129 -446 -149 -385 -27
-695 -33 -1110 -21 -225 7 -422 15 -437 18 l-28 6 0 2082 0 2082 58 7 c50 5
355 21 557 29 179 7 476 6 631 -3z m-3493 -1575 c84 -22 134 -51 197 -114 280
-281 62 -753 -337 -728 -202 12 -364 162 -396 366 -46 301 238 554 536 476z"/>
<path d="M5570 5020 l0 -680 281 0 281 0 28 28 c58 58 60 84 60 651 -1 462 -3
521 -18 562 -20 53 -38 79 -72 102 -21 15 -57 17 -292 17 l-268 0 0 -680z"/>
<path d="M5598 3923 l-28 -4 0 -803 0 -803 53 -7 c124 -14 314 -2 418 29 68
20 123 50 153 85 l26 32 0 637 0 638 -23 43 c-40 76 -142 129 -289 150 -62 9
-257 11 -310 3z"/>
</g>
</svg>
