<?xml version="1.0" standalone="no"?>
<!DOCTYPE svg PUBLIC "-//W3C//DTD SVG 20010904//EN"
 "http://www.w3.org/TR/2001/REC-SVG-20010904/DTD/svg10.dtd">
<svg version="1.0" xmlns="http://www.w3.org/2000/svg"
 width="800.000000pt" height="800.000000pt" viewBox="0 0 800.000000 800.000000"
 preserveAspectRatio="xMidYMid meet">

<g transform="translate(0.000000,800.000000) scale(0.100000,-0.100000)"
fill="#000000" stroke="none">
<path d="M1015 4853 c-241 -30 -419 -110 -561 -251 -97 -97 -152 -184 -203
-323 -97 -260 -52 -557 120 -790 125 -169 282 -271 501 -324 138 -33 238 -33
366 0 159 40 253 85 355 168 220 180 333 441 313 722 -8 124 -29 205 -81 312
-122 252 -333 413 -610 466 -98 19 -160 25 -200 20z m231 -53 c237 -55 442
-218 549 -435 130 -263 120 -529 -29 -790 -56 -97 -189 -230 -291 -289 -330
-192 -751 -135 -1013 138 -192 200 -277 502 -212 759 95 378 415 633 797 636
80 1 137 -5 199 -19z"/>
<path d="M904 4706 c-255 -66 -431 -218 -522 -451 -44 -114 -56 -184 -48 -296
14 -219 124 -425 290 -543 251 -180 580 -189 831 -23 308 203 412 591 248 927
-39 81 -60 109 -137 186 -78 78 -105 98 -186 137 -52 25 -120 51 -150 57 -86
18 -267 21 -326 6z m182 -63 c9 -27 23 -63 31 -82 17 -44 17 -76 -2 -91 -24
-20 -18 -59 14 -96 31 -35 51 -89 51 -136 0 -33 4 -34 38 -10 15 11 70 43 122
72 52 29 105 59 116 67 20 13 23 11 45 -23 13 -21 19 -39 13 -41 -5 -3 -81
-46 -169 -97 -136 -78 -160 -96 -163 -118 -7 -55 28 -46 204 56 91 53 170 94
174 91 5 -3 15 -19 23 -35 l15 -29 -92 -54 c-50 -29 -117 -68 -149 -86 l-57
-32 47 -32 c38 -25 53 -44 69 -86 25 -61 43 -76 84 -67 25 5 35 -3 94 -71 37
-43 65 -82 63 -88 -5 -12 -24 -11 -127 7 -58 11 -77 18 -85 35 -25 50 -34 54
-105 47 -56 -5 -73 -3 -108 15 -23 11 -44 21 -47 21 -3 0 -5 -76 -5 -170 l0
-170 -45 0 -45 0 -2 203 -3 202 -30 0 -30 0 -3 -202 -2 -203 -40 0 -40 0 0
170 c0 103 -4 170 -10 170 -5 0 -28 -10 -50 -21 -35 -18 -51 -21 -103 -15 -69
7 -107 -9 -107 -44 0 -22 -10 -26 -121 -45 -52 -9 -87 -11 -93 -5 -6 6 9 30
40 66 27 31 56 66 66 77 12 16 26 20 56 19 32 -2 44 2 56 20 9 12 16 30 16 40
0 23 55 85 92 104 16 8 26 19 24 23 -3 5 -68 44 -143 86 -76 43 -140 79 -141
81 -6 4 7 37 22 57 15 19 8 22 251 -117 85 -49 102 -56 122 -47 44 20 28 44
-64 97 -49 28 -125 73 -170 99 -46 26 -83 51 -83 55 0 4 7 21 16 38 l15 32 47
-26 c26 -15 88 -51 138 -80 130 -77 124 -76 124 -12 0 48 5 61 40 108 46 61
47 68 20 98 -11 12 -20 26 -20 32 0 29 64 190 75 190 8 0 21 -21 31 -47z"/>
<path d="M1032 4298 c-7 -7 -12 -40 -12 -79 0 -57 3 -69 19 -74 40 -12 51 3
51 74 0 64 -10 91 -35 91 -6 0 -16 -5 -23 -12z"/>
<path d="M1033 4033 c-50 -34 -7 -102 46 -73 28 14 25 57 -4 76 -17 10 -24 10
-42 -3z"/>
<path d="M846 3920 c-58 -34 -71 -52 -56 -80 15 -27 27 -25 90 13 59 35 72 60
43 82 -23 18 -20 19 -77 -15z"/>
<path d="M1197 3939 c-9 -6 -17 -21 -17 -34 0 -30 105 -93 129 -78 31 20 25
51 -16 76 -67 42 -77 46 -96 36z"/>
<path d="M2075 4693 c3 -10 15 -47 27 -83 36 -118 149 -472 196 -615 l45 -140
1 -284 1 -285 135 1 135 2 5 303 5 303 88 255 c117 338 187 543 187 553 0 4
-49 7 -109 7 -94 0 -110 -2 -116 -17 -4 -10 -45 -130 -92 -268 -47 -137 -89
-254 -93 -258 -4 -5 -12 6 -18 25 -6 18 -26 83 -45 143 -20 61 -47 151 -62
200 -14 50 -33 109 -41 133 l-16 42 -120 0 c-110 0 -120 -1 -113 -17z"/>
<path d="M3076 4608 c-22 -124 -51 -280 -76 -408 -11 -52 -33 -174 -50 -270
-17 -96 -50 -279 -73 -406 l-43 -231 105 -6 c59 -3 109 -2 114 2 5 5 57 302
57 328 0 2 67 3 150 3 147 0 150 0 155 -22 2 -13 12 -72 20 -133 9 -60 19
-126 24 -145 l7 -35 119 3 c66 2 121 4 122 6 1 1 -14 96 -33 211 -19 116 -41
248 -49 295 -32 193 -67 411 -81 495 -8 50 -26 162 -42 250 l-27 160 -191 3
-190 2 -18 -102z m194 -125 c0 -11 38 -249 50 -313 6 -30 17 -100 25 -155 8
-55 17 -115 21 -132 l7 -33 -113 0 -112 0 7 28 c4 15 13 65 21 112 45 281 65
411 71 453 3 26 10 47 14 47 5 0 9 -3 9 -7z"/>
<path d="M3840 3995 l0 -715 58 0 c31 0 81 3 109 6 l53 7 2 531 3 531 27 -135
c15 -74 55 -268 88 -430 33 -162 63 -310 67 -327 l6 -33 102 0 102 0 22 123
c12 67 29 156 36 197 8 41 28 154 44 250 16 96 37 209 45 250 9 41 16 85 16
98 0 12 3 22 8 22 4 0 7 -244 7 -542 l0 -543 25 -4 c14 -1 71 0 128 4 l102 7
0 709 0 709 -199 0 -199 0 -12 -52 c-10 -49 -30 -164 -66 -383 -18 -109 -44
-238 -49 -243 -2 -2 -8 23 -14 55 -7 32 -16 76 -21 98 -5 22 -16 76 -25 120
-25 132 -52 268 -63 310 -6 22 -13 52 -16 68 l-6 27 -190 0 -190 0 0 -715z"/>
<path d="M5266 4663 c-8 -55 -39 -225 -66 -363 -10 -52 -28 -149 -40 -215 -45
-253 -61 -342 -70 -385 -14 -65 -61 -327 -67 -379 l-6 -44 107 5 c58 3 108 7
111 9 2 3 16 72 30 155 14 82 27 155 30 162 3 9 42 12 149 12 143 0 146 0 150
-22 3 -13 15 -86 27 -164 l23 -141 119 -7 c66 -4 122 -5 124 -2 5 4 -20 170
-47 316 -6 30 -14 80 -19 110 -5 30 -18 111 -30 180 -12 69 -34 208 -51 310
-16 102 -41 258 -56 348 l-27 162 -193 0 -192 0 -6 -47z m193 -238 c5 -33 17
-100 25 -150 15 -87 51 -310 62 -387 l6 -38 -107 0 -108 0 7 63 c4 34 11 80
16 102 5 22 23 132 41 245 41 269 41 268 58 165z"/>
<path d="M6020 4001 l0 -708 113 -6 c61 -3 115 -3 120 0 4 2 7 143 7 314 l0
309 140 0 140 0 2 -62 c1 -35 2 -172 2 -305 1 -133 5 -245 9 -250 5 -4 60 -10
123 -12 l114 -3 0 716 0 717 -122 -3 -122 -3 -1 -272 0 -273 -142 0 -143 0 0
275 0 275 -120 0 -120 0 0 -709z"/>
<path d="M7180 4703 c0 -5 -7 -39 -16 -78 -17 -82 -48 -245 -74 -400 -19 -110
-25 -145 -75 -410 -25 -133 -59 -320 -71 -395 -3 -19 -10 -55 -14 -80 -5 -25
-7 -46 -6 -48 2 -1 48 -5 102 -9 78 -4 102 -3 110 8 6 8 18 64 28 124 9 61 22
131 28 158 l10 48 146 -3 146 -3 23 -140 c13 -77 25 -151 26 -165 l2 -24 128
-1 c104 0 126 3 122 14 -3 7 -12 55 -20 105 -21 139 -123 754 -135 816 -6 30
-15 84 -21 120 -36 229 -49 309 -55 338 l-6 32 -189 0 c-104 0 -189 -3 -189
-7z m194 -343 c9 -58 21 -130 26 -160 6 -30 19 -114 30 -187 11 -73 21 -138
22 -145 2 -10 -23 -14 -106 -16 l-109 -3 7 48 c4 26 10 64 12 83 4 31 13 77
29 160 3 14 17 98 32 188 15 90 30 157 34 150 4 -7 14 -60 23 -118z"/>
</g>
</svg>
