<?xml version="1.0" standalone="no"?>
<!DOCTYPE svg PUBLIC "-//W3C//DTD SVG 20010904//EN"
 "http://www.w3.org/TR/2001/REC-SVG-20010904/DTD/svg10.dtd">
<svg version="1.0" xmlns="http://www.w3.org/2000/svg"
 width="1000.000000pt" height="400.000000pt" viewBox="0 0 1000.000000 400.000000"
 preserveAspectRatio="xMidYMid meet">

<g transform="translate(0.000000,400.000000) scale(0.100000,-0.100000)"
fill="#000000" stroke="none">
<path d="M1050 3184 c-271 -56 -260 -53 -260 -85 0 -24 4 -29 26 -29 15 0 38
-12 55 -29 29 -29 29 -30 29 -155 l0 -126 -155 0 -155 0 0 -75 0 -75 155 0
155 0 0 -377 c0 -208 4 -404 10 -436 20 -126 86 -217 189 -266 79 -37 221 -42
302 -12 72 27 91 49 97 111 l5 50 -57 -25 c-108 -48 -195 -26 -240 60 -20 38
-21 56 -24 468 l-3 427 383 0 383 0 -278 -278 -277 -277 0 -66 0 -66 63 -13
c85 -18 228 -73 301 -117 95 -58 196 -165 241 -257 37 -73 39 -82 38 -169 -2
-323 -224 -492 -573 -437 -76 12 -165 53 -181 82 -9 17 -6 24 25 50 112 92 39
268 -112 268 -55 0 -122 -38 -150 -86 -19 -33 -22 -50 -19 -105 10 -159 129
-275 333 -326 52 -13 112 -17 244 -17 200 1 278 16 409 80 236 116 365 421
286 678 -57 188 -252 374 -517 496 l-98 45 290 290 c251 252 290 295 290 321
0 16 -5 35 -12 42 -9 9 -143 12 -540 12 l-528 0 0 219 c0 121 -3 222 -7 224
-5 2 -60 -6 -123 -19z"/>
<path d="M3000 2435 l0 -74 128 -3 127 -3 3 -387 2 -388 85 0 85 0 0 390 0
390 125 0 125 0 0 75 0 75 -340 0 -340 0 0 -75z"/>
<path d="M6740 2045 l0 -465 85 0 85 0 0 465 0 465 -85 0 -85 0 0 -465z"/>
<path d="M8280 2308 l0 -203 -31 33 c-50 53 -102 74 -186 74 -126 0 -206 -53
-262 -172 -21 -46 -26 -70 -26 -145 0 -110 21 -176 75 -238 58 -66 117 -91
215 -91 88 -1 145 21 183 69 27 34 32 32 32 -15 l0 -40 80 0 80 0 0 465 0 465
-80 0 -80 0 0 -202z m-73 -276 c41 -29 66 -84 65 -148 -1 -85 -43 -143 -122
-164 -116 -31 -218 60 -208 186 5 61 26 96 79 132 29 20 44 23 94 20 42 -3 70
-10 92 -26z"/>
<path d="M8580 2420 l0 -90 90 0 90 0 0 90 0 90 -90 0 -90 0 0 -90z"/>
<path d="M3982 2209 c-101 -17 -180 -79 -224 -174 -19 -42 -23 -67 -23 -150 0
-85 4 -107 24 -149 68 -137 228 -204 391 -162 63 16 170 76 170 96 0 5 -17 34
-39 65 -34 48 -40 53 -52 39 -7 -8 -35 -27 -63 -41 -62 -32 -150 -34 -198 -6
-40 23 -78 77 -78 109 l0 24 231 0 230 0 -6 58 c-13 113 -32 161 -88 216 -37
37 -65 55 -97 64 -70 18 -120 21 -178 11z m140 -146 c28 -14 58 -59 58 -88 0
-13 -21 -15 -145 -15 -95 0 -145 4 -145 10 0 18 27 64 49 84 39 35 124 39 183
9z"/>
<path d="M5283 2210 c-101 -15 -197 -82 -245 -172 -20 -37 -23 -58 -23 -148 0
-98 2 -109 29 -158 36 -65 82 -107 156 -141 70 -32 196 -36 277 -8 69 24 145
93 179 163 34 71 39 180 10 262 -48 140 -212 227 -383 202z m140 -164 c102
-42 129 -189 51 -276 -61 -67 -167 -75 -239 -18 -34 27 -65 92 -65 138 0 68
49 140 110 163 29 11 111 7 143 -7z"/>
<path d="M5955 2210 c-98 -14 -153 -64 -163 -145 -12 -112 28 -167 168 -232
105 -49 130 -67 130 -94 0 -48 -122 -50 -225 -4 -32 14 -60 24 -61 22 -2 -2
-17 -32 -33 -68 l-30 -64 37 -17 c68 -32 179 -51 259 -45 130 10 204 64 218
161 16 104 -36 173 -175 231 -77 32 -130 68 -130 87 0 4 7 14 16 22 21 22 79
20 155 -4 35 -10 66 -16 70 -12 11 13 52 123 47 127 -8 9 -124 34 -178 38 -30
3 -78 1 -105 -3z"/>
<path d="M7390 2211 c-48 -10 -78 -27 -122 -69 l-38 -36 0 47 0 48 -77 -3 -78
-3 -3 -307 -2 -308 79 0 79 0 3 188 c4 205 11 230 71 275 37 28 119 27 157 0
41 -31 49 -80 50 -280 l1 -183 81 0 81 0 -4 238 c-4 258 -8 280 -64 336 -49
49 -138 72 -214 57z"/>
<path d="M9099 2210 c-60 -10 -82 -23 -141 -77 -51 -49 -81 -111 -93 -199 -14
-104 32 -245 98 -300 62 -52 107 -68 192 -68 88 -1 125 13 183 67 l32 31 0
-42 0 -42 80 0 80 0 0 310 0 310 -80 0 -80 0 0 -46 0 -45 -34 35 c-54 58 -142
82 -237 66z m189 -170 c125 -76 96 -282 -45 -320 -152 -40 -269 137 -180 272
44 66 156 90 225 48z"/>
<path d="M4430 2125 l0 -75 146 0 145 0 -155 -167 -156 -168 0 -67 0 -68 265
0 265 0 0 70 0 70 -167 2 -166 3 156 170 157 170 0 68 0 67 -245 0 -245 0 0
-75z"/>
<path d="M8590 1890 l0 -310 80 0 80 0 0 310 0 310 -80 0 -80 0 0 -310z"/>
</g>
</svg>
