<svg width="621" height="94" viewBox="0 0 621 94" fill="none" xmlns="http://www.w3.org/2000/svg">
<mask id="path-1-outside-1_400_1258" maskUnits="userSpaceOnUse" x="0" y="0" width="621" height="94" fill="black">
<rect fill="white" width="621" height="94"/>
<path d="M31.408 91C27.568 91 24.496 89.848 22.192 87.544C19.9733 85.24 18.864 82.168 18.864 78.328V39.032H1.456V27.896H18.864V7.032H32.048V27.896H50.864V39.032H32.048V76.024C32.048 78.584 33.2427 79.864 35.632 79.864H48.816V91H31.408ZM58.673 91V27.896H71.601V35.32H73.649C74.673 32.6747 76.2943 30.7547 78.513 29.56C80.817 28.28 83.633 27.64 86.961 27.64H94.513V39.544H86.449C82.1823 39.544 78.6837 40.7387 75.953 43.128C73.2223 45.432 71.857 49.016 71.857 53.88V91H58.673ZM118.327 92.792C113.804 92.792 109.751 92.024 106.167 90.488C102.668 88.952 99.8523 86.6907 97.719 83.704C95.671 80.7173 94.647 77.0907 94.647 72.824C94.647 68.472 95.671 64.888 97.719 62.072C99.8523 59.1707 102.711 56.9947 106.295 55.544C109.964 54.0933 114.103 53.368 118.711 53.368H137.911V49.272C137.911 45.6027 136.802 42.6587 134.583 40.44C132.364 38.2213 128.951 37.112 124.343 37.112C119.82 37.112 116.364 38.1787 113.975 40.312C111.586 42.4453 110.007 45.2187 109.239 48.632L96.951 44.664C97.975 41.2507 99.5963 38.1787 101.815 35.448C104.119 32.632 107.148 30.3707 110.903 28.664C114.658 26.9573 119.18 26.104 124.471 26.104C132.663 26.104 139.106 28.1947 143.799 32.376C148.492 36.5573 150.839 42.488 150.839 50.168V76.152C150.839 78.712 152.034 79.992 154.423 79.992H159.799V91H149.943C146.956 91 144.524 90.232 142.647 88.696C140.77 87.16 139.831 85.0693 139.831 82.424V82.04H137.911C137.228 83.32 136.204 84.8133 134.839 86.52C133.474 88.2267 131.468 89.72 128.823 91C126.178 92.1947 122.679 92.792 118.327 92.792ZM120.247 81.912C125.538 81.912 129.804 80.4187 133.047 77.432C136.29 74.36 137.911 70.1787 137.911 64.888V63.608H119.479C115.98 63.608 113.164 64.376 111.031 65.912C108.898 67.3627 107.831 69.5387 107.831 72.44C107.831 75.3413 108.94 77.6453 111.159 79.352C113.378 81.0587 116.407 81.912 120.247 81.912ZM164.938 91V27.896H177.866V37.368H179.914C181.109 34.808 183.242 32.4187 186.314 30.2C189.386 27.9813 193.951 26.872 200.01 26.872C204.789 26.872 209.013 27.9387 212.682 30.072C216.437 32.2053 219.381 35.2347 221.514 39.16C223.647 43 224.714 47.6507 224.714 53.112V91H211.53V54.136C211.53 48.6747 210.165 44.664 207.434 42.104C204.703 39.4587 200.949 38.136 196.17 38.136C190.709 38.136 186.314 39.928 182.986 43.512C179.743 47.096 178.122 52.3013 178.122 59.128V91H164.938ZM261.864 92.792C253.843 92.792 247.187 91 241.896 87.416C236.605 83.832 233.363 78.4133 232.168 71.16L244.456 68.216C245.139 71.7147 246.291 74.488 247.912 76.536C249.533 78.584 251.539 80.0347 253.928 80.888C256.403 81.7413 259.048 82.168 261.864 82.168C266.045 82.168 269.245 81.3573 271.464 79.736C273.768 78.1147 274.92 76.024 274.92 73.464C274.92 70.904 273.853 69.0267 271.72 67.832C269.587 66.6373 266.429 65.656 262.248 64.888L257.896 64.12C253.629 63.352 249.747 62.2427 246.248 60.792C242.749 59.3413 239.976 57.336 237.928 54.776C235.88 52.216 234.856 48.9307 234.856 44.92C234.856 38.9467 237.075 34.3387 241.512 31.096C245.949 27.768 251.837 26.104 259.176 26.104C266.259 26.104 272.061 27.7253 276.584 30.968C281.192 34.1253 284.179 38.4347 285.544 43.896L273.256 47.352C272.488 43.512 270.867 40.824 268.392 39.288C265.917 37.6667 262.845 36.856 259.176 36.856C255.592 36.856 252.776 37.5387 250.728 38.904C248.68 40.184 247.656 42.0187 247.656 44.408C247.656 46.968 248.637 48.8453 250.6 50.04C252.648 51.2347 255.379 52.1307 258.792 52.728L263.272 53.496C267.795 54.264 271.933 55.3307 275.688 56.696C279.443 58.0613 282.387 60.024 284.52 62.584C286.739 65.144 287.848 68.5573 287.848 72.824C287.848 79.1387 285.501 84.0453 280.808 87.544C276.115 91.0427 269.8 92.792 261.864 92.792ZM305.595 91V39.032H287.931V27.896H305.595V14.072C305.595 10.232 306.747 7.16 309.051 4.856C311.355 2.55199 314.427 1.39999 318.267 1.39999H333.627V12.536H322.491C320.016 12.536 318.779 13.816 318.779 16.376V27.896H347.067V39.032H318.779V91H305.595ZM347.067 91V27.896H360.251V91H347.067ZM353.723 19.704C351.163 19.704 348.987 18.8933 347.195 17.272C345.488 15.5653 344.635 13.3893 344.635 10.744C344.635 8.01333 345.488 5.83733 347.195 4.216C348.987 2.59466 351.163 1.784 353.723 1.784C356.283 1.784 358.416 2.59466 360.123 4.216C361.915 5.83733 362.811 8.01333 362.811 10.744C362.811 13.3893 361.915 15.5653 360.123 17.272C358.416 18.8933 356.283 19.704 353.723 19.704ZM372.023 91V27.896H384.951V37.368H386.999C388.194 34.808 390.327 32.4187 393.399 30.2C396.471 27.9813 401.036 26.872 407.095 26.872C411.874 26.872 416.098 27.9387 419.767 30.072C423.522 32.2053 426.466 35.2347 428.599 39.16C430.732 43 431.799 47.6507 431.799 53.112V91H418.615V54.136C418.615 48.6747 417.25 44.664 414.519 42.104C411.788 39.4587 408.034 38.136 403.255 38.136C397.794 38.136 393.399 39.928 390.071 43.512C386.828 47.096 385.207 52.3013 385.207 59.128V91H372.023ZM443.093 91V27.896H456.277V91H443.093ZM449.749 19.32C447.189 19.32 445.013 18.5093 443.221 16.888C441.514 15.1813 440.661 13.0053 440.661 10.36C440.661 7.71466 441.514 5.58133 443.221 3.96C445.013 2.25333 447.189 1.39999 449.749 1.39999C452.394 1.39999 454.57 2.25333 456.277 3.96C457.984 5.58133 458.837 7.71466 458.837 10.36C458.837 13.0053 457.984 15.1813 456.277 16.888C454.57 18.5093 452.394 19.32 449.749 19.32ZM491.843 91C488.003 91 484.931 89.848 482.627 87.544C480.408 85.24 479.299 82.168 479.299 78.328V39.032H461.891V27.896H479.299V7.032H492.483V27.896H507.331V39.032H492.483V76.024C492.483 78.584 493.678 79.864 496.067 79.864H509.251V91H491.843ZM533.315 91C529.475 91 526.403 89.848 524.099 87.544C521.795 85.24 520.643 82.168 520.643 78.328V39.032H507.331V27.896H520.643V7.032H533.827V27.896H552.771V39.032H533.827V76.024C533.827 78.584 535.064 79.864 537.539 79.864H550.595V91H533.315ZM589.536 92.792C583.136 92.792 577.547 91.4693 572.768 88.824C567.989 86.0933 564.235 82.296 561.504 77.432C558.859 72.4827 557.536 66.7653 557.536 60.28V58.744C557.536 52.1733 558.859 46.456 561.504 41.592C564.149 36.6427 567.819 32.8453 572.512 30.2C577.291 27.4693 582.795 26.104 589.024 26.104C595.083 26.104 600.373 27.4693 604.896 30.2C609.504 32.8453 613.088 36.5573 615.648 41.336C618.208 46.1147 619.488 51.704 619.488 58.104V63.096H570.976C571.147 68.6427 572.981 73.08 576.48 76.408C580.064 79.6507 584.501 81.272 589.792 81.272C594.741 81.272 598.453 80.1627 600.928 77.944C603.488 75.7253 605.451 73.1653 606.816 70.264L617.696 75.896C616.501 78.2853 614.752 80.8027 612.448 83.448C610.229 86.0933 607.285 88.312 603.616 90.104C599.947 91.896 595.253 92.792 589.536 92.792ZM571.104 52.984H606.048C605.707 48.2053 604 44.4933 600.928 41.848C597.856 39.1173 593.845 37.752 588.896 37.752C583.947 37.752 579.893 39.1173 576.736 41.848C573.664 44.4933 571.787 48.2053 571.104 52.984Z"/>
</mask>
<path d="M22.192 87.544L21.4717 88.2376L21.4782 88.2444L21.4849 88.2511L22.192 87.544ZM18.864 39.032H19.864V38.032H18.864V39.032ZM1.456 39.032H0.456V40.032H1.456V39.032ZM1.456 27.896V26.896H0.456V27.896H1.456ZM18.864 27.896V28.896H19.864V27.896H18.864ZM18.864 7.032V6.032H17.864V7.032H18.864ZM32.048 7.032H33.048V6.032H32.048V7.032ZM32.048 27.896H31.048V28.896H32.048V27.896ZM50.864 27.896H51.864V26.896H50.864V27.896ZM50.864 39.032V40.032H51.864V39.032H50.864ZM32.048 39.032V38.032H31.048V39.032H32.048ZM48.816 79.864H49.816V78.864H48.816V79.864ZM48.816 91V92H49.816V91H48.816ZM31.408 91V90C27.7823 90 24.9824 88.9202 22.8991 86.8369L22.192 87.544L21.4849 88.2511C24.0096 90.7758 27.3537 92 31.408 92V91ZM22.192 87.544L22.9123 86.8504C20.908 84.769 19.864 81.9645 19.864 78.328H18.864H17.864C17.864 82.3715 19.0386 85.711 21.4717 88.2376L22.192 87.544ZM18.864 78.328H19.864V39.032H18.864H17.864V78.328H18.864ZM18.864 39.032V38.032H1.456V39.032V40.032H18.864V39.032ZM1.456 39.032H2.456V27.896H1.456H0.456V39.032H1.456ZM1.456 27.896V28.896H18.864V27.896V26.896H1.456V27.896ZM18.864 27.896H19.864V7.032H18.864H17.864V27.896H18.864ZM18.864 7.032V8.032H32.048V7.032V6.032H18.864V7.032ZM32.048 7.032H31.048V27.896H32.048H33.048V7.032H32.048ZM32.048 27.896V28.896H50.864V27.896V26.896H32.048V27.896ZM50.864 27.896H49.864V39.032H50.864H51.864V27.896H50.864ZM50.864 39.032V38.032H32.048V39.032V40.032H50.864V39.032ZM32.048 39.032H31.048V76.024H32.048H33.048V39.032H32.048ZM32.048 76.024H31.048C31.048 77.4416 31.3774 78.6911 32.2129 79.5863C33.0606 80.4945 34.2648 80.864 35.632 80.864V79.864V78.864C34.6098 78.864 34.022 78.5935 33.6751 78.2217C33.3159 77.8369 33.048 77.1664 33.048 76.024H32.048ZM35.632 79.864V80.864H48.816V79.864V78.864H35.632V79.864ZM48.816 79.864H47.816V91H48.816H49.816V79.864H48.816ZM48.816 91V90H31.408V91V92H48.816V91ZM58.673 91H57.673V92H58.673V91ZM58.673 27.896V26.896H57.673V27.896H58.673ZM71.601 27.896H72.601V26.896H71.601V27.896ZM71.601 35.32H70.601V36.32H71.601V35.32ZM73.649 35.32V36.32H74.3342L74.5816 35.681L73.649 35.32ZM78.513 29.56L78.9871 30.4405L78.9986 30.4342L78.513 29.56ZM94.513 27.64H95.513V26.64H94.513V27.64ZM94.513 39.544V40.544H95.513V39.544H94.513ZM75.953 43.128L76.5979 43.8923L76.6047 43.8865L76.6115 43.8806L75.953 43.128ZM71.857 91V92H72.857V91H71.857ZM58.673 91H59.673V27.896H58.673H57.673V91H58.673ZM58.673 27.896V28.896H71.601V27.896V26.896H58.673V27.896ZM71.601 27.896H70.601V35.32H71.601H72.601V27.896H71.601ZM71.601 35.32V36.32H73.649V35.32V34.32H71.601V35.32ZM73.649 35.32L74.5816 35.681C75.5311 33.2281 77.0048 31.5079 78.9871 30.4405L78.513 29.56L78.0389 28.6795C75.5839 30.0015 73.8149 32.1212 72.7164 34.959L73.649 35.32ZM78.513 29.56L78.9986 30.4342C81.12 29.2556 83.7591 28.64 86.961 28.64V27.64V26.64C83.5069 26.64 80.514 27.3044 78.0274 28.6858L78.513 29.56ZM86.961 27.64V28.64H94.513V27.64V26.64H86.961V27.64ZM94.513 27.64H93.513V39.544H94.513H95.513V27.64H94.513ZM94.513 39.544V38.544H86.449V39.544V40.544H94.513V39.544ZM86.449 39.544V38.544C81.9851 38.544 78.2387 39.7993 75.2945 42.3754L75.953 43.128L76.6115 43.8806C79.1287 41.6781 82.3796 40.544 86.449 40.544V39.544ZM75.953 43.128L75.3081 42.3637C72.2787 44.9198 70.857 48.8336 70.857 53.88H71.857H72.857C72.857 49.1984 74.166 45.9442 76.5979 43.8923L75.953 43.128ZM71.857 53.88H70.857V91H71.857H72.857V53.88H71.857ZM71.857 91V90H58.673V91V92H71.857V91ZM106.167 90.488L105.765 91.4037L105.773 91.4071L106.167 90.488ZM97.719 83.704L96.8943 84.2695L96.8997 84.2774L96.9053 84.2852L97.719 83.704ZM97.719 62.072L96.9133 61.4796L96.9103 61.4838L97.719 62.072ZM106.295 55.544L105.927 54.614L105.92 54.6171L106.295 55.544ZM137.911 53.368V54.368H138.911V53.368H137.911ZM134.583 40.44L133.876 41.1471L134.583 40.44ZM109.239 48.632L108.932 49.5836L109.974 49.9202L110.215 48.8515L109.239 48.632ZM96.951 44.664L95.9932 44.3766L95.7118 45.3147L96.6437 45.6156L96.951 44.664ZM101.815 35.448L101.041 34.8148L101.039 34.8174L101.815 35.448ZM110.903 28.664L111.317 29.5744L110.903 28.664ZM143.799 32.376L144.464 31.6293L143.799 32.376ZM159.799 79.992H160.799V78.992H159.799V79.992ZM159.799 91V92H160.799V91H159.799ZM142.647 88.696L143.28 87.922L142.647 88.696ZM139.831 82.04H140.831V81.04H139.831V82.04ZM137.911 82.04V81.04H137.311L137.029 81.5694L137.911 82.04ZM134.839 86.52L135.62 87.1447L134.839 86.52ZM128.823 91L129.235 91.9114L129.247 91.9059L129.259 91.9002L128.823 91ZM133.047 77.432L133.725 78.1676L133.735 78.158L133.047 77.432ZM137.911 63.608H138.911V62.608H137.911V63.608ZM111.031 65.912L111.593 66.7389L111.604 66.7314L111.615 66.7235L111.031 65.912ZM118.327 92.792V91.792C113.918 91.792 110.002 91.0437 106.561 89.5689L106.167 90.488L105.773 91.4071C109.5 93.0043 113.69 93.792 118.327 93.792V92.792ZM106.167 90.488L106.569 89.5724C103.228 88.1056 100.557 85.9568 98.5327 83.1228L97.719 83.704L96.9053 84.2852C99.1476 87.4246 102.109 89.7984 105.765 91.4036L106.167 90.488ZM97.719 83.704L98.5437 83.1385C96.6291 80.3463 95.647 76.9256 95.647 72.824H94.647H93.647C93.647 77.2557 94.7129 81.0884 96.8943 84.2695L97.719 83.704ZM94.647 72.824H95.647C95.647 68.6299 96.6321 65.2666 98.5277 62.6602L97.719 62.072L96.9103 61.4838C94.7098 64.5094 93.647 68.3141 93.647 72.824H94.647ZM97.719 62.072L98.5247 62.6644C100.54 59.9233 103.245 57.8574 106.67 56.4709L106.295 55.544L105.92 54.6171C102.177 56.1319 99.1645 58.418 96.9133 61.4796L97.719 62.072ZM106.295 55.544L106.663 56.474C110.197 55.0766 114.208 54.368 118.711 54.368V53.368V52.368C113.998 52.368 109.732 53.11 105.927 54.614L106.295 55.544ZM118.711 53.368V54.368H137.911V53.368V52.368H118.711V53.368ZM137.911 53.368H138.911V49.272H137.911H136.911V53.368H137.911ZM137.911 49.272H138.911C138.911 45.3859 137.728 42.1708 135.29 39.7329L134.583 40.44L133.876 41.1471C135.875 43.1465 136.911 45.8194 136.911 49.272H137.911ZM134.583 40.44L135.29 39.7329C132.811 37.2543 129.092 36.112 124.343 36.112V37.112V38.112C128.81 38.112 131.917 39.1884 133.876 41.1471L134.583 40.44ZM124.343 37.112V36.112C119.675 36.112 115.945 37.2126 113.309 39.5661L113.975 40.312L114.641 41.0579C116.784 39.1447 119.965 38.112 124.343 38.112V37.112ZM113.975 40.312L113.309 39.5661C110.75 41.8512 109.073 44.8154 108.263 48.4125L109.239 48.632L110.215 48.8515C110.941 45.6219 112.422 43.0395 114.641 41.0579L113.975 40.312ZM109.239 48.632L109.546 47.6804L97.2583 43.7124L96.951 44.664L96.6437 45.6156L108.932 49.5836L109.239 48.632ZM96.951 44.664L97.9088 44.9513C98.8958 41.6616 100.456 38.7065 102.591 36.0786L101.815 35.448L101.039 34.8174C98.7367 37.6508 97.0542 40.8398 95.9932 44.3766L96.951 44.664ZM101.815 35.448L102.589 36.0812C104.784 33.399 107.683 31.2261 111.317 29.5744L110.903 28.664L110.489 27.7536C106.614 29.5153 103.454 31.865 101.041 34.8148L101.815 35.448ZM110.903 28.664L111.317 29.5744C114.91 27.941 119.284 27.104 124.471 27.104V26.104V25.104C119.076 25.104 114.405 25.9737 110.489 27.7536L110.903 28.664ZM124.471 26.104V27.104C132.494 27.104 138.673 29.1489 143.134 33.1227L143.799 32.376L144.464 31.6293C139.538 27.2404 132.832 25.104 124.471 25.104V26.104ZM143.799 32.376L143.134 33.1227C147.568 37.0729 149.839 42.7046 149.839 50.168H150.839H151.839C151.839 42.2714 149.417 36.0417 144.464 31.6293L143.799 32.376ZM150.839 50.168H149.839V76.152H150.839H151.839V50.168H150.839ZM150.839 76.152H149.839C149.839 77.5696 150.168 78.8191 151.004 79.7143C151.852 80.6225 153.056 80.992 154.423 80.992V79.992V78.992C153.401 78.992 152.813 78.7215 152.466 78.3497C152.107 77.9649 151.839 77.2943 151.839 76.152H150.839ZM154.423 79.992V80.992H159.799V79.992V78.992H154.423V79.992ZM159.799 79.992H158.799V91H159.799H160.799V79.992H159.799ZM159.799 91V90H149.943V91V92H159.799V91ZM149.943 91V90C147.132 90 144.94 89.2804 143.28 87.922L142.647 88.696L142.014 89.47C144.108 91.1836 146.781 92 149.943 92V91ZM142.647 88.696L143.28 87.922C141.658 86.5947 140.831 84.8003 140.831 82.424H139.831H138.831C138.831 85.3383 139.881 87.7253 142.014 89.47L142.647 88.696ZM139.831 82.424H140.831V82.04H139.831H138.831V82.424H139.831ZM139.831 82.04V81.04H137.911V82.04V83.04H139.831V82.04ZM137.911 82.04L137.029 81.5694C136.386 82.7751 135.402 84.2152 134.058 85.8953L134.839 86.52L135.62 87.1447C137.006 85.4115 138.071 83.8649 138.793 82.5106L137.911 82.04ZM134.839 86.52L134.058 85.8953C132.812 87.4527 130.943 88.8635 128.387 90.0998L128.823 91L129.259 91.9002C131.994 90.5765 134.135 89.0007 135.62 87.1447L134.839 86.52ZM128.823 91L128.411 90.0886C125.944 91.2032 122.602 91.792 118.327 91.792V92.792V93.792C122.756 93.792 126.412 93.1862 129.235 91.9114L128.823 91ZM120.247 81.912V82.912C125.736 82.912 130.262 81.3571 133.724 78.1675L133.047 77.432L132.37 76.6965C129.347 79.4802 125.34 80.912 120.247 80.912V81.912ZM133.047 77.432L133.735 78.158C137.213 74.8624 138.911 70.3984 138.911 64.888H137.911H136.911C136.911 69.959 135.366 73.8576 132.359 76.706L133.047 77.432ZM137.911 64.888H138.911V63.608H137.911H136.911V64.888H137.911ZM137.911 63.608V62.608H119.479V63.608V64.608H137.911V63.608ZM119.479 63.608V62.608C115.839 62.608 112.799 63.4071 110.447 65.1005L111.031 65.912L111.615 66.7235C113.53 65.3449 116.121 64.608 119.479 64.608V63.608ZM111.031 65.912L110.469 65.0851C108.024 66.7475 106.831 69.2557 106.831 72.44H107.831H108.831C108.831 69.8216 109.771 67.9779 111.593 66.7389L111.031 65.912ZM107.831 72.44H106.831C106.831 75.6386 108.074 78.2407 110.549 80.1446L111.159 79.352L111.769 78.5594C109.806 77.0499 108.831 75.0441 108.831 72.44H107.831ZM111.159 79.352L110.549 80.1446C112.998 82.0279 116.267 82.912 120.247 82.912V81.912V80.912C116.547 80.912 113.758 80.0894 111.769 78.5594L111.159 79.352ZM164.938 91H163.938V92H164.938V91ZM164.938 27.896V26.896H163.938V27.896H164.938ZM177.866 27.896H178.866V26.896H177.866V27.896ZM177.866 37.368H176.866V38.368H177.866V37.368ZM179.914 37.368V38.368H180.551L180.82 37.7909L179.914 37.368ZM186.314 30.2L186.9 31.0107L186.314 30.2ZM212.682 30.072L212.179 30.9365L212.188 30.9415L212.682 30.072ZM221.514 39.16L220.635 39.6375L220.64 39.6456L221.514 39.16ZM224.714 91V92H225.714V91H224.714ZM211.53 91H210.53V92H211.53V91ZM207.434 42.104L206.738 42.8222L206.744 42.8279L206.75 42.8335L207.434 42.104ZM182.986 43.512L182.253 42.8315L182.244 42.8411L182.986 43.512ZM178.122 91V92H179.122V91H178.122ZM164.938 91H165.938V27.896H164.938H163.938V91H164.938ZM164.938 27.896V28.896H177.866V27.896V26.896H164.938V27.896ZM177.866 27.896H176.866V37.368H177.866H178.866V27.896H177.866ZM177.866 37.368V38.368H179.914V37.368V36.368H177.866V37.368ZM179.914 37.368L180.82 37.7909C181.922 35.4292 183.92 33.1623 186.9 31.0107L186.314 30.2L185.729 29.3893C182.564 31.675 180.295 34.1868 179.008 36.9451L179.914 37.368ZM186.314 30.2L186.9 31.0107C189.726 28.969 194.045 27.872 200.01 27.872V26.872V25.872C193.857 25.872 189.046 26.9936 185.729 29.3893L186.314 30.2ZM200.01 26.872V27.872C204.635 27.872 208.681 28.9027 212.179 30.9365L212.682 30.072L213.185 29.2075C209.344 26.9747 204.943 25.872 200.01 25.872V26.872ZM212.682 30.072L212.188 30.9415C215.775 32.9793 218.588 35.8702 220.635 39.6375L221.514 39.16L222.393 38.6825C220.173 34.5991 217.099 31.4314 213.176 29.2025L212.682 30.072ZM221.514 39.16L220.64 39.6456C222.673 43.3051 223.714 47.7798 223.714 53.112H224.714H225.714C225.714 47.5215 224.622 42.6949 222.388 38.6744L221.514 39.16ZM224.714 53.112H223.714V91H224.714H225.714V53.112H224.714ZM224.714 91V90H211.53V91V92H224.714V91ZM211.53 91H212.53V54.136H211.53H210.53V91H211.53ZM211.53 54.136H212.53C212.53 48.5263 211.128 44.1962 208.118 41.3745L207.434 42.104L206.75 42.8335C209.202 45.1318 210.53 48.823 210.53 54.136H211.53ZM207.434 42.104L208.13 41.3858C205.168 38.5162 201.138 37.136 196.17 37.136V38.136V39.136C200.759 39.136 204.239 40.4011 206.738 42.8222L207.434 42.104ZM196.17 38.136V37.136C190.467 37.136 185.794 39.0189 182.253 42.8315L182.986 43.512L183.719 44.1924C186.834 40.8371 190.951 39.136 196.17 39.136V38.136ZM182.986 43.512L182.244 42.8411C178.778 46.6726 177.122 52.1553 177.122 59.128H178.122H179.122C179.122 52.4474 180.709 47.5194 183.728 44.1829L182.986 43.512ZM178.122 59.128H177.122V91H178.122H179.122V59.128H178.122ZM178.122 91V90H164.938V91V92H178.122V91ZM241.896 87.416L242.457 86.5881L241.896 87.416ZM232.168 71.16L231.935 70.1875L231.03 70.4043L231.181 71.3225L232.168 71.16ZM244.456 68.216L245.437 68.0245L245.238 67.0004L244.223 67.2435L244.456 68.216ZM247.912 76.536L248.696 75.9153L247.912 76.536ZM253.928 80.888L253.592 81.8298L253.602 81.8334L253.928 80.888ZM271.464 79.736L270.889 78.9182L270.881 78.9233L270.874 78.9286L271.464 79.736ZM262.248 64.888L262.429 63.9044L262.422 63.9032L262.248 64.888ZM257.896 64.12L257.719 65.1042L257.722 65.1048L257.896 64.12ZM246.248 60.792L245.865 61.7157L246.248 60.792ZM237.928 54.776L238.709 54.1513L237.928 54.776ZM241.512 31.096L242.102 31.9035L242.112 31.896L241.512 31.096ZM276.584 30.968L276.001 31.7807L276.01 31.7869L276.019 31.7929L276.584 30.968ZM285.544 43.896L285.815 44.8586L286.75 44.5957L286.514 43.6535L285.544 43.896ZM273.256 47.352L272.275 47.5481L272.487 48.607L273.527 48.3146L273.256 47.352ZM268.392 39.288L267.844 40.1245L267.854 40.1312L267.865 40.1376L268.392 39.288ZM250.728 38.904L251.258 39.752L251.27 39.7442L251.283 39.736L250.728 38.904ZM250.6 50.04L250.08 50.8942L250.088 50.8991L250.096 50.9038L250.6 50.04ZM258.792 52.728L258.62 53.713L258.623 53.7136L258.792 52.728ZM263.272 53.496L263.103 54.4816L263.105 54.4819L263.272 53.496ZM284.52 62.584L283.752 63.2242L283.758 63.2316L283.764 63.2389L284.52 62.584ZM280.808 87.544L281.406 88.3457L280.808 87.544ZM261.864 92.792V91.792C253.991 91.792 247.544 90.0343 242.457 86.5881L241.896 87.416L241.335 88.2439C246.829 91.9657 253.694 93.792 261.864 93.792V92.792ZM241.896 87.416L242.457 86.5881C237.428 83.1816 234.312 78.0245 233.155 70.9975L232.168 71.16L231.181 71.3225C232.413 78.8022 235.782 84.4824 241.335 88.2439L241.896 87.416ZM232.168 71.16L232.401 72.1325L244.689 69.1885L244.456 68.216L244.223 67.2435L231.935 70.1875L232.168 71.16ZM244.456 68.216L243.475 68.4075C244.177 72.0086 245.378 74.9463 247.128 77.1567L247.912 76.536L248.696 75.9153C247.203 74.0297 246.1 71.4207 245.437 68.0245L244.456 68.216ZM247.912 76.536L247.128 77.1567C248.862 79.347 251.021 80.9115 253.592 81.8297L253.928 80.888L254.264 79.9463C252.057 79.1578 250.205 77.821 248.696 75.9153L247.912 76.536ZM253.928 80.888L253.602 81.8334C256.189 82.7255 258.945 83.168 261.864 83.168V82.168V81.168C259.151 81.168 256.616 80.7571 254.254 79.9426L253.928 80.888ZM261.864 82.168V83.168C266.153 83.168 269.596 82.3399 272.054 80.5434L271.464 79.736L270.874 78.9286C268.895 80.3748 265.937 81.168 261.864 81.168V82.168ZM271.464 79.736L272.039 80.5538C274.578 78.7672 275.92 76.3858 275.92 73.464H274.92H273.92C273.92 75.6622 272.958 77.4622 270.889 78.9182L271.464 79.736ZM274.92 73.464H275.92C275.92 70.5631 274.676 68.3411 272.209 66.9595L271.72 67.832L271.231 68.7045C273.031 69.7123 273.92 71.2449 273.92 73.464H274.92ZM271.72 67.832L272.209 66.9595C269.934 65.6856 266.651 64.6799 262.429 63.9045L262.248 64.888L262.067 65.8715C266.208 66.6321 269.24 67.5891 271.231 68.7045L271.72 67.832ZM262.248 64.888L262.422 63.9032L258.07 63.1352L257.896 64.12L257.722 65.1048L262.074 65.8728L262.248 64.888ZM257.896 64.12L258.073 63.1358C253.867 62.3787 250.055 61.2878 246.631 59.8683L246.248 60.792L245.865 61.7157C249.439 63.1975 253.392 64.3253 257.719 65.1042L257.896 64.12ZM246.248 60.792L246.631 59.8683C243.264 58.472 240.636 56.5605 238.709 54.1513L237.928 54.776L237.147 55.4007C239.316 58.1115 242.235 60.2106 245.865 61.7157L246.248 60.792ZM237.928 54.776L238.709 54.1513C236.832 51.8055 235.856 48.7559 235.856 44.92H234.856H233.856C233.856 49.1055 234.928 52.6265 237.147 55.4007L237.928 54.776ZM234.856 44.92H235.856C235.856 39.2335 237.947 34.9395 242.102 31.9034L241.512 31.096L240.922 30.2886C236.202 33.7378 233.856 38.6598 233.856 44.92H234.856ZM241.512 31.096L242.112 31.896C246.328 28.7342 251.984 27.104 259.176 27.104V26.104V25.104C251.691 25.104 245.571 26.8018 240.912 30.296L241.512 31.096ZM259.176 26.104V27.104C266.107 27.104 271.69 28.6894 276.001 31.7807L276.584 30.968L277.167 30.1553C272.433 26.7613 266.41 25.104 259.176 25.104V26.104ZM276.584 30.968L276.019 31.7929C280.423 34.8109 283.267 38.9122 284.574 44.1385L285.544 43.896L286.514 43.6535C285.09 37.9571 281.961 33.4397 277.149 30.1431L276.584 30.968ZM285.544 43.896L285.273 42.9333L272.985 46.3893L273.256 47.352L273.527 48.3146L285.815 44.8586L285.544 43.896ZM273.256 47.352L274.237 47.1559C273.434 43.142 271.702 40.1653 268.919 38.4384L268.392 39.288L267.865 40.1376C270.032 41.4827 271.542 43.882 272.275 47.5481L273.256 47.352ZM268.392 39.288L268.94 38.4515C266.267 36.7004 262.993 35.856 259.176 35.856V36.856V37.856C262.698 37.856 265.567 38.6329 267.844 40.1245L268.392 39.288ZM259.176 36.856V35.856C255.48 35.856 252.445 36.5578 250.173 38.0719L250.728 38.904L251.283 39.736C253.107 38.5196 255.704 37.856 259.176 37.856V36.856ZM250.728 38.904L250.198 38.056C247.861 39.5163 246.656 41.6694 246.656 44.408H247.656H248.656C248.656 42.368 249.499 40.8517 251.258 39.752L250.728 38.904ZM247.656 44.408H246.656C246.656 47.2693 247.781 49.4946 250.08 50.8942L250.6 50.04L251.12 49.1858C249.494 48.1961 248.656 46.6667 248.656 44.408H247.656ZM250.6 50.04L250.096 50.9038C252.282 52.179 255.139 53.1038 258.62 53.713L258.792 52.728L258.964 51.743C255.619 51.1575 253.014 50.2903 251.104 49.1762L250.6 50.04ZM258.792 52.728L258.623 53.7136L263.103 54.4816L263.272 53.496L263.441 52.5104L258.961 51.7424L258.792 52.728ZM263.272 53.496L263.105 54.4819C267.576 55.2412 271.656 56.2938 275.346 57.6358L275.688 56.696L276.03 55.7562C272.211 54.3675 268.013 53.2867 263.439 52.5101L263.272 53.496ZM275.688 56.696L275.346 57.6358C278.968 58.9528 281.752 60.8247 283.752 63.2242L284.52 62.584L285.288 61.9438C283.021 59.2233 279.917 57.1699 276.03 55.7562L275.688 56.696ZM284.52 62.584L283.764 63.2389C285.788 65.5737 286.848 68.7335 286.848 72.824H287.848H288.848C288.848 68.3811 287.69 64.7143 285.276 61.9291L284.52 62.584ZM287.848 72.824H286.848C286.848 78.8518 284.628 83.4489 280.21 86.7423L280.808 87.544L281.406 88.3457C286.374 84.6417 288.848 79.4256 288.848 72.824H287.848ZM280.808 87.544L280.21 86.7423C275.742 90.0734 269.66 91.792 261.864 91.792V92.792V93.792C269.94 93.792 276.488 92.012 281.406 88.3457L280.808 87.544ZM305.595 91H304.595V92H305.595V91ZM305.595 39.032H306.595V38.032H305.595V39.032ZM287.931 39.032H286.931V40.032H287.931V39.032ZM287.931 27.896V26.896H286.931V27.896H287.931ZM305.595 27.896V28.896H306.595V27.896H305.595ZM309.051 4.856L308.344 4.14889V4.14889L309.051 4.856ZM333.627 1.39999H334.627V0.399994H333.627V1.39999ZM333.627 12.536V13.536H334.627V12.536H333.627ZM318.779 27.896H317.779V28.896H318.779V27.896ZM347.067 27.896H348.067V26.896H347.067V27.896ZM347.067 39.032V40.032H348.067V39.032H347.067ZM318.779 39.032V38.032H317.779V39.032H318.779ZM318.779 91V92H319.779V91H318.779ZM347.067 91H346.067V92H347.067V91ZM347.067 27.896V26.896H346.067V27.896H347.067ZM360.251 27.896H361.251V26.896H360.251V27.896ZM360.251 91V92H361.251V91H360.251ZM347.195 17.272L346.488 17.9791L346.506 17.9968L346.524 18.0135L347.195 17.272ZM347.195 4.216L346.524 3.47446L346.515 3.48262L346.506 3.491L347.195 4.216ZM360.123 4.216L359.434 4.94099L359.443 4.94937L359.452 4.95753L360.123 4.216ZM360.123 17.272L360.812 17.997L360.813 17.9961L360.123 17.272ZM305.595 91H306.595V39.032H305.595H304.595V91H305.595ZM305.595 39.032V38.032H287.931V39.032V40.032H305.595V39.032ZM287.931 39.032H288.931V27.896H287.931H286.931V39.032H287.931ZM287.931 27.896V28.896H305.595V27.896V26.896H287.931V27.896ZM305.595 27.896H306.595V14.072H305.595H304.595V27.896H305.595ZM305.595 14.072H306.595C306.595 10.4463 307.675 7.64637 309.758 5.5631L309.051 4.856L308.344 4.14889C305.819 6.67362 304.595 10.0177 304.595 14.072H305.595ZM309.051 4.856L309.758 5.5631C311.841 3.47984 314.641 2.39999 318.267 2.39999V1.39999V0.399994C314.213 0.399994 310.869 1.62415 308.344 4.14889L309.051 4.856ZM318.267 1.39999V2.39999H333.627V1.39999V0.399994H318.267V1.39999ZM333.627 1.39999H332.627V12.536H333.627H334.627V1.39999H333.627ZM333.627 12.536V11.536H322.491V12.536V13.536H333.627V12.536ZM322.491 12.536V11.536C321.091 11.536 319.859 11.9 318.988 12.801C318.123 13.6956 317.779 14.9502 317.779 16.376H318.779H319.779C319.779 15.2418 320.053 14.5764 320.426 14.191C320.792 13.812 321.417 13.536 322.491 13.536V12.536ZM318.779 16.376H317.779V27.896H318.779H319.779V16.376H318.779ZM318.779 27.896V28.896H347.067V27.896V26.896H318.779V27.896ZM347.067 27.896H346.067V39.032H347.067H348.067V27.896H347.067ZM347.067 39.032V38.032H318.779V39.032V40.032H347.067V39.032ZM318.779 39.032H317.779V91H318.779H319.779V39.032H318.779ZM318.779 91V90H305.595V91V92H318.779V91ZM347.067 91H348.067V27.896H347.067H346.067V91H347.067ZM347.067 27.896V28.896H360.251V27.896V26.896H347.067V27.896ZM360.251 27.896H359.251V91H360.251H361.251V27.896H360.251ZM360.251 91V90H347.067V91V92H360.251V91ZM353.723 19.704V18.704C351.395 18.704 349.462 17.975 347.866 16.5305L347.195 17.272L346.524 18.0135C348.512 19.8117 350.931 20.704 353.723 20.704V19.704ZM347.195 17.272L347.902 16.5649C346.402 15.0647 345.635 13.1521 345.635 10.744H344.635H343.635C343.635 13.6265 344.575 16.066 346.488 17.9791L347.195 17.272ZM344.635 10.744H345.635C345.635 8.23961 346.408 6.34295 347.884 4.94099L347.195 4.216L346.506 3.491C344.569 5.33171 343.635 7.78705 343.635 10.744H344.635ZM347.195 4.216L347.866 4.95753C349.462 3.51304 351.395 2.784 353.723 2.784V1.784V0.783997C350.931 0.783997 348.512 1.67629 346.524 3.47446L347.195 4.216ZM353.723 1.784V2.784C356.051 2.784 357.931 3.51242 359.434 4.94099L360.123 4.216L360.812 3.491C358.902 1.67691 356.515 0.783997 353.723 0.783997V1.784ZM360.123 4.216L359.452 4.95753C361.006 6.3636 361.811 8.25521 361.811 10.744H362.811H363.811C363.811 7.77145 362.824 5.31106 360.794 3.47446L360.123 4.216ZM362.811 10.744H361.811C361.811 13.1367 361.012 15.044 359.433 16.5479L360.123 17.272L360.813 17.9961C362.818 16.0867 363.811 13.6419 363.811 10.744H362.811ZM360.123 17.272L359.434 16.547C357.931 17.9756 356.051 18.704 353.723 18.704V19.704V20.704C356.515 20.704 358.902 19.8111 360.812 17.997L360.123 17.272ZM372.023 91H371.023V92H372.023V91ZM372.023 27.896V26.896H371.023V27.896H372.023ZM384.951 27.896H385.951V26.896H384.951V27.896ZM384.951 37.368H383.951V38.368H384.951V37.368ZM386.999 37.368V38.368H387.636L387.905 37.7909L386.999 37.368ZM393.399 30.2L393.984 31.0107L393.399 30.2ZM419.767 30.072L419.264 30.9365L419.273 30.9415L419.767 30.072ZM428.599 39.16L427.72 39.6375L427.725 39.6456L428.599 39.16ZM431.799 91V92H432.799V91H431.799ZM418.615 91H417.615V92H418.615V91ZM414.519 42.104L413.823 42.8222L413.829 42.8279L413.835 42.8335L414.519 42.104ZM390.071 43.512L389.338 42.8315L389.329 42.8411L390.071 43.512ZM385.207 91V92H386.207V91H385.207ZM372.023 91H373.023V27.896H372.023H371.023V91H372.023ZM372.023 27.896V28.896H384.951V27.896V26.896H372.023V27.896ZM384.951 27.896H383.951V37.368H384.951H385.951V27.896H384.951ZM384.951 37.368V38.368H386.999V37.368V36.368H384.951V37.368ZM386.999 37.368L387.905 37.7909C389.007 35.4292 391.005 33.1623 393.984 31.0107L393.399 30.2L392.814 29.3893C389.649 31.675 387.38 34.1868 386.093 36.9451L386.999 37.368ZM393.399 30.2L393.984 31.0107C396.811 28.969 401.13 27.872 407.095 27.872V26.872V25.872C400.942 25.872 396.131 26.9936 392.814 29.3893L393.399 30.2ZM407.095 26.872V27.872C411.72 27.872 415.766 28.9027 419.264 30.9365L419.767 30.072L420.27 29.2075C416.429 26.9747 412.028 25.872 407.095 25.872V26.872ZM419.767 30.072L419.273 30.9415C422.86 32.9793 425.673 35.8702 427.72 39.6375L428.599 39.16L429.478 38.6825C427.258 34.5991 424.184 31.4314 420.261 29.2025L419.767 30.072ZM428.599 39.16L427.725 39.6456C429.758 43.3051 430.799 47.7798 430.799 53.112H431.799H432.799C432.799 47.5215 431.707 42.6949 429.473 38.6744L428.599 39.16ZM431.799 53.112H430.799V91H431.799H432.799V53.112H431.799ZM431.799 91V90H418.615V91V92H431.799V91ZM418.615 91H419.615V54.136H418.615H417.615V91H418.615ZM418.615 54.136H419.615C419.615 48.5263 418.213 44.1962 415.203 41.3745L414.519 42.104L413.835 42.8335C416.287 45.1318 417.615 48.823 417.615 54.136H418.615ZM414.519 42.104L415.215 41.3858C412.253 38.5162 408.223 37.136 403.255 37.136V38.136V39.136C407.844 39.136 411.324 40.4011 413.823 42.8222L414.519 42.104ZM403.255 38.136V37.136C397.552 37.136 392.879 39.0189 389.338 42.8315L390.071 43.512L390.804 44.1924C393.919 40.8371 398.036 39.136 403.255 39.136V38.136ZM390.071 43.512L389.329 42.8411C385.863 46.6726 384.207 52.1553 384.207 59.128H385.207H386.207C386.207 52.4474 387.794 47.5194 390.813 44.1829L390.071 43.512ZM385.207 59.128H384.207V91H385.207H386.207V59.128H385.207ZM385.207 91V90H372.023V91V92H385.207V91ZM443.093 91H442.093V92H443.093V91ZM443.093 27.896V26.896H442.093V27.896H443.093ZM456.277 27.896H457.277V26.896H456.277V27.896ZM456.277 91V92H457.277V91H456.277ZM443.221 16.888L442.514 17.5951L442.532 17.6128L442.55 17.6295L443.221 16.888ZM443.221 3.96L443.91 4.685L443.911 4.68414L443.221 3.96ZM456.277 3.96L455.57 4.6671L455.579 4.67617L455.588 4.685L456.277 3.96ZM456.277 16.888L456.966 17.613L456.975 17.6042L456.984 17.5951L456.277 16.888ZM443.093 91H444.093V27.896H443.093H442.093V91H443.093ZM443.093 27.896V28.896H456.277V27.896V26.896H443.093V27.896ZM456.277 27.896H455.277V91H456.277H457.277V27.896H456.277ZM456.277 91V90H443.093V91V92H456.277V91ZM449.749 19.32V18.32C447.421 18.32 445.488 17.591 443.892 16.1465L443.221 16.888L442.55 17.6295C444.538 19.4277 446.957 20.32 449.749 20.32V19.32ZM443.221 16.888L443.928 16.1809C442.428 14.6807 441.661 12.7681 441.661 10.36H440.661H439.661C439.661 13.2425 440.601 15.682 442.514 17.5951L443.221 16.888ZM440.661 10.36H441.661C441.661 7.95143 442.427 6.09327 443.91 4.685L443.221 3.96L442.532 3.235C440.601 5.06939 439.661 7.4779 439.661 10.36H440.661ZM443.221 3.96L443.911 4.68414C445.51 3.16121 447.436 2.39999 449.749 2.39999V1.39999V0.399994C446.942 0.399994 444.516 1.34545 442.531 3.23586L443.221 3.96ZM449.749 1.39999V2.39999C452.157 2.39999 454.07 3.16689 455.57 4.6671L456.277 3.96L456.984 3.25289C455.071 1.33977 452.632 0.399994 449.749 0.399994V1.39999ZM456.277 3.96L455.588 4.685C457.071 6.09327 457.837 7.95143 457.837 10.36H458.837H459.837C459.837 7.4779 458.897 5.06939 456.966 3.235L456.277 3.96ZM458.837 10.36H457.837C457.837 12.7681 457.07 14.6807 455.57 16.1809L456.277 16.888L456.984 17.5951C458.897 15.682 459.837 13.2425 459.837 10.36H458.837ZM456.277 16.888L455.588 16.163C454.091 17.5854 452.172 18.32 449.749 18.32V19.32V20.32C452.616 20.32 455.05 19.4332 456.966 17.613L456.277 16.888ZM482.627 87.544L481.907 88.2376L481.913 88.2444L481.92 88.2511L482.627 87.544ZM479.299 39.032H480.299V38.032H479.299V39.032ZM461.891 39.032H460.891V40.032H461.891V39.032ZM461.891 27.896V26.896H460.891V27.896H461.891ZM479.299 27.896V28.896H480.299V27.896H479.299ZM479.299 7.032V6.032H478.299V7.032H479.299ZM492.483 7.032H493.483V6.032H492.483V7.032ZM492.483 27.896H491.483V28.896H492.483V27.896ZM507.331 27.896H508.331V26.896H507.331V27.896ZM507.331 39.032V40.032H508.331V39.032H507.331ZM492.483 39.032V38.032H491.483V39.032H492.483ZM509.251 79.864H510.251V78.864H509.251V79.864ZM509.251 91V92H510.251V91H509.251ZM524.099 87.544L523.392 88.2511L524.099 87.544ZM520.643 39.032H521.643V38.032H520.643V39.032ZM507.331 39.032H506.331V40.032H507.331V39.032ZM507.331 27.896V26.896H506.331V27.896H507.331ZM520.643 27.896V28.896H521.643V27.896H520.643ZM520.643 7.032V6.032H519.643V7.032H520.643ZM533.827 7.032H534.827V6.032H533.827V7.032ZM533.827 27.896H532.827V28.896H533.827V27.896ZM552.771 27.896H553.771V26.896H552.771V27.896ZM552.771 39.032V40.032H553.771V39.032H552.771ZM533.827 39.032V38.032H532.827V39.032H533.827ZM550.595 79.864H551.595V78.864H550.595V79.864ZM550.595 91V92H551.595V91H550.595ZM491.843 91V90C488.217 90 485.417 88.9202 483.334 86.8369L482.627 87.544L481.92 88.2511C484.445 90.7758 487.789 92 491.843 92V91ZM482.627 87.544L483.347 86.8504C481.343 84.769 480.299 81.9645 480.299 78.328H479.299H478.299C478.299 82.3715 479.474 85.711 481.907 88.2376L482.627 87.544ZM479.299 78.328H480.299V39.032H479.299H478.299V78.328H479.299ZM479.299 39.032V38.032H461.891V39.032V40.032H479.299V39.032ZM461.891 39.032H462.891V27.896H461.891H460.891V39.032H461.891ZM461.891 27.896V28.896H479.299V27.896V26.896H461.891V27.896ZM479.299 27.896H480.299V7.032H479.299H478.299V27.896H479.299ZM479.299 7.032V8.032H492.483V7.032V6.032H479.299V7.032ZM492.483 7.032H491.483V27.896H492.483H493.483V7.032H492.483ZM492.483 27.896V28.896H507.331V27.896V26.896H492.483V27.896ZM507.331 27.896H506.331V39.032H507.331H508.331V27.896H507.331ZM507.331 39.032V38.032H492.483V39.032V40.032H507.331V39.032ZM492.483 39.032H491.483V76.024H492.483H493.483V39.032H492.483ZM492.483 76.024H491.483C491.483 77.4416 491.812 78.6911 492.648 79.5863C493.496 80.4945 494.7 80.864 496.067 80.864V79.864V78.864C495.045 78.864 494.457 78.5935 494.11 78.2217C493.751 77.8369 493.483 77.1664 493.483 76.024H492.483ZM496.067 79.864V80.864H509.251V79.864V78.864H496.067V79.864ZM509.251 79.864H508.251V91H509.251H510.251V79.864H509.251ZM509.251 91V90H491.843V91V92H509.251V91ZM533.315 91V90C529.689 90 526.889 88.9202 524.806 86.8369L524.099 87.544L523.392 88.2511C525.917 90.7758 529.261 92 533.315 92V91ZM524.099 87.544L524.806 86.8369C522.723 84.7536 521.643 81.9537 521.643 78.328H520.643H519.643C519.643 82.3823 520.867 85.7264 523.392 88.2511L524.099 87.544ZM520.643 78.328H521.643V39.032H520.643H519.643V78.328H520.643ZM520.643 39.032V38.032H507.331V39.032V40.032H520.643V39.032ZM507.331 39.032H508.331V27.896H507.331H506.331V39.032H507.331ZM507.331 27.896V28.896H520.643V27.896V26.896H507.331V27.896ZM520.643 27.896H521.643V7.032H520.643H519.643V27.896H520.643ZM520.643 7.032V8.032H533.827V7.032V6.032H520.643V7.032ZM533.827 7.032H532.827V27.896H533.827H534.827V7.032H533.827ZM533.827 27.896V28.896H552.771V27.896V26.896H533.827V27.896ZM552.771 27.896H551.771V39.032H552.771H553.771V27.896H552.771ZM552.771 39.032V38.032H533.827V39.032V40.032H552.771V39.032ZM533.827 39.032H532.827V76.024H533.827H534.827V39.032H533.827ZM533.827 76.024H532.827C532.827 77.4498 533.171 78.7044 534.036 79.599C534.907 80.5 536.139 80.864 537.539 80.864V79.864V78.864C536.465 78.864 535.84 78.588 535.474 78.209C535.102 77.8236 534.827 77.1582 534.827 76.024H533.827ZM537.539 79.864V80.864H550.595V79.864V78.864H537.539V79.864ZM550.595 79.864H549.595V91H550.595H551.595V79.864H550.595ZM550.595 91V90H533.315V91V92H550.595V91ZM572.768 88.824L572.272 89.6923L572.284 89.6989L572.768 88.824ZM561.504 77.432L560.622 77.9034L560.627 77.9125L560.632 77.9215L561.504 77.432ZM561.504 41.592L562.383 42.0698L562.386 42.0634L561.504 41.592ZM572.512 30.2L573.003 31.0712L573.008 31.0682L572.512 30.2ZM604.896 30.2L604.379 31.0561L604.389 31.0618L604.398 31.0672L604.896 30.2ZM615.648 41.336L616.529 40.8638L615.648 41.336ZM619.488 63.096V64.096H620.488V63.096H619.488ZM570.976 63.096V62.096H569.945L569.977 63.1268L570.976 63.096ZM576.48 76.408L575.791 77.1326L575.8 77.1412L575.809 77.1495L576.48 76.408ZM600.928 77.944L600.273 77.1883L600.267 77.1938L600.26 77.1994L600.928 77.944ZM606.816 70.264L607.276 69.3759L606.353 68.8985L605.911 69.8382L606.816 70.264ZM617.696 75.896L618.59 76.3432L619.031 75.4612L618.156 75.0079L617.696 75.896ZM612.448 83.448L611.694 82.7912L611.688 82.7982L611.682 82.8054L612.448 83.448ZM603.616 90.104L604.055 91.0026L603.616 90.104ZM571.104 52.984L570.114 52.8426L569.951 53.984H571.104V52.984ZM606.048 52.984V53.984H607.122L607.045 52.9128L606.048 52.984ZM600.928 41.848L600.264 42.5954L600.27 42.6006L600.276 42.6058L600.928 41.848ZM576.736 41.848L577.389 42.6058L577.39 42.6044L576.736 41.848ZM589.536 92.792V91.792C583.276 91.792 577.859 90.4993 573.252 87.9491L572.768 88.824L572.284 89.6989C577.234 92.4394 582.996 93.792 589.536 93.792V92.792ZM572.768 88.824L573.264 87.9558C568.645 85.3162 565.019 81.6508 562.376 76.9425L561.504 77.432L560.632 77.9215C563.45 82.9412 567.334 86.8704 572.272 89.6922L572.768 88.824ZM561.504 77.432L562.386 76.9606C559.829 72.1774 558.536 66.6266 558.536 60.28H557.536H556.536C556.536 66.904 557.888 72.7879 560.622 77.9034L561.504 77.432ZM557.536 60.28H558.536V58.744H557.536H556.536V60.28H557.536ZM557.536 58.744H558.536C558.536 52.3091 559.831 46.762 562.383 42.0698L561.504 41.592L560.626 41.1142C557.887 46.15 556.536 52.0376 556.536 58.744H557.536ZM561.504 41.592L562.386 42.0634C564.946 37.2744 568.482 33.6191 573.003 31.0711L572.512 30.2L572.021 29.3288C567.155 32.0716 563.353 36.0109 560.622 41.1206L561.504 41.592ZM572.512 30.2L573.008 31.0682C577.617 28.4348 582.945 27.104 589.024 27.104V26.104V25.104C582.644 25.104 576.965 26.5039 572.016 29.3318L572.512 30.2ZM589.024 26.104V27.104C594.928 27.104 600.034 28.4327 604.379 31.0561L604.896 30.2L605.413 29.3439C600.712 26.5059 595.238 25.104 589.024 25.104V26.104ZM604.896 30.2L604.398 31.0672C608.84 33.6174 612.293 37.191 614.767 41.8082L615.648 41.336L616.529 40.8638C613.883 35.9237 610.168 32.0732 605.394 29.3327L604.896 30.2ZM615.648 41.336L614.767 41.8082C617.236 46.4175 618.488 51.839 618.488 58.104H619.488H620.488C620.488 51.569 619.18 45.8118 616.529 40.8638L615.648 41.336ZM619.488 58.104H618.488V63.096H619.488H620.488V58.104H619.488ZM619.488 63.096V62.096H570.976V63.096V64.096H619.488V63.096ZM570.976 63.096L569.977 63.1268C570.154 68.894 572.073 73.5958 575.791 77.1326L576.48 76.408L577.169 75.6834C573.89 72.5642 572.139 68.3913 571.976 63.0652L570.976 63.096ZM576.48 76.408L575.809 77.1495C579.595 80.5749 584.279 82.272 589.792 82.272V81.272V80.272C584.724 80.272 580.533 78.7265 577.151 75.6665L576.48 76.408ZM589.792 81.272V82.272C594.87 82.272 598.866 81.1362 601.596 78.6886L600.928 77.944L600.26 77.1994C598.041 79.1892 594.612 80.272 589.792 80.272V81.272ZM600.928 77.944L601.583 78.6997C604.242 76.3949 606.293 73.7244 607.721 70.6898L606.816 70.264L605.911 69.8382C604.609 72.6063 602.734 75.0557 600.273 77.1883L600.928 77.944ZM606.816 70.264L606.356 71.1521L617.236 76.7841L617.696 75.896L618.156 75.0079L607.276 69.3759L606.816 70.264ZM617.696 75.896L616.802 75.4488C615.654 77.7433 613.959 80.1909 611.694 82.7912L612.448 83.448L613.202 84.1048C615.545 81.4144 617.348 78.8273 618.59 76.3432L617.696 75.896ZM612.448 83.448L611.682 82.8054C609.568 85.3256 606.743 87.4638 603.177 89.2054L603.616 90.104L604.055 91.0026C607.827 89.1602 610.891 86.861 613.214 84.0906L612.448 83.448ZM603.616 90.104L603.177 89.2054C599.688 90.9095 595.158 91.792 589.536 91.792V92.792V93.792C595.348 93.792 600.205 92.8825 604.055 91.0026L603.616 90.104ZM571.104 52.984V53.984H606.048V52.984V51.984H571.104V52.984ZM606.048 52.984L607.045 52.9128C606.689 47.9204 604.891 43.9406 601.581 41.0902L600.928 41.848L600.276 42.6058C603.109 45.046 604.724 48.4902 605.051 53.0552L606.048 52.984ZM600.928 41.848L601.592 41.1006C598.302 38.1754 594.038 36.752 588.896 36.752V37.752V38.752C593.653 38.752 597.41 40.0593 600.264 42.5954L600.928 41.848ZM588.896 37.752V36.752C583.753 36.752 579.453 38.1756 576.082 41.0916L576.736 41.848L577.39 42.6044C580.333 40.059 584.14 38.752 588.896 38.752V37.752ZM576.736 41.848L576.083 41.0902C572.794 43.9225 570.824 47.8724 570.114 52.8426L571.104 52.984L572.094 53.1254C572.749 48.5382 574.534 45.0642 577.389 42.6058L576.736 41.848Z" fill="url(#paint0_linear_400_1258)" mask="url(#path-1-outside-1_400_1258)"/>
<defs>
<linearGradient id="paint0_linear_400_1258" x1="312.267" y1="1" x2="312.267" y2="91" gradientUnits="userSpaceOnUse">
<stop offset="0.149038" stop-color="#FF315E"/>
<stop offset="0.427885" stop-color="#E861FF"/>
<stop offset="0.591346" stop-color="#8A38F5"/>
<stop offset="0.883459"/>
</linearGradient>
</defs>
</svg>
