<svg width="1162" height="174" viewBox="0 0 1162 174" fill="none" xmlns="http://www.w3.org/2000/svg">
<mask id="path-1-outside-1_276_350" maskUnits="userSpaceOnUse" x="0" y="0" width="1162" height="174" fill="black">
<rect fill="white" width="1162" height="174"/>
<path d="M57.64 169C50.44 169 44.68 166.84 40.36 162.52C36.2 158.2 34.12 152.44 34.12 145.24V71.56H1.48V50.68H34.12V11.56H58.84V50.68H94.12V71.56H58.84V140.92C58.84 145.72 61.08 148.12 65.56 148.12H90.28V169H57.64ZM108.762 169V50.68H133.002V64.6H136.842C138.762 59.64 141.802 56.04 145.962 53.8C150.282 51.4 155.562 50.2 161.802 50.2H175.962V72.52H160.842C152.842 72.52 146.282 74.76 141.162 79.24C136.042 83.56 133.482 90.28 133.482 99.4V169H108.762ZM220.613 172.36C212.133 172.36 204.533 170.92 197.813 168.04C191.253 165.16 185.973 160.92 181.973 155.32C178.133 149.72 176.213 142.92 176.213 134.92C176.213 126.76 178.133 120.04 181.973 114.76C185.973 109.32 191.333 105.24 198.053 102.52C204.933 99.8 212.693 98.44 221.333 98.44H257.333V90.76C257.333 83.88 255.253 78.36 251.093 74.2C246.933 70.04 240.533 67.96 231.893 67.96C223.413 67.96 216.933 69.96 212.453 73.96C207.973 77.96 205.013 83.16 203.573 89.56L180.533 82.12C182.453 75.72 185.493 69.96 189.653 64.84C193.973 59.56 199.653 55.32 206.693 52.12C213.733 48.92 222.213 47.32 232.133 47.32C247.493 47.32 259.573 51.24 268.373 59.08C277.173 66.92 281.573 78.04 281.573 92.44V141.16C281.573 145.96 283.813 148.36 288.293 148.36H298.373V169H279.893C274.293 169 269.733 167.56 266.213 164.68C262.693 161.8 260.933 157.88 260.933 152.92V152.2H257.333C256.053 154.6 254.133 157.4 251.573 160.6C249.013 163.8 245.253 166.6 240.293 169C235.333 171.24 228.773 172.36 220.613 172.36ZM224.213 151.96C234.133 151.96 242.133 149.16 248.213 143.56C254.293 137.8 257.333 129.96 257.333 120.04V117.64H222.773C216.213 117.64 210.933 119.08 206.933 121.96C202.933 124.68 200.933 128.76 200.933 134.2C200.933 139.64 203.013 143.96 207.173 147.16C211.333 150.36 217.013 151.96 224.213 151.96ZM308.009 169V50.68H332.249V68.44H336.089C338.329 63.64 342.329 59.16 348.089 55C353.849 50.84 362.409 48.76 373.769 48.76C382.729 48.76 390.649 50.76 397.529 54.76C404.569 58.76 410.089 64.44 414.089 71.8C418.089 79 420.089 87.72 420.089 97.96V169H395.369V99.88C395.369 89.64 392.809 82.12 387.689 77.32C382.569 72.36 375.529 69.88 366.569 69.88C356.329 69.88 348.089 73.24 341.849 79.96C335.769 86.68 332.729 96.44 332.729 109.24V169H308.009ZM489.745 172.36C474.705 172.36 462.225 169 452.305 162.28C442.385 155.56 436.305 145.4 434.065 131.8L457.105 126.28C458.385 132.84 460.545 138.04 463.585 141.88C466.625 145.72 470.385 148.44 474.865 150.04C479.505 151.64 484.465 152.44 489.745 152.44C497.585 152.44 503.585 150.92 507.745 147.88C512.065 144.84 514.225 140.92 514.225 136.12C514.225 131.32 512.225 127.8 508.225 125.56C504.225 123.32 498.305 121.48 490.465 120.04L482.305 118.6C474.305 117.16 467.025 115.08 460.465 112.36C453.905 109.64 448.705 105.88 444.865 101.08C441.025 96.28 439.105 90.12 439.105 82.6C439.105 71.4 443.265 62.76 451.585 56.68C459.905 50.44 470.945 47.32 484.705 47.32C497.985 47.32 508.865 50.36 517.345 56.44C525.985 62.36 531.585 70.44 534.145 80.68L511.105 87.16C509.665 79.96 506.625 74.92 501.985 72.04C497.345 69 491.585 67.48 484.705 67.48C477.985 67.48 472.705 68.76 468.865 71.32C465.025 73.72 463.105 77.16 463.105 81.64C463.105 86.44 464.945 89.96 468.625 92.2C472.465 94.44 477.585 96.12 483.985 97.24L492.385 98.68C500.865 100.12 508.625 102.12 515.665 104.68C522.705 107.24 528.225 110.92 532.225 115.72C536.385 120.52 538.465 126.92 538.465 134.92C538.465 146.76 534.065 155.96 525.265 162.52C516.465 169.08 504.625 172.36 489.745 172.36ZM571.741 169V71.56H538.621V50.68H571.741V24.76C571.741 17.56 573.901 11.8 578.221 7.47999C582.541 3.15999 588.301 0.999989 595.501 0.999989H624.301V21.88H603.421C598.781 21.88 596.461 24.28 596.461 29.08V50.68H649.501V71.56H596.461V169H571.741ZM649.501 169V50.68H674.221V169H649.501ZM661.981 35.32C657.181 35.32 653.101 33.8 649.741 30.76C646.541 27.56 644.941 23.48 644.941 18.52C644.941 13.4 646.541 9.31999 649.741 6.27999C653.101 3.23999 657.181 1.71999 661.981 1.71999C666.781 1.71999 670.781 3.23999 673.981 6.27999C677.341 9.31999 679.021 13.4 679.021 18.52C679.021 23.48 677.341 27.56 673.981 30.76C670.781 33.8 666.781 35.32 661.981 35.32ZM696.293 169V50.68H720.533V68.44H724.373C726.613 63.64 730.613 59.16 736.373 55C742.133 50.84 750.693 48.76 762.053 48.76C771.013 48.76 778.933 50.76 785.813 54.76C792.853 58.76 798.373 64.44 802.373 71.8C806.373 79 808.373 87.72 808.373 97.96V169H783.653V99.88C783.653 89.64 781.093 82.12 775.973 77.32C770.853 72.36 763.813 69.88 754.853 69.88C744.613 69.88 736.373 73.24 730.133 79.96C724.053 86.68 721.013 96.44 721.013 109.24V169H696.293ZM829.549 169V50.68H854.269V169H829.549ZM842.029 34.6C837.229 34.6 833.149 33.08 829.789 30.04C826.589 26.84 824.989 22.76 824.989 17.8C824.989 12.84 826.589 8.84 829.789 5.8C833.149 2.59999 837.229 0.999989 842.029 0.999989C846.989 0.999989 851.069 2.59999 854.269 5.8C857.469 8.84 859.069 12.84 859.069 17.8C859.069 22.76 857.469 26.84 854.269 30.04C851.069 33.08 846.989 34.6 842.029 34.6ZM920.956 169C913.756 169 907.996 166.84 903.676 162.52C899.516 158.2 897.436 152.44 897.436 145.24V71.56H864.796V50.68H897.436V11.56H922.156V50.68H949.996V71.56H922.156V140.92C922.156 145.72 924.396 148.12 928.876 148.12H953.596V169H920.956ZM998.716 169C991.516 169 985.756 166.84 981.436 162.52C977.116 158.2 974.956 152.44 974.956 145.24V71.56H949.996V50.68H974.956V11.56H999.676V50.68H1035.2V71.56H999.676V140.92C999.676 145.72 1002 148.12 1006.64 148.12H1031.12V169H998.716ZM1104.13 172.36C1092.13 172.36 1081.65 169.88 1072.69 164.92C1063.73 159.8 1056.69 152.68 1051.57 143.56C1046.61 134.28 1044.13 123.56 1044.13 111.4V108.52C1044.13 96.2 1046.61 85.48 1051.57 76.36C1056.53 67.08 1063.41 59.96 1072.21 55C1081.17 49.88 1091.49 47.32 1103.17 47.32C1114.53 47.32 1124.45 49.88 1132.93 55C1141.57 59.96 1148.29 66.92 1153.09 75.88C1157.89 84.84 1160.29 95.32 1160.29 107.32V116.68H1069.33C1069.65 127.08 1073.09 135.4 1079.65 141.64C1086.37 147.72 1094.69 150.76 1104.61 150.76C1113.89 150.76 1120.85 148.68 1125.49 144.52C1130.29 140.36 1133.97 135.56 1136.53 130.12L1156.93 140.68C1154.69 145.16 1151.41 149.88 1147.09 154.84C1142.93 159.8 1137.41 163.96 1130.53 167.32C1123.65 170.68 1114.85 172.36 1104.13 172.36ZM1069.57 97.72H1135.09C1134.45 88.76 1131.25 81.8 1125.49 76.84C1119.73 71.72 1112.21 69.16 1102.93 69.16C1093.65 69.16 1086.05 71.72 1080.13 76.84C1074.37 81.8 1070.85 88.76 1069.57 97.72Z"/>
</mask>
<path d="M40.36 162.52L39.6397 163.214L39.6462 163.22L39.6529 163.227L40.36 162.52ZM34.12 71.56H35.12V70.56H34.12V71.56ZM1.48 71.56H0.48V72.56H1.48V71.56ZM1.48 50.68V49.68H0.48V50.68H1.48ZM34.12 50.68V51.68H35.12V50.68H34.12ZM34.12 11.56V10.56H33.12V11.56H34.12ZM58.84 11.56H59.84V10.56H58.84V11.56ZM58.84 50.68H57.84V51.68H58.84V50.68ZM94.12 50.68H95.12V49.68H94.12V50.68ZM94.12 71.56V72.56H95.12V71.56H94.12ZM58.84 71.56V70.56H57.84V71.56H58.84ZM90.28 148.12H91.28V147.12H90.28V148.12ZM90.28 169V170H91.28V169H90.28ZM57.64 169V168C50.6543 168 45.1664 165.912 41.0671 161.813L40.36 162.52L39.6529 163.227C44.1936 167.768 50.2257 170 57.64 170V169ZM40.36 162.52L41.0803 161.826C37.1347 157.729 35.12 152.237 35.12 145.24H34.12H33.12C33.12 152.643 35.2653 158.671 39.6397 163.214L40.36 162.52ZM34.12 145.24H35.12V71.56H34.12H33.12V145.24H34.12ZM34.12 71.56V70.56H1.48V71.56V72.56H34.12V71.56ZM1.48 71.56H2.48V50.68H1.48H0.48V71.56H1.48ZM1.48 50.68V51.68H34.12V50.68V49.68H1.48V50.68ZM34.12 50.68H35.12V11.56H34.12H33.12V50.68H34.12ZM34.12 11.56V12.56H58.84V11.56V10.56H34.12V11.56ZM58.84 11.56H57.84V50.68H58.84H59.84V11.56H58.84ZM58.84 50.68V51.68H94.12V50.68V49.68H58.84V50.68ZM94.12 50.68H93.12V71.56H94.12H95.12V50.68H94.12ZM94.12 71.56V70.56H58.84V71.56V72.56H94.12V71.56ZM58.84 71.56H57.84V140.92H58.84H59.84V71.56H58.84ZM58.84 140.92H57.84C57.84 143.458 58.4307 145.547 59.7889 147.002C61.1593 148.471 63.1475 149.12 65.56 149.12V148.12V147.12C63.4925 147.12 62.1207 146.569 61.2511 145.638C60.3693 144.693 59.84 143.182 59.84 140.92H58.84ZM65.56 148.12V149.12H90.28V148.12V147.12H65.56V148.12ZM90.28 148.12H89.28V169H90.28H91.28V148.12H90.28ZM90.28 169V168H57.64V169V170H90.28V169ZM108.762 169H107.762V170H108.762V169ZM108.762 50.68V49.68H107.762V50.68H108.762ZM133.002 50.68H134.002V49.68H133.002V50.68ZM133.002 64.6H132.002V65.6H133.002V64.6ZM136.842 64.6V65.6H137.527L137.774 64.961L136.842 64.6ZM145.962 53.8L146.436 54.6805L146.448 54.6742L145.962 53.8ZM175.962 50.2H176.962V49.2H175.962V50.2ZM175.962 72.52V73.52H176.962V72.52H175.962ZM141.162 79.24L141.807 80.0043L141.814 79.9985L141.82 79.9926L141.162 79.24ZM133.482 169V170H134.482V169H133.482ZM108.762 169H109.762V50.68H108.762H107.762V169H108.762ZM108.762 50.68V51.68H133.002V50.68V49.68H108.762V50.68ZM133.002 50.68H132.002V64.6H133.002H134.002V50.68H133.002ZM133.002 64.6V65.6H136.842V64.6V63.6H133.002V64.6ZM136.842 64.6L137.774 64.961C139.62 60.1935 142.512 56.7932 146.436 54.6805L145.962 53.8L145.488 52.9195C141.091 55.2868 137.904 59.0865 135.909 64.239L136.842 64.6ZM145.962 53.8L146.448 54.6742C150.585 52.3756 155.688 51.2 161.802 51.2V50.2V49.2C155.436 49.2 149.979 50.4244 145.476 52.9258L145.962 53.8ZM161.802 50.2V51.2H175.962V50.2V49.2H161.802V50.2ZM175.962 50.2H174.962V72.52H175.962H176.962V50.2H175.962ZM175.962 72.52V71.52H160.842V72.52V73.52H175.962V72.52ZM160.842 72.52V71.52C152.645 71.52 145.837 73.8206 140.503 78.4874L141.162 79.24L141.82 79.9926C146.727 75.6994 153.039 73.52 160.842 73.52V72.52ZM141.162 79.24L140.517 78.4757C135.098 83.0478 132.482 90.0976 132.482 99.4H133.482H134.482C134.482 90.4624 136.986 84.0722 141.807 80.0043L141.162 79.24ZM133.482 99.4H132.482V169H133.482H134.482V99.4H133.482ZM133.482 169V168H108.762V169V170H133.482V169ZM197.813 168.04L197.411 168.956L197.419 168.959L197.813 168.04ZM181.973 155.32L181.148 155.886L181.154 155.893L181.159 155.901L181.973 155.32ZM181.973 114.76L181.167 114.168L181.164 114.172L181.973 114.76ZM198.053 102.52L197.685 101.59L197.678 101.593L198.053 102.52ZM257.333 98.44V99.44H258.333V98.44H257.333ZM251.093 74.2L250.386 74.9071L251.093 74.2ZM203.573 89.56L203.266 90.5116L204.308 90.8482L204.549 89.7795L203.573 89.56ZM180.533 82.12L179.575 81.8326L179.294 82.7707L180.226 83.0716L180.533 82.12ZM189.653 64.84L188.879 64.2068L188.877 64.2094L189.653 64.84ZM206.693 52.12L207.107 53.0304L206.693 52.12ZM268.373 59.08L269.038 58.3333L268.373 59.08ZM298.373 148.36H299.373V147.36H298.373V148.36ZM298.373 169V170H299.373V169H298.373ZM266.213 164.68L266.846 163.906L266.213 164.68ZM260.933 152.2H261.933V151.2H260.933V152.2ZM257.333 152.2V151.2H256.733L256.451 151.729L257.333 152.2ZM251.573 160.6L252.354 161.225L251.573 160.6ZM240.293 169L240.705 169.911L240.717 169.906L240.729 169.9L240.293 169ZM248.213 143.56L248.891 144.296L248.901 144.286L248.213 143.56ZM257.333 117.64H258.333V116.64H257.333V117.64ZM206.933 121.96L207.495 122.787L207.507 122.779L207.517 122.772L206.933 121.96ZM220.613 172.36V171.36C212.247 171.36 204.784 169.94 198.207 167.121L197.813 168.04L197.419 168.959C204.282 171.9 212.019 173.36 220.613 173.36V172.36ZM197.813 168.04L198.215 167.124C191.813 164.314 186.678 160.186 182.787 154.739L181.973 155.32L181.159 155.901C185.268 161.654 190.693 166.006 197.411 168.956L197.813 168.04ZM181.973 155.32L182.798 154.754C179.091 149.349 177.213 142.755 177.213 134.92H176.213H175.213C175.213 143.085 177.175 150.091 181.148 155.886L181.973 155.32ZM176.213 134.92H177.213C177.213 126.918 179.094 120.419 182.782 115.348L181.973 114.76L181.164 114.172C177.172 119.661 175.213 126.602 175.213 134.92H176.213ZM181.973 114.76L182.779 115.352C186.661 110.073 191.867 106.103 198.428 103.447L198.053 102.52L197.678 101.593C190.799 104.377 185.285 108.567 181.167 114.168L181.973 114.76ZM198.053 102.52L198.421 103.45C205.166 100.783 212.798 99.44 221.333 99.44V98.44V97.44C212.588 97.44 204.7 98.8167 197.685 101.59L198.053 102.52ZM221.333 98.44V99.44H257.333V98.44V97.44H221.333V98.44ZM257.333 98.44H258.333V90.76H257.333H256.333V98.44H257.333ZM257.333 90.76H258.333C258.333 83.6633 256.179 77.8721 251.8 73.4929L251.093 74.2L250.386 74.9071C254.327 78.8479 256.333 84.0967 256.333 90.76H257.333ZM251.093 74.2L251.8 73.4929C247.38 69.0729 240.674 66.96 231.893 66.96V67.96V68.96C240.392 68.96 246.486 71.007 250.386 74.9071L251.093 74.2ZM231.893 67.96V66.96C223.268 66.96 216.514 68.9939 211.787 73.2141L212.453 73.96L213.119 74.7059C217.353 70.9261 223.558 68.96 231.893 68.96V67.96ZM212.453 73.96L211.787 73.2141C207.137 77.3659 204.079 82.7568 202.598 89.3405L203.573 89.56L204.549 89.7795C205.947 83.5632 208.809 78.5541 213.119 74.7059L212.453 73.96ZM203.573 89.56L203.88 88.6084L180.84 81.1684L180.533 82.12L180.226 83.0716L203.266 90.5116L203.573 89.56ZM180.533 82.12L181.491 82.4073C183.374 76.1309 186.353 70.4878 190.429 65.4706L189.653 64.84L188.877 64.2094C184.634 69.4322 181.532 75.3091 179.575 81.8326L180.533 82.12ZM189.653 64.84L190.427 65.4732C194.638 60.327 200.188 56.1754 207.107 53.0304L206.693 52.12L206.279 51.2096C199.118 54.4646 193.309 58.793 188.879 64.2068L189.653 64.84ZM206.693 52.12L207.107 53.0304C213.986 49.9036 222.317 48.32 232.133 48.32V47.32V46.32C222.109 46.32 213.481 47.9364 206.279 51.2096L206.693 52.12ZM232.133 47.32V48.32C247.324 48.32 259.141 52.1942 267.708 59.8267L268.373 59.08L269.038 58.3333C260.005 50.2858 247.662 46.32 232.133 46.32V47.32ZM268.373 59.08L267.708 59.8267C276.249 67.4356 280.573 78.2566 280.573 92.44H281.573H282.573C282.573 77.8234 278.098 66.4044 269.038 58.3333L268.373 59.08ZM281.573 92.44H280.573V141.16H281.573H282.573V92.44H281.573ZM281.573 141.16H280.573C280.573 143.698 281.164 145.787 282.522 147.242C283.892 148.711 285.881 149.36 288.293 149.36V148.36V147.36C286.226 147.36 284.854 146.809 283.984 145.878C283.102 144.933 282.573 143.422 282.573 141.16H281.573ZM288.293 148.36V149.36H298.373V148.36V147.36H288.293V148.36ZM298.373 148.36H297.373V169H298.373H299.373V148.36H298.373ZM298.373 169V168H279.893V169V170H298.373V169ZM279.893 169V168C274.469 168 270.149 166.608 266.846 163.906L266.213 164.68L265.58 165.454C269.317 168.512 274.117 170 279.893 170V169ZM266.213 164.68L266.846 163.906C263.581 161.235 261.933 157.611 261.933 152.92H260.933H259.933C259.933 158.149 261.805 162.365 265.58 165.454L266.213 164.68ZM260.933 152.92H261.933V152.2H260.933H259.933V152.92H260.933ZM260.933 152.2V151.2H257.333V152.2V153.2H260.933V152.2ZM257.333 152.2L256.451 151.729C255.21 154.055 253.331 156.802 250.792 159.975L251.573 160.6L252.354 161.225C254.935 157.998 256.896 155.145 258.215 152.671L257.333 152.2ZM251.573 160.6L250.792 159.975C248.352 163.026 244.727 165.744 239.858 168.1L240.293 169L240.729 169.9C245.779 167.456 249.675 164.574 252.354 161.225L251.573 160.6ZM240.293 169L239.882 168.089C235.099 170.248 228.696 171.36 220.613 171.36V172.36V173.36C228.851 173.36 235.567 172.232 240.705 169.911L240.293 169ZM224.213 151.96V152.96C234.331 152.96 242.59 150.098 248.891 144.296L248.213 143.56L247.536 142.824C241.676 148.222 233.935 150.96 224.213 150.96V151.96ZM248.213 143.56L248.901 144.286C255.217 138.302 258.333 130.18 258.333 120.04H257.333H256.333C256.333 129.74 253.369 137.298 247.525 142.834L248.213 143.56ZM257.333 120.04H258.333V117.64H257.333H256.333V120.04H257.333ZM257.333 117.64V116.64H222.773V117.64V118.64H257.333V117.64ZM222.773 117.64V116.64C216.072 116.64 210.567 118.111 206.349 121.148L206.933 121.96L207.517 122.772C211.299 120.049 216.354 118.64 222.773 118.64V117.64ZM206.933 121.96L206.371 121.133C202.059 124.065 199.933 128.477 199.933 134.2H200.933H201.933C201.933 129.043 203.807 125.295 207.495 122.787L206.933 121.96ZM200.933 134.2H199.933C199.933 139.937 202.147 144.555 206.563 147.953L207.173 147.16L207.783 146.367C203.879 143.365 201.933 139.343 201.933 134.2H200.933ZM207.173 147.16L206.563 147.953C210.953 151.329 216.873 152.96 224.213 152.96V151.96V150.96C217.153 150.96 211.713 149.391 207.783 146.367L207.173 147.16ZM308.009 169H307.009V170H308.009V169ZM308.009 50.68V49.68H307.009V50.68H308.009ZM332.249 50.68H333.249V49.68H332.249V50.68ZM332.249 68.44H331.249V69.44H332.249V68.44ZM336.089 68.44V69.44H336.726L336.995 68.8629L336.089 68.44ZM348.089 55L348.674 55.8107L348.089 55ZM397.529 54.76L397.026 55.6245L397.035 55.6295L397.529 54.76ZM414.089 71.8L413.21 72.2775L413.215 72.2856L414.089 71.8ZM420.089 169V170H421.089V169H420.089ZM395.369 169H394.369V170H395.369V169ZM387.689 77.32L386.993 78.0382L386.999 78.0439L387.005 78.0495L387.689 77.32ZM341.849 79.96L341.116 79.2795L341.107 79.2891L341.849 79.96ZM332.729 169V170H333.729V169H332.729ZM308.009 169H309.009V50.68H308.009H307.009V169H308.009ZM308.009 50.68V51.68H332.249V50.68V49.68H308.009V50.68ZM332.249 50.68H331.249V68.44H332.249H333.249V50.68H332.249ZM332.249 68.44V69.44H336.089V68.44V67.44H332.249V68.44ZM336.089 68.44L336.995 68.8629C339.142 64.2612 343.007 59.9036 348.674 55.8107L348.089 55L347.503 54.1893C341.65 58.4164 337.515 63.0188 335.183 68.0171L336.089 68.44ZM348.089 55L348.674 55.8107C354.189 51.8277 362.503 49.76 373.769 49.76V48.76V47.76C362.315 47.76 353.508 49.8523 347.503 54.1893L348.089 55ZM373.769 48.76V49.76C382.575 49.76 390.317 51.724 397.026 55.6245L397.529 54.76L398.031 53.8955C390.98 49.796 382.883 47.76 373.769 47.76V48.76ZM397.529 54.76L397.035 55.6295C403.907 59.534 409.296 65.0755 413.21 72.2775L414.089 71.8L414.967 71.3225C410.882 63.8045 405.231 57.986 398.023 53.8905L397.529 54.76ZM414.089 71.8L413.215 72.2856C417.114 79.3051 419.089 87.8492 419.089 97.96H420.089H421.089C421.089 87.5908 419.063 78.6949 414.963 71.3143L414.089 71.8ZM420.089 97.96H419.089V169H420.089H421.089V97.96H420.089ZM420.089 169V168H395.369V169V170H420.089V169ZM395.369 169H396.369V99.88H395.369H394.369V169H395.369ZM395.369 99.88H396.369C396.369 89.4916 393.772 81.6522 388.373 76.5905L387.689 77.32L387.005 78.0495C391.846 82.5878 394.369 89.7883 394.369 99.88H395.369ZM387.689 77.32L388.385 76.6018C383.033 71.4176 375.718 68.88 366.569 68.88V69.88V70.88C375.339 70.88 382.104 73.3024 386.993 78.0382L387.689 77.32ZM366.569 69.88V68.88C356.087 68.88 347.568 72.3309 341.116 79.2795L341.849 79.96L342.582 80.6404C348.609 74.1491 356.571 70.88 366.569 70.88V69.88ZM341.849 79.96L341.107 79.2891C334.803 86.2566 331.729 96.294 331.729 109.24H332.729H333.729C333.729 96.586 336.734 87.1034 342.59 80.6309L341.849 79.96ZM332.729 109.24H331.729V169H332.729H333.729V109.24H332.729ZM332.729 169V168H308.009V169V170H332.729V169ZM452.305 162.28L452.866 161.452L452.305 162.28ZM434.065 131.8L433.832 130.828L432.927 131.044L433.078 131.963L434.065 131.8ZM457.105 126.28L458.086 126.088L457.887 125.064L456.872 125.308L457.105 126.28ZM463.585 141.88L464.369 141.259L463.585 141.88ZM474.865 150.04L474.529 150.982L474.539 150.985L474.865 150.04ZM507.745 147.88L507.169 147.062L507.162 147.067L507.155 147.073L507.745 147.88ZM490.465 120.04L490.646 119.056L490.639 119.055L490.465 120.04ZM482.305 118.6L482.128 119.584L482.131 119.585L482.305 118.6ZM460.465 112.36L460.082 113.284L460.465 112.36ZM444.865 101.08L445.646 100.455L444.865 101.08ZM451.585 56.68L452.175 57.4874L452.185 57.48L451.585 56.68ZM517.345 56.44L516.762 57.2527L516.771 57.2589L516.78 57.2649L517.345 56.44ZM534.145 80.68L534.416 81.6426L535.351 81.3797L535.115 80.4375L534.145 80.68ZM511.105 87.16L510.124 87.3561L510.336 88.415L511.376 88.1226L511.105 87.16ZM501.985 72.04L501.437 72.8765L501.447 72.8832L501.458 72.8896L501.985 72.04ZM468.865 71.32L469.395 72.168L469.407 72.1602L469.42 72.152L468.865 71.32ZM468.625 92.2L468.105 93.0542L468.113 93.0591L468.121 93.0638L468.625 92.2ZM483.985 97.24L483.813 98.225L483.816 98.2256L483.985 97.24ZM492.385 98.68L492.216 99.6656L492.218 99.6659L492.385 98.68ZM532.225 115.72L531.457 116.36L531.463 116.368L531.469 116.375L532.225 115.72ZM525.265 162.52L525.863 163.322L525.265 162.52ZM489.745 172.36V171.36C474.854 171.36 462.582 168.034 452.866 161.452L452.305 162.28L451.744 163.108C461.867 169.966 474.556 173.36 489.745 173.36V172.36ZM452.305 162.28L452.866 161.452C443.208 154.91 437.254 145.011 435.052 131.637L434.065 131.8L433.078 131.963C435.356 145.789 441.562 156.21 451.744 163.108L452.305 162.28ZM434.065 131.8L434.298 132.772L457.338 127.252L457.105 126.28L456.872 125.308L433.832 130.828L434.065 131.8ZM457.105 126.28L456.124 126.472C457.423 133.134 459.632 138.498 462.801 142.501L463.585 141.88L464.369 141.259C461.458 137.582 459.346 132.546 458.086 126.088L457.105 126.28ZM463.585 141.88L462.801 142.501C465.954 146.483 469.867 149.317 474.529 150.982L474.865 150.04L475.201 149.098C470.903 147.563 467.296 144.957 464.369 141.259L463.585 141.88ZM474.865 150.04L474.539 150.985C479.292 152.624 484.362 153.44 489.745 153.44V152.44V151.44C484.568 151.44 479.718 150.656 475.191 149.095L474.865 150.04ZM489.745 152.44V153.44C497.693 153.44 503.935 151.903 508.335 148.687L507.745 147.88L507.155 147.073C503.235 149.937 497.477 151.44 489.745 151.44V152.44ZM507.745 147.88L508.32 148.698C512.875 145.492 515.225 141.282 515.225 136.12H514.225H513.225C513.225 140.558 511.255 144.188 507.169 147.062L507.745 147.88ZM514.225 136.12H515.225C515.225 130.979 513.047 127.114 508.714 124.687L508.225 125.56L507.736 126.433C511.403 128.486 513.225 131.661 513.225 136.12H514.225ZM508.225 125.56L508.714 124.687C504.572 122.368 498.526 120.504 490.646 119.056L490.465 120.04L490.284 121.024C498.084 122.456 503.878 124.272 507.736 126.433L508.225 125.56ZM490.465 120.04L490.639 119.055L482.479 117.615L482.305 118.6L482.131 119.585L490.291 121.025L490.465 120.04ZM482.305 118.6L482.482 117.616C474.543 116.187 467.333 114.125 460.848 111.436L460.465 112.36L460.082 113.284C466.717 116.035 474.067 118.133 482.128 119.584L482.305 118.6ZM460.465 112.36L460.848 111.436C454.419 108.771 449.365 105.104 445.646 100.455L444.865 101.08L444.084 101.705C448.045 106.655 453.391 110.509 460.082 113.284L460.465 112.36ZM444.865 101.08L445.646 100.455C441.977 95.8695 440.105 89.9452 440.105 82.6H439.105H438.105C438.105 90.2948 440.073 96.6905 444.084 101.705L444.865 101.08ZM439.105 82.6H440.105C440.105 71.6869 444.138 63.3608 452.175 57.4874L451.585 56.68L450.995 55.8726C442.392 62.1592 438.105 71.1131 438.105 82.6H439.105ZM451.585 56.68L452.185 57.48C460.283 51.4062 471.092 48.32 484.705 48.32V47.32V46.32C470.798 46.32 459.527 49.4738 450.985 55.88L451.585 56.68ZM484.705 47.32V48.32C497.833 48.32 508.493 51.3241 516.762 57.2527L517.345 56.44L517.928 55.6273C509.237 49.3959 498.137 46.32 484.705 46.32V47.32ZM517.345 56.44L516.78 57.2649C525.216 63.0456 530.674 70.9176 533.175 80.9225L534.145 80.68L535.115 80.4375C532.496 69.9624 526.754 61.6744 517.91 55.6151L517.345 56.44ZM534.145 80.68L533.874 79.7173L510.834 86.1973L511.105 87.16L511.376 88.1226L534.416 81.6426L534.145 80.68ZM511.105 87.16L512.086 86.9639C510.611 79.59 507.46 74.2613 502.512 71.1904L501.985 72.04L501.458 72.8896C505.79 75.5787 508.719 80.33 510.124 87.3561L511.105 87.16ZM501.985 72.04L502.533 71.2035C497.695 68.0338 491.733 66.48 484.705 66.48V67.48V68.48C491.437 68.48 496.995 69.9662 501.437 72.8765L501.985 72.04ZM484.705 67.48V66.48C477.873 66.48 472.374 67.7791 468.31 70.4879L468.865 71.32L469.42 72.152C473.036 69.7409 478.097 68.48 484.705 68.48V67.48ZM468.865 71.32L468.335 70.472C464.206 73.0523 462.105 76.8107 462.105 81.64H463.105H464.105C464.105 77.5093 465.844 74.3877 469.395 72.168L468.865 71.32ZM463.105 81.64H462.105C462.105 86.7413 464.088 90.6093 468.105 93.0542L468.625 92.2L469.145 91.3458C465.802 89.3107 464.105 86.1386 464.105 81.64H463.105ZM468.625 92.2L468.121 93.0638C472.099 95.3843 477.345 97.0932 483.813 98.225L483.985 97.24L484.157 96.255C477.825 95.1468 472.831 93.4957 469.129 91.3362L468.625 92.2ZM483.985 97.24L483.816 98.2256L492.216 99.6656L492.385 98.68L492.554 97.6944L484.154 96.2544L483.985 97.24ZM492.385 98.68L492.218 99.6659C500.647 101.097 508.347 103.083 515.323 105.62L515.665 104.68L516.007 103.74C508.903 101.157 501.083 99.1427 492.552 97.6941L492.385 98.68ZM515.665 104.68L515.323 105.62C522.23 108.131 527.591 111.721 531.457 116.36L532.225 115.72L532.993 115.08C528.859 110.119 523.18 106.349 516.007 103.74L515.665 104.68ZM532.225 115.72L531.469 116.375C535.434 120.95 537.465 127.096 537.465 134.92H538.465H539.465C539.465 126.744 537.336 120.09 532.981 115.065L532.225 115.72ZM538.465 134.92H537.465C537.465 146.473 533.192 155.364 524.667 161.718L525.265 162.52L525.863 163.322C534.938 156.556 539.465 147.047 539.465 134.92H538.465ZM525.265 162.52L524.667 161.718C516.092 168.111 504.485 171.36 489.745 171.36V172.36V173.36C504.765 173.36 516.838 170.049 525.863 163.322L525.265 162.52ZM571.741 169H570.741V170H571.741V169ZM571.741 71.56H572.741V70.56H571.741V71.56ZM538.621 71.56H537.621V72.56H538.621V71.56ZM538.621 50.68V49.68H537.621V50.68H538.621ZM571.741 50.68V51.68H572.741V50.68H571.741ZM578.221 7.47999L577.513 6.77288L578.221 7.47999ZM624.301 0.999989H625.301V-1.14441e-05H624.301V0.999989ZM624.301 21.88V22.88H625.301V21.88H624.301ZM596.461 50.68H595.461V51.68H596.461V50.68ZM649.501 50.68H650.501V49.68H649.501V50.68ZM649.501 71.56V72.56H650.501V71.56H649.501ZM596.461 71.56V70.56H595.461V71.56H596.461ZM596.461 169V170H597.461V169H596.461ZM649.501 169H648.501V170H649.501V169ZM649.501 50.68V49.68H648.501V50.68H649.501ZM674.221 50.68H675.221V49.68H674.221V50.68ZM674.221 169V170H675.221V169H674.221ZM649.741 30.76L649.034 31.4671L649.051 31.4848L649.07 31.5015L649.741 30.76ZM649.741 6.27999L649.07 5.53846L649.061 5.54662L649.052 5.55499L649.741 6.27999ZM673.981 6.27999L673.292 7.00499L673.301 7.01337L673.31 7.02153L673.981 6.27999ZM673.981 30.76L674.669 31.485L674.67 31.4841L673.981 30.76ZM571.741 169H572.741V71.56H571.741H570.741V169H571.741ZM571.741 71.56V70.56H538.621V71.56V72.56H571.741V71.56ZM538.621 71.56H539.621V50.68H538.621H537.621V71.56H538.621ZM538.621 50.68V51.68H571.741V50.68V49.68H538.621V50.68ZM571.741 50.68H572.741V24.76H571.741H570.741V50.68H571.741ZM571.741 24.76H572.741C572.741 17.7743 574.828 12.2864 578.928 8.1871L578.221 7.47999L577.513 6.77288C572.973 11.3136 570.741 17.3457 570.741 24.76H571.741ZM578.221 7.47999L578.928 8.1871C583.027 4.08783 588.515 1.99999 595.501 1.99999V0.999989V-1.14441e-05C588.086 -1.14441e-05 582.054 2.23215 577.513 6.77288L578.221 7.47999ZM595.501 0.999989V1.99999H624.301V0.999989V-1.14441e-05H595.501V0.999989ZM624.301 0.999989H623.301V21.88H624.301H625.301V0.999989H624.301ZM624.301 21.88V20.88H603.421V21.88V22.88H624.301V21.88ZM603.421 21.88V20.88C600.938 20.88 598.894 21.524 597.482 22.985C596.075 24.4396 595.461 26.5342 595.461 29.08H596.461H597.461C597.461 26.8258 598.006 25.3204 598.92 24.375C599.827 23.436 601.264 22.88 603.421 22.88V21.88ZM596.461 29.08H595.461V50.68H596.461H597.461V29.08H596.461ZM596.461 50.68V51.68H649.501V50.68V49.68H596.461V50.68ZM649.501 50.68H648.501V71.56H649.501H650.501V50.68H649.501ZM649.501 71.56V70.56H596.461V71.56V72.56H649.501V71.56ZM596.461 71.56H595.461V169H596.461H597.461V71.56H596.461ZM596.461 169V168H571.741V169V170H596.461V169ZM649.501 169H650.501V50.68H649.501H648.501V169H649.501ZM649.501 50.68V51.68H674.221V50.68V49.68H649.501V50.68ZM674.221 50.68H673.221V169H674.221H675.221V50.68H674.221ZM674.221 169V168H649.501V169V170H674.221V169ZM661.981 35.32V34.32C657.412 34.32 653.576 32.8816 650.412 30.0185L649.741 30.76L649.07 31.5015C652.625 34.7184 656.949 36.32 661.981 36.32V35.32ZM649.741 30.76L650.448 30.0529C647.454 27.0593 645.941 23.2428 645.941 18.52H644.941H643.941C643.941 23.7172 645.627 28.0606 649.034 31.4671L649.741 30.76ZM644.941 18.52H645.941C645.941 13.6263 647.46 9.82561 650.429 7.00499L649.741 6.27999L649.052 5.55499C645.621 8.81437 643.941 13.1737 643.941 18.52H644.941ZM649.741 6.27999L650.412 7.02153C653.576 4.15837 657.412 2.71999 661.981 2.71999V1.71999V0.719994C656.949 0.719994 652.625 2.32162 649.07 5.53846L649.741 6.27999ZM661.981 1.71999V2.71999C666.549 2.71999 670.295 4.15775 673.292 7.00499L673.981 6.27999L674.669 5.55499C671.266 2.32224 667.012 0.719994 661.981 0.719994V1.71999ZM673.981 6.27999L673.31 7.02153C676.432 9.84626 678.021 13.6419 678.021 18.52H679.021H680.021C680.021 13.1581 678.249 8.79372 674.652 5.53846L673.981 6.27999ZM679.021 18.52H678.021C678.021 23.2274 676.438 27.0387 673.291 30.0359L673.981 30.76L674.67 31.4841C678.243 28.0813 680.021 23.7326 680.021 18.52H679.021ZM673.981 30.76L673.292 30.035C670.295 32.8822 666.549 34.32 661.981 34.32V35.32V36.32C667.012 36.32 671.266 34.7177 674.669 31.485L673.981 30.76ZM696.293 169H695.293V170H696.293V169ZM696.293 50.68V49.68H695.293V50.68H696.293ZM720.533 50.68H721.533V49.68H720.533V50.68ZM720.533 68.44H719.533V69.44H720.533V68.44ZM724.373 68.44V69.44H725.01L725.279 68.8629L724.373 68.44ZM736.373 55L736.959 55.8107L736.373 55ZM785.813 54.76L785.31 55.6245L785.319 55.6295L785.813 54.76ZM802.373 71.8L801.494 72.2775L801.499 72.2856L802.373 71.8ZM808.373 169V170H809.373V169H808.373ZM783.653 169H782.653V170H783.653V169ZM775.973 77.32L775.277 78.0382L775.283 78.0439L775.289 78.0495L775.973 77.32ZM730.133 79.96L729.4 79.2795L729.392 79.2891L730.133 79.96ZM721.013 169V170H722.013V169H721.013ZM696.293 169H697.293V50.68H696.293H695.293V169H696.293ZM696.293 50.68V51.68H720.533V50.68V49.68H696.293V50.68ZM720.533 50.68H719.533V68.44H720.533H721.533V50.68H720.533ZM720.533 68.44V69.44H724.373V68.44V67.44H720.533V68.44ZM724.373 68.44L725.279 68.8629C727.427 64.2612 731.291 59.9036 736.959 55.8107L736.373 55L735.788 54.1893C729.935 58.4164 725.799 63.0188 723.467 68.0171L724.373 68.44ZM736.373 55L736.959 55.8107C742.474 51.8277 750.787 49.76 762.053 49.76V48.76V47.76C750.599 47.76 741.793 49.8523 735.788 54.1893L736.373 55ZM762.053 48.76V49.76C770.859 49.76 778.602 51.724 785.31 55.6245L785.813 54.76L786.316 53.8955C779.265 49.796 771.167 47.76 762.053 47.76V48.76ZM785.813 54.76L785.319 55.6295C792.191 59.534 797.58 65.0755 801.495 72.2775L802.373 71.8L803.252 71.3225C799.166 63.8045 793.515 57.986 786.307 53.8905L785.813 54.76ZM802.373 71.8L801.499 72.2856C805.399 79.3051 807.373 87.8492 807.373 97.96H808.373H809.373C809.373 87.5908 807.348 78.6949 803.247 71.3143L802.373 71.8ZM808.373 97.96H807.373V169H808.373H809.373V97.96H808.373ZM808.373 169V168H783.653V169V170H808.373V169ZM783.653 169H784.653V99.88H783.653H782.653V169H783.653ZM783.653 99.88H784.653C784.653 89.4916 782.056 81.6522 776.657 76.5905L775.973 77.32L775.289 78.0495C780.13 82.5878 782.653 89.7883 782.653 99.88H783.653ZM775.973 77.32L776.669 76.6018C771.318 71.4176 764.003 68.88 754.853 68.88V69.88V70.88C763.623 70.88 770.389 73.3024 775.277 78.0382L775.973 77.32ZM754.853 69.88V68.88C744.371 68.88 735.853 72.3309 729.4 79.2795L730.133 79.96L730.866 80.6404C736.894 74.1491 744.855 70.88 754.853 70.88V69.88ZM730.133 79.96L729.392 79.2891C723.088 86.2566 720.013 96.294 720.013 109.24H721.013H722.013C722.013 96.586 725.019 87.1034 730.875 80.6309L730.133 79.96ZM721.013 109.24H720.013V169H721.013H722.013V109.24H721.013ZM721.013 169V168H696.293V169V170H721.013V169ZM829.549 169H828.549V170H829.549V169ZM829.549 50.68V49.68H828.549V50.68H829.549ZM854.269 50.68H855.269V49.68H854.269V50.68ZM854.269 169V170H855.269V169H854.269ZM829.789 30.04L829.082 30.7471L829.1 30.7648L829.118 30.7815L829.789 30.04ZM829.789 5.8L830.478 6.525L830.479 6.52414L829.789 5.8ZM854.269 5.8L853.562 6.5071L853.571 6.51617L853.581 6.525L854.269 5.8ZM854.269 30.04L854.958 30.765L854.967 30.7562L854.977 30.7471L854.269 30.04ZM829.549 169H830.549V50.68H829.549H828.549V169H829.549ZM829.549 50.68V51.68H854.269V50.68V49.68H829.549V50.68ZM854.269 50.68H853.269V169H854.269H855.269V50.68H854.269ZM854.269 169V168H829.549V169V170H854.269V169ZM842.029 34.6V33.6C837.461 33.6 833.625 32.1616 830.46 29.2985L829.789 30.04L829.118 30.7815C832.674 33.9984 836.998 35.6 842.029 35.6V34.6ZM829.789 30.04L830.497 29.3329C827.503 26.3393 825.989 22.5228 825.989 17.8H824.989H823.989C823.989 22.9972 825.676 27.3406 829.082 30.7471L829.789 30.04ZM824.989 17.8H825.989C825.989 13.0768 827.502 9.35194 830.478 6.525L829.789 5.8L829.101 5.075C825.676 8.32806 823.989 12.6032 823.989 17.8H824.989ZM829.789 5.8L830.479 6.52414C833.646 3.50787 837.476 1.99999 842.029 1.99999V0.999989V-1.14441e-05C836.982 -1.14441e-05 832.653 1.69211 829.1 5.07586L829.789 5.8ZM842.029 0.999989V1.99999C846.752 1.99999 850.569 3.51355 853.562 6.5071L854.269 5.8L854.977 5.09289C851.57 1.68643 847.227 -1.14441e-05 842.029 -1.14441e-05V0.999989ZM854.269 5.8L853.581 6.525C856.556 9.35194 858.069 13.0768 858.069 17.8H859.069H860.069C860.069 12.6032 858.382 8.32806 854.958 5.075L854.269 5.8ZM859.069 17.8H858.069C858.069 22.5228 856.556 26.3393 853.562 29.3329L854.269 30.04L854.977 30.7471C858.383 27.3406 860.069 22.9972 860.069 17.8H859.069ZM854.269 30.04L853.581 29.315C850.59 32.1561 846.767 33.6 842.029 33.6V34.6V35.6C847.211 35.6 851.549 34.0039 854.958 30.765L854.269 30.04ZM903.676 162.52L902.955 163.214L902.962 163.22L902.969 163.227L903.676 162.52ZM897.436 71.56H898.436V70.56H897.436V71.56ZM864.796 71.56H863.796V72.56H864.796V71.56ZM864.796 50.68V49.68H863.796V50.68H864.796ZM897.436 50.68V51.68H898.436V50.68H897.436ZM897.436 11.56V10.56H896.436V11.56H897.436ZM922.156 11.56H923.156V10.56H922.156V11.56ZM922.156 50.68H921.156V51.68H922.156V50.68ZM949.996 50.68H950.996V49.68H949.996V50.68ZM949.996 71.56V72.56H950.996V71.56H949.996ZM922.156 71.56V70.56H921.156V71.56H922.156ZM953.596 148.12H954.596V147.12H953.596V148.12ZM953.596 169V170H954.596V169H953.596ZM981.436 162.52L980.729 163.227L981.436 162.52ZM974.956 71.56H975.956V70.56H974.956V71.56ZM949.996 71.56H948.996V72.56H949.996V71.56ZM949.996 50.68V49.68H948.996V50.68H949.996ZM974.956 50.68V51.68H975.956V50.68H974.956ZM974.956 11.56V10.56H973.956V11.56H974.956ZM999.676 11.56H1000.68V10.56H999.676V11.56ZM999.676 50.68H998.676V51.68H999.676V50.68ZM1035.2 50.68H1036.2V49.68H1035.2V50.68ZM1035.2 71.56V72.56H1036.2V71.56H1035.2ZM999.676 71.56V70.56H998.676V71.56H999.676ZM1031.12 148.12H1032.12V147.12H1031.12V148.12ZM1031.12 169V170H1032.12V169H1031.12ZM920.956 169V168C913.97 168 908.482 165.912 904.383 161.813L903.676 162.52L902.969 163.227C907.509 167.768 913.541 170 920.956 170V169ZM903.676 162.52L904.396 161.826C900.45 157.729 898.436 152.237 898.436 145.24H897.436H896.436C896.436 152.643 898.581 158.671 902.955 163.214L903.676 162.52ZM897.436 145.24H898.436V71.56H897.436H896.436V145.24H897.436ZM897.436 71.56V70.56H864.796V71.56V72.56H897.436V71.56ZM864.796 71.56H865.796V50.68H864.796H863.796V71.56H864.796ZM864.796 50.68V51.68H897.436V50.68V49.68H864.796V50.68ZM897.436 50.68H898.436V11.56H897.436H896.436V50.68H897.436ZM897.436 11.56V12.56H922.156V11.56V10.56H897.436V11.56ZM922.156 11.56H921.156V50.68H922.156H923.156V11.56H922.156ZM922.156 50.68V51.68H949.996V50.68V49.68H922.156V50.68ZM949.996 50.68H948.996V71.56H949.996H950.996V50.68H949.996ZM949.996 71.56V70.56H922.156V71.56V72.56H949.996V71.56ZM922.156 71.56H921.156V140.92H922.156H923.156V71.56H922.156ZM922.156 140.92H921.156C921.156 143.458 921.746 145.547 923.105 147.002C924.475 148.471 926.463 149.12 928.876 149.12V148.12V147.12C926.808 147.12 925.436 146.569 924.567 145.638C923.685 144.693 923.156 143.182 923.156 140.92H922.156ZM928.876 148.12V149.12H953.596V148.12V147.12H928.876V148.12ZM953.596 148.12H952.596V169H953.596H954.596V148.12H953.596ZM953.596 169V168H920.956V169V170H953.596V169ZM998.716 169V168C991.73 168 986.242 165.912 982.143 161.813L981.436 162.52L980.729 163.227C985.269 167.768 991.301 170 998.716 170V169ZM981.436 162.52L982.143 161.813C978.043 157.714 975.956 152.226 975.956 145.24H974.956H973.956C973.956 152.654 976.188 158.686 980.729 163.227L981.436 162.52ZM974.956 145.24H975.956V71.56H974.956H973.956V145.24H974.956ZM974.956 71.56V70.56H949.996V71.56V72.56H974.956V71.56ZM949.996 71.56H950.996V50.68H949.996H948.996V71.56H949.996ZM949.996 50.68V51.68H974.956V50.68V49.68H949.996V50.68ZM974.956 50.68H975.956V11.56H974.956H973.956V50.68H974.956ZM974.956 11.56V12.56H999.676V11.56V10.56H974.956V11.56ZM999.676 11.56H998.676V50.68H999.676H1000.68V11.56H999.676ZM999.676 50.68V51.68H1035.2V50.68V49.68H999.676V50.68ZM1035.2 50.68H1034.2V71.56H1035.2H1036.2V50.68H1035.2ZM1035.2 71.56V70.56H999.676V71.56V72.56H1035.2V71.56ZM999.676 71.56H998.676V140.92H999.676H1000.68V71.56H999.676ZM999.676 140.92H998.676C998.676 143.466 999.29 145.56 1000.7 147.015C1002.11 148.476 1004.15 149.12 1006.64 149.12V148.12V147.12C1004.48 147.12 1003.04 146.564 1002.13 145.625C1001.22 144.68 1000.68 143.174 1000.68 140.92H999.676ZM1006.64 148.12V149.12H1031.12V148.12V147.12H1006.64V148.12ZM1031.12 148.12H1030.12V169H1031.12H1032.12V148.12H1031.12ZM1031.12 169V168H998.716V169V170H1031.12V169ZM1072.69 164.92L1072.19 165.788L1072.21 165.795L1072.69 164.92ZM1051.57 143.56L1050.69 144.031L1050.69 144.041L1050.7 144.05L1051.57 143.56ZM1051.57 76.36L1052.45 76.8378L1052.45 76.8314L1051.57 76.36ZM1072.21 55L1072.7 55.8712L1072.71 55.8682L1072.21 55ZM1132.93 55L1132.41 55.8561L1132.42 55.8618L1132.43 55.8672L1132.93 55ZM1153.09 75.88L1153.97 75.4078L1153.09 75.88ZM1160.29 116.68V117.68H1161.29V116.68H1160.29ZM1069.33 116.68V115.68H1068.3L1068.33 116.711L1069.33 116.68ZM1079.65 141.64L1078.96 142.365L1078.97 142.373L1078.98 142.382L1079.65 141.64ZM1125.49 144.52L1124.84 143.764L1124.83 143.77L1124.82 143.775L1125.49 144.52ZM1136.53 130.12L1136.99 129.232L1136.07 128.754L1135.63 129.694L1136.53 130.12ZM1156.93 140.68L1157.82 141.127L1158.27 140.245L1157.39 139.792L1156.93 140.68ZM1147.09 154.84L1146.34 154.183L1146.33 154.19L1146.32 154.197L1147.09 154.84ZM1130.53 167.32L1130.97 168.219L1130.53 167.32ZM1069.57 97.72L1068.58 97.5786L1068.42 98.72H1069.57V97.72ZM1135.09 97.72V98.72H1136.16L1136.09 97.6488L1135.09 97.72ZM1125.49 76.84L1124.83 77.5874L1124.83 77.5926L1124.84 77.5978L1125.49 76.84ZM1080.13 76.84L1080.78 77.5978L1080.78 77.5964L1080.13 76.84ZM1104.13 172.36V171.36C1092.27 171.36 1081.96 168.91 1073.17 164.045L1072.69 164.92L1072.21 165.795C1081.34 170.85 1091.99 173.36 1104.13 173.36V172.36ZM1072.69 164.92L1073.19 164.052C1064.39 159.023 1057.47 152.035 1052.44 143.07L1051.57 143.56L1050.7 144.05C1055.91 153.325 1063.07 160.577 1072.19 165.788L1072.69 164.92ZM1051.57 143.56L1052.45 143.089C1047.58 133.975 1045.13 123.421 1045.13 111.4H1044.13H1043.13C1043.13 123.699 1045.64 134.585 1050.69 144.031L1051.57 143.56ZM1044.13 111.4H1045.13V108.52H1044.13H1043.13V111.4H1044.13ZM1044.13 108.52H1045.13C1045.13 96.3358 1047.58 85.786 1052.45 76.8378L1051.57 76.36L1050.69 75.8822C1045.64 85.174 1043.13 96.0642 1043.13 108.52H1044.13ZM1051.57 76.36L1052.45 76.8314C1057.33 67.7117 1064.07 60.7338 1072.7 55.8711L1072.21 55L1071.72 54.1288C1062.75 59.1862 1055.73 66.4482 1050.69 75.8886L1051.57 76.36ZM1072.21 55L1072.71 55.8682C1081.5 50.8455 1091.64 48.32 1103.17 48.32V47.32V46.32C1091.34 46.32 1080.84 48.9145 1071.71 54.1318L1072.21 55ZM1103.17 47.32V48.32C1114.38 48.32 1124.11 50.8434 1132.41 55.8561L1132.93 55L1133.45 54.1439C1124.79 48.9166 1114.68 46.32 1103.17 46.32V47.32ZM1132.93 55L1132.43 55.8672C1140.91 60.7321 1147.49 67.5537 1152.21 76.3522L1153.09 75.88L1153.97 75.4078C1149.08 66.2863 1142.23 59.1879 1133.43 54.1327L1132.93 55ZM1153.09 75.88L1152.21 76.3522C1156.92 85.1428 1159.29 95.455 1159.29 107.32H1160.29H1161.29C1161.29 95.185 1158.86 84.5371 1153.97 75.4078L1153.09 75.88ZM1160.29 107.32H1159.29V116.68H1160.29H1161.29V107.32H1160.29ZM1160.29 116.68V115.68H1069.33V116.68V117.68H1160.29V116.68ZM1069.33 116.68L1068.33 116.711C1068.66 127.331 1072.18 135.916 1078.96 142.365L1079.65 141.64L1080.34 140.915C1074 134.884 1070.64 126.829 1070.33 116.649L1069.33 116.68ZM1079.65 141.64L1078.98 142.382C1085.9 148.644 1094.47 151.76 1104.61 151.76V150.76V149.76C1094.91 149.76 1086.84 146.796 1080.32 140.898L1079.65 141.64ZM1104.61 150.76V151.76C1114.02 151.76 1121.26 149.653 1126.16 145.265L1125.49 144.52L1124.82 143.775C1120.44 147.707 1113.76 149.76 1104.61 149.76V150.76ZM1125.49 144.52L1126.15 145.276C1131.04 141.03 1134.81 136.119 1137.43 130.546L1136.53 130.12L1135.63 129.694C1133.13 135.001 1129.54 139.69 1124.84 143.764L1125.49 144.52ZM1136.53 130.12L1136.07 131.008L1156.47 141.568L1156.93 140.68L1157.39 139.792L1136.99 129.232L1136.53 130.12ZM1156.93 140.68L1156.04 140.233C1153.84 144.618 1150.62 149.268 1146.34 154.183L1147.09 154.84L1147.84 155.497C1152.2 150.492 1155.54 145.702 1157.82 141.127L1156.93 140.68ZM1147.09 154.84L1146.32 154.197C1142.27 159.032 1136.87 163.112 1130.09 166.421L1130.53 167.32L1130.97 168.219C1137.95 164.808 1143.59 160.568 1147.86 155.483L1147.09 154.84ZM1130.53 167.32L1130.09 166.421C1123.39 169.693 1114.76 171.36 1104.13 171.36V172.36V173.36C1114.95 173.36 1123.91 171.667 1130.97 168.219L1130.53 167.32ZM1069.57 97.72V98.72H1135.09V97.72V96.72H1069.57V97.72ZM1135.09 97.72L1136.09 97.6488C1135.43 88.4751 1132.14 81.2473 1126.14 76.0822L1125.49 76.84L1124.84 77.5978C1130.36 82.3527 1133.47 89.0449 1134.09 97.7912L1135.09 97.72ZM1125.49 76.84L1126.15 76.0926C1120.18 70.7781 1112.4 68.16 1102.93 68.16V69.16V70.16C1112.02 70.16 1119.28 72.6619 1124.83 77.5874L1125.49 76.84ZM1102.93 69.16V68.16C1093.46 68.16 1085.61 70.7783 1079.48 76.0836L1080.13 76.84L1080.78 77.5964C1086.49 72.6617 1093.84 70.16 1102.93 70.16V69.16ZM1080.13 76.84L1079.48 76.0822C1073.5 81.2291 1069.89 88.4271 1068.58 97.5786L1069.57 97.72L1070.56 97.8614C1071.81 89.0929 1075.24 82.3709 1080.78 77.5978L1080.13 76.84Z" fill="url(#paint0_linear_276_350)" mask="url(#path-1-outside-1_276_350)"/>
<defs>
<linearGradient id="paint0_linear_276_350" x1="584" y1="1" x2="584" y2="169" gradientUnits="userSpaceOnUse">
<stop offset="0.149038" stop-color="#FF315E"/>
<stop offset="0.427885" stop-color="#E861FF"/>
<stop offset="0.591346" stop-color="#8A38F5"/>
<stop offset="0.883459"/>
</linearGradient>
</defs>
</svg>
