<svg width="1045" height="874" viewBox="0 0 1045 874" fill="none" xmlns="http://www.w3.org/2000/svg">
  <defs>
    <linearGradient id="borderGradient" x1="0" y1="0" x2="1045" y2="874" gradientUnits="userSpaceOnUse">
      <stop stop-color="#E861FF"/>
      <stop offset="0.5" stop-color="#EF315E"/>
      <stop offset="1" stop-color="#FF315E"/>
    </linearGradient>
  </defs>
  <path
    d="M50.4554 9.37275C53.1769 1.98718 61.3899 -1.78658 68.7996 0.943804L417.63 129.483C425.04 132.213 428.841 140.414 426.119 147.799L376.843 281.527C374.121 288.912 365.908 292.686 358.498 289.956L9.66768 161.417C2.25791 158.686 -1.54269 150.486 1.17878 143.1L50.4554 9.37275Z"
    fill="black"
    stroke="url(#borderGradient)"
    stroke-width="12"
  />
  <path
    d="M466.369 162.631C469.09 155.245 477.303 151.471 484.713 154.202L1034.79 356.898C1042.2 359.628 1046 367.829 1043.28 375.214L994.005 508.942C991.283 516.327 983.07 520.101 975.66 517.371L586.58 374C579.17 371.27 570.957 375.044 568.236 382.429L390.84 863.849C388.119 871.234 379.905 875.008 372.496 872.278L238.33 822.84C230.92 820.109 227.12 811.909 229.841 804.523L466.369 162.631Z"
    fill="black"
    stroke="url(#borderGradient)"
    stroke-width="12"
  />
</svg>