<svg width="27" height="14" viewBox="0 0 27 14" fill="none" xmlns="http://www.w3.org/2000/svg">
<g style="mix-blend-mode:difference">
<path d="M17.0335 13.4027C17.4261 13.8198 18.0909 13.8868 18.5682 13.5739L18.6614 13.5064L25.7197 7.80586C25.971 7.60288 26.1156 7.30895 26.1156 7.00006C26.1156 6.69116 25.971 6.39723 25.7197 6.19425L18.6614 0.493751L18.5682 0.426252C18.0909 0.113361 17.4261 0.180322 17.0335 0.597434C16.6148 1.04239 16.6644 1.71745 17.1447 2.10537L21.8825 5.93121H1.8848C1.24755 5.93121 0.730957 6.40975 0.730957 7.00006C0.730957 7.59036 1.24755 8.0689 1.8848 8.0689H21.8825L17.1447 11.8947L17.0598 11.9706C16.6599 12.366 16.6409 12.9855 17.0335 13.4027Z" fill="white"/>
</g>
</svg>
